<?xml version="1.0" encoding="UTF-8"?>
<svg id="_レイヤー_2" data-name="レイヤー 2" xmlns="http://www.w3.org/2000/svg" viewBox="0 0 576 88">
  <defs>
    <style>
      .cls-1 {
        fill: none;
        stroke: #fff;
        stroke-miterlimit: 10;
      }

      .cls-2 {
        fill: #bcd537;
      }

      .cls-2, .cls-3, .cls-4 {
        stroke-width: 0px;
      }

      .cls-3 {
        fill: #74a64c;
      }

      .cls-4 {
        fill: #d9eaec;
      }
    </style>
  </defs>
  <g id="plan">
    <g>
      <rect class="cls-4" width="576" height="88"/>
      <rect class="cls-1" x="5" y="5" width="566" height="78"/>
    </g>
    <g>
      <g>
        <path class="cls-3" d="m97.0594429,46.5931556c.1318359.0883789.2421875.1982422.2421875.3300781,0,.1762695-.1982422.3520508-.59375.6381836-.0439453.7480469-.0439453,1.2983398-.0439453,2.7285156,0,3.1245117.0654297,6.953125.1318359,8.5810547.0214844.484375.0439453,1.1000977.0439453,1.4082031,0,.8359375-.1982422,1.3862305-1.1220703,1.3862305-.5507812,0-.7705078-.2202148-.7705078-.7480469,0-.1538086.2421875-4.246582.2421875-5.0385742.0224609-.8364258.0439453-2.9487305.0878906-7.0849609-.9677734,1.3417969-2.1123047,2.6181641-3.4765625,3.6083984l-.1318359-.0878906c3.1464844-4.5771484,4.7089844-8.7353516,4.9726562-9.7255859.1103516-.4179688.1982422-.9682617.2197266-1.2983398l1.9804688,1.144043c.1757812.1103516.3085938.2202148.3085938.3964844,0,.3959961-.4404297.527832-.9248047.659668-.3300781.7041016-.6816406,1.4301758-1.4736328,2.9047852l.3076172.1977539Zm7.8994141.2641602v5.5449219h2.4863281l.7480469-1.012207c.0664062-.0878906.2197266-.2641602.3515625-.2641602.0888672,0,.2421875.1098633.3964844.2202148l1.4082031,1.012207c.1103516.0878906.2197266.2197266.2197266.3300781,0,.2416992-.1972656.2416992-.3300781.2416992h-5.2802734v6.6889648h3.7626953l.9462891-1.1220703c.109375-.1318359.2412109-.2861328.3515625-.2861328s.2636719.1323242.3964844.2421875l1.2753906,1.1220703c.0888672.0878906.2207031.1982422.2207031.3300781,0,.2421875-.1982422.2421875-.3300781.2421875h-11.2441406c-.1757812,0-1.5615234,0-2.5957031.1977539l-.4179688-.8579102c1.078125.0878906,2.2880859.1318359,3.3662109.1318359h2.7060547v-6.6889648h-1.5185547c-.5498047,0-1.6054688.0219727-2.5957031.1982422l-.4404297-.8803711c1.078125.1103516,2.3105469.1542969,3.3886719.1542969h1.1660156v-5.5449219h-2.4638672c-.5068359,0-1.6064453.0219727-2.5742188.1982422l-.4404297-.8803711c1.8037109.1538086,3.1240234.1538086,3.3662109.1538086h6.7109375l.7919922-1.0556641c.1318359-.1982422.2207031-.3300781.3740234-.3300781.0878906,0,.2421875.1318359.3964844.2416992l1.4296875,1.1000977c.0888672.0664062.2207031.1982422.2207031.3300781,0,.2202148-.2207031.2421875-.3300781.2421875h-5.9189453Zm-2.8388672-5.3686523c.96875.4399414,3.2568359,1.5400391,3.2568359,3.2783203,0,.5063477-.2197266,1.0561523-.9023438,1.0561523-.7480469,0-.9238281-.6162109-1.0996094-1.3203125-.2646484-.9902344-.96875-2.3540039-1.3642578-2.8823242l.109375-.1318359Z"/>
        <path class="cls-3" d="m120.8201851,47.2313392h-3.1025391c-.0439453,4.8188477-.0439453,5.875-.0439453,7.2172852,0,.9677734.0654297,5.2583008.0654297,6.1386719,0,.3959961,0,1.078125-1.078125,1.078125-.2421875,0-.6376953-.0878906-.6376953-.6162109,0-.3300781.1318359-1.8481445.1542969-2.1782227.0654297-1.5839844.0654297-2.2661133.0878906-6.46875.0214844-3.1025391.0214844-3.2788086.0439453-5.1708984-.7919922,0-1.7167969.065918-2.5087891.1982422l-.4394531-.8583984c.6152344.0439453,1.3857422.1103516,2.9482422.1323242,0-3.2568359-.0439453-4.3789062-.5058594-5.3032227l2.4199219.6821289c.1318359.0444336.2861328.1323242.2861328.3081055,0,.2202148-.0664062.2641602-.7705078.6601562,0,.5942383-.0214844,3.1464844-.0214844,3.652832h1.0341797l.6601562-.7041016c.109375-.1323242.2412109-.2861328.3515625-.2861328.0878906,0,.2646484.1098633.3964844.2416992l.7919922.7265625c.109375.1098633.1982422.1977539.1982422.3295898,0,.1982422-.1767578.2202148-.3300781.2202148Zm5.0820312,6.7548828c-.5712891,6.1611328-1.2314453,7.0410156-3.5644531,7.2832031-.2197266-1.2324219-.2861328-1.4741211-1.1660156-2.1782227l.0664062-.1762695c1.0117188.3520508,1.5839844.3740234,1.7597656.3740234.5722656,0,.7041016-.1318359,1.0566406-1.8481445.1533203-.7260742.4394531-2.15625.4833984-4.0708008h-1.6054688c-.4179688,2.640625-1.5410156,6.0952148-4.7529297,7.6791992l-.0878906-.1098633c1.6503906-1.4521484,3.0800781-3.9824219,3.4326172-7.546875-.7041016,0-1.5185547.065918-2.2001953.1977539l-.4404297-.8798828c.8144531.065918,1.4521484.1098633,2.6845703.1318359.109375-1.6723633-.0664062-2.3325195-.1318359-2.6625977l2.0019531.7041016c.1982422.0664062.2861328.1982422.2861328.3081055,0,.1762695-.484375.484375-.5947266.550293-.0439453.4179688-.0439453.5942383-.109375,1.1000977h1.3203125l.5273438-.550293c.1542969-.1538086.2207031-.2197266.3085938-.2197266s.1982422.1098633.2861328.1977539l.9023438.7924805c.0878906.0878906.1757812.1757812.1757812.3076172,0,.1542969-.0664062.1982422-.6386719.6162109Zm5.0830078-8.9331055c-.9677734,4.4448242-2.4863281,4.5986328-3.8066406,4.7524414-.109375-.7480469-.1982422-1.3417969-1.3857422-2.3320312l.0878906-.1323242c.8359375.3959961,1.8261719.5283203,1.9804688.5283203,1.1220703,0,1.6279297-2.5302734,1.8701172-3.7407227h-3.234375c-.9462891,2.7504883-2.3330078,5.0166016-6.0947266,6.1611328l-.0224609-.1323242c2.2001953-1.4741211,4.0048828-3.4101562,4.6425781-6.0288086h-1.1445312c-.5498047,0-1.6054688,0-2.5957031.1982422l-.4404297-.8803711c1.5185547.1323242,3.0810547.1542969,3.3886719.1542969h.9238281c.0878906-.550293.1542969-1.012207.1542969-1.5405273,0-.4619141-.0664062-.6376953-.1542969-.8579102l2.2451172.6821289c.0878906.0219727.1972656.0878906.1972656.2197266,0,.1323242-.3515625.3525391-.7041016.5722656-.1318359.5283203-.1757812.6821289-.2421875.9243164h2.8388672l.3515625-.4399414c.1103516-.1323242.2646484-.1982422.375-.1982422.1318359,0,.1972656.0439453.3076172.1318359l1.1660156.9682617c.0878906.065918.1757812.1538086.1757812.2861328,0,.2421875-.5498047.527832-.8798828.7041016Zm2.3544922,8.559082c-.1982422.1103516-.3076172.1982422-.4619141.3081055-.0439453,2.3105469-.3300781,5.2807617-1.0126953,6.3808594-.1318359.2202148-.7041016,1.1220703-2.6396484,1.2983398-.4628906-1.3642578-.484375-1.4082031-1.2548828-2.15625l.0664062-.1762695c1.1220703.3740234,1.7597656.3740234,1.8701172.3740234.8798828,0,.9462891-.3959961,1.2099609-1.8481445.1542969-.9462891.4179688-3.6083984.3300781-4.3564453h-1.6279297c-.5722656,3.1904297-1.4082031,6.0507812-5.1269531,7.8989258l-.0654297-.1098633c1.2539062-1.1884766,3.1904297-3.3227539,3.828125-7.7231445-.484375.0219727-.7480469.0878906-1.0117188.1318359l-.4404297-.8798828c.7480469.065918,1.078125.0878906,1.5400391.1098633.0224609-.2202148.0664062-.7700195.0664062-1.6064453,0-1.0556641-.0878906-1.3417969-.1767578-1.6499023l2.0908203.7480469c.1757812.065918.2861328.2202148.2861328.3300781,0,.2421875-.5722656.527832-.6826172.5942383-.0878906.8139648-.1318359,1.1879883-.2197266,1.605957.1757812.0219727.2636719.0219727.484375.0219727h.8574219l.5507812-.6381836c.0878906-.1098633.1982422-.2197266.2636719-.2197266.0878906,0,.2197266.065918.3300781.1538086l1.0566406.7919922c.0878906.0664062.1972656.1982422.1972656.2861328,0,.1542969-.1533203.2421875-.3076172.3300781Z"/>
        <path class="cls-3" d="m146.1639351,59.3993079l-.0214844-.1762695c4.7089844-1.6723633,6.9091797-4.7744141,6.9091797-8.1191406,0-3.7182617-2.9931641-5.9189453-6.8212891-5.9189453-.5498047,0-.6601562.0219727-.9023438.1323242,1.1884766.6376953,1.5185547,1.4521484,1.5185547,1.7602539,0,.2416992-.0664062.3959961-.7480469,1.8261719-1.4082031,3.0141602-3.4765625,7.4370117-4.9726562,8.6689453-.1542969.1103516-.4179688.2421875-.7041016.2421875-.5058594,0-.7041016-.2861328-1.3642578-1.2099609-.1542969-.2202148-1.0341797-1.0341797-1.1884766-1.2324219-.2421875-.3520508-.6162109-1.144043-.6162109-2.2441406,0-4.730957,4.0048828-8.6254883,9.3740234-8.6254883,4.2685547,0,8.140625,2.4863281,8.140625,6.9091797,0,4.2685547-3.5644531,7.546875-8.6035156,7.9873047Zm-1.7382812-13.9501953c-2.4199219.3959961-5.7861328,3.5205078-5.7861328,7.5693359,0,1.4960938.8574219,3.1459961,1.7158203,3.1459961.5947266,0,1.4521484-1.5620117,1.8261719-2.3100586,2.2001953-4.4228516,2.9267578-5.8530273,2.9267578-6.9970703,0-.550293-.2636719-1.012207-.6826172-1.4082031Z"/>
        <path class="cls-3" d="m175.4256539,49.4535071c-.3300781.0444336-.5068359.1762695-.7480469.3959961-1.3642578,1.2983398-2.15625,1.9584961-3.9169922,3.1245117l-.1318359-.1098633c.7919922-.9243164,2.15625-2.7944336,2.7939453-4.2685547-.7695312.2421875-4.4003906,1.3862305-4.9501953,1.5620117-.2421875.0664062-1.3203125.418457-1.5400391.484375-.0664062,1.7602539-.0878906,3.0581055-.0878906,3.7402344,0,2.5307617,0,3.2348633,2.6835938,3.2348633,1.4960938,0,2.9267578-.3081055,3.6972656-.4624023.2851562-.065918.4394531-.0878906.6152344-.0878906.3964844,0,1.3427734.1982422,1.5625.3959961.1103516.1098633.1982422.2641602.1982422.484375,0,.3959961-.2421875.5717773-.7041016.7041016-.5283203.1757812-2.3320312.2856445-3.9169922.2856445-2.2441406,0-4.6865234,0-5.2138672-2.15625-.2646484-1.012207-.1982422-4.4223633-.1542969-5.7426758-2.0029297.6381836-2.1787109.7260742-3.8066406,1.5180664-.2861328.1542969-.4179688.1982422-.5722656.1982422-.484375,0-1.8701172-1.0341797-1.8701172-2.1782227,0-.418457.0878906-.7705078.1757812-1.078125.8144531,1.1220703,1.0341797,1.4521484,1.8486328,1.4521484.8359375,0,2.265625-.418457,4.2460938-.9902344.0224609-.8803711.1103516-4.6865234-.1972656-5.2368164-.1103516-.1982422-.4404297-.6601562-1.6943359-.9462891.6816406-.4179688,1.2099609-.5498047,1.5400391-.5498047.8798828,0,2.3984375.5058594,2.3984375,1.1220703,0,.1318359-.1982422.8798828-.2207031.9462891-.2851562,1.0117188-.3955078,3.1459961-.4619141,4.2905273.6601562-.1982422,5.9414062-1.7163086,6.2050781-1.8925781.1103516-.0878906.59375-.4619141.7041016-.5498047.0878906-.065918.1757812-.1323242.3085938-.1323242.3515625,0,2.265625,1.3862305,2.265625,1.9145508,0,.3740234-.0654297.3959961-1.0556641.527832Z"/>
        <path class="cls-3" d="m193.6844429,59.6629798c-.3300781,0-.5273438-.1098633-1.2978516-.8359375-1.0341797-.9902344-2.0898438-1.9804688-5.5449219-3.3447266-1.2539062-.4838867-2.1337891-.7700195-3.1025391-1.078125,5.28125-.1757812,10.6494141,2.3325195,10.6494141,4.4667969,0,.3959961-.2636719.7919922-.7041016.7919922Zm-.6816406-12.2333984c-.2636719,0-.3740234-.0664062-1.2539062-.6601562-2.3105469-1.5844727-4.5107422-2.2885742-7.0410156-2.9707031.4619141-.0439453.9238281-.065918,1.5400391-.065918,2.4638672,0,7.3710938.9023438,7.3710938,2.9926758,0,.3076172-.2197266.7041016-.6162109.7041016Zm-.5498047,5.0605469c-.3085938,0-.3964844-.0878906-1.2548828-.7041016-1.4960938-1.1000977-3.828125-1.9804688-5.8964844-2.640625.4179688-.0439453.5498047-.0439453,1.0566406-.0439453.3076172,0,6.6884766.0664062,6.6884766,2.706543,0,.0219727,0,.6821289-.59375.6821289Z"/>
        <path class="cls-3" d="m203.5613961,57.8368079c2.9042969-1.9580078,6.7763672-5.456543,8.5371094-8.8232422-2.6181641.2641602-4.6425781.7919922-5.1933594,1.012207-.3076172.1318359-.4833984.1982422-.6601562.1982422-.5712891,0-2.0019531-.8364258-2.0019531-2.3105469,0-.2421875.0224609-.4179688.0664062-.7700195.8359375,1.078125,1.1435547,1.4521484,2.5957031,1.4521484.4189453,0,4.3134766-.3740234,5.6777344-.4838867-.0224609-2.9047852-.0449219-3.3007812-.2646484-3.8505859-.1982422-.484375-.6162109-.6381836-1.7158203-1.0561523.2636719-.1982422.7255859-.5063477,1.3417969-.5063477,1.078125,0,2.4648438.8364258,2.4648438,1.2543945,0,.1098633-.0664062.2416992-.2646484.6821289-.3076172.6381836-.3300781,1.7382812-.3515625,3.3442383,2.2216797-.2197266,2.4638672-.2421875,2.8378906-.3300781.1767578-.0439453.9248047-.2861328,1.1005859-.2861328.3955078,0,2.0898438.4404297,2.0898438,1.1665039,0,.3520508-.2197266.527832-.5058594.527832-.2636719,0-1.4746094-.1538086-1.7158203-.1757812-.7480469-.0439453-1.3642578-.065918-1.8046875-.065918-.8798828,0-1.6943359.0439453-2.0019531.065918v3.1025391c0,.8139648.1318359,4.4443359.1318359,5.1923828,0,2.6186523-.8798828,3.2788086-1.2978516,3.2788086-.3525391,0-.4628906-.2421875-.7929688-1.0341797-.3955078-.9243164-1.8261719-1.9145508-2.3974609-2.2885742l.0878906-.1757812c.5273438.1757812,2.3984375.6601562,2.5742188.6601562.3515625,0,.3515625-.1542969.3955078-.7705078.1103516-2.0019531.1542969-4.1806641.1328125-6.1826172-1.1445312,1.8920898-4.2910156,5.6987305-8.9775391,7.3491211l-.0878906-.1762695Z"/>
        <path class="cls-3" d="m240.8973336,52.2699134c-.1982422,0-.7265625-.0439453-.7705078-.0439453-.7919922-.065918-1.0117188-.0878906-2.4863281-.0878906-6.7109375,0-8.6904297.1318359-9.6806641.3959961-.0664062.0219727-.7705078.1982422-.8369141.1982422-.5712891,0-1.7597656-1.4082031-1.7597656-2.4204102,0-.1323242.0214844-.550293.2636719-1.0561523.7480469,1.6723633,1.4306641,1.6723633,3.71875,1.6723633,1.5185547,0,8.6689453-.0219727,9.6816406-.2641602.1318359-.0219727.7695312-.1982422.9023438-.1982422.1318359,0,2.3320312.2421875,2.3320312,1.1000977,0,.6821289-1.1005859.7041016-1.3642578.7041016Z"/>
        <path class="cls-3" d="m261.4227242,47.7816321c-.3515625.1538086-.4833984.2636719-.7695312.8579102-3.9169922,7.7890625-6.953125,10.1655273-12.1455078,11.8598633l-.0888672-.1762695c3.8945312-2.1123047,6.4472656-4.9067383,7.6796875-6.7109375-.1542969,0-.3525391,0-.9238281-.6821289-.8369141-.9902344-1.3642578-1.605957-2.8613281-2.5302734-1.4960938,1.628418-2.9921875,2.4423828-3.7617188,2.8603516l-.0664062-.1098633c2.5302734-2.4643555,5.4570312-7.1289062,5.4570312-8.2514648,0-.4838867-.484375-.7700195-1.2548828-1.1660156.5068359-.1757812.7705078-.2641602,1.0791016-.2641602.8134766,0,2.4638672,1.078125,2.4638672,1.5625,0,.1977539-.0878906.2641602-.3964844.5717773-.2412109.2421875-.2851562.3081055-.7255859.9682617.5283203.0878906,3.8505859-.1098633,4.6865234-.6381836.0664062-.0439453.5722656-.3520508.6162109-.3520508.1982422,0,1.6943359,1.3422852,1.6943359,1.7163086,0,.1762695-.2197266.2641602-.6826172.484375Zm-5.6103516-.1323242c-.2861328,0-.6162109-.0439453-1.2099609-.3740234-.3085938.484375-1.3642578,2.0244141-2.046875,2.8164062.8359375.1323242,2.5527344.550293,3.4765625,1.2763672.3525391.2861328.6601562.8139648.6162109,1.4301758,1.4082031-2.2001953,2.5742188-4.5986328,2.8828125-5.6547852-.6386719.1098633-3.234375.5058594-3.71875.5058594Zm7.0410156-1.3642578c-.3525391,0-.484375-.1757812-1.1445312-1.0117188-.7041016-.8803711-1.3642578-1.3203125-2.1123047-1.7827148,2.5087891.1762695,3.7626953,1.0786133,3.7626953,2.090332,0,.3964844-.2197266.7041016-.5058594.7041016Zm2.3105469-.8579102c-.1542969,0-.3525391-.0219727-.9023438-.6821289-.6601562-.7919922-1.1660156-1.3203125-2.4208984-2.0024414,1.1005859-.0219727,3.7851562.3300781,3.7851562,1.9804688,0,.4619141-.1982422.7041016-.4619141.7041016Z"/>
        <path class="cls-3" d="m284.8973336,52.2699134c-.1982422,0-.7265625-.0439453-.7705078-.0439453-.7919922-.065918-1.0117188-.0878906-2.4863281-.0878906-6.7109375,0-8.6904297.1318359-9.6806641.3959961-.0664062.0219727-.7705078.1982422-.8369141.1982422-.5712891,0-1.7597656-1.4082031-1.7597656-2.4204102,0-.1323242.0214844-.550293.2636719-1.0561523.7480469,1.6723633,1.4306641,1.6723633,3.71875,1.6723633,1.5185547,0,8.6689453-.0219727,9.6816406-.2641602.1318359-.0219727.7695312-.1982422.9023438-.1982422.1318359,0,2.3320312.2421875,2.3320312,1.1000977,0,.6821289-1.1005859.7041016-1.3642578.7041016Z"/>
        <path class="cls-3" d="m295.0594429,46.5931556c.1318359.0883789.2421875.1982422.2421875.3300781,0,.1762695-.1982422.3520508-.59375.6381836-.0439453.7480469-.0439453,1.2983398-.0439453,2.7285156,0,3.1245117.0654297,6.953125.1318359,8.5810547.0214844.484375.0439453,1.1000977.0439453,1.4082031,0,.8359375-.1982422,1.3862305-1.1220703,1.3862305-.5507812,0-.7705078-.2202148-.7705078-.7480469,0-.1538086.2421875-4.246582.2421875-5.0385742.0224609-.8364258.0439453-2.9487305.0878906-7.0849609-.9677734,1.3417969-2.1123047,2.6181641-3.4765625,3.6083984l-.1318359-.0878906c3.1464844-4.5771484,4.7089844-8.7353516,4.9726562-9.7255859.1103516-.4179688.1982422-.9682617.2197266-1.2983398l1.9804688,1.144043c.1757812.1103516.3085938.2202148.3085938.3964844,0,.3959961-.4404297.527832-.9248047.659668-.3300781.7041016-.6816406,1.4301758-1.4736328,2.9047852l.3076172.1977539Zm7.8994141.2641602v5.5449219h2.4863281l.7480469-1.012207c.0664062-.0878906.2197266-.2641602.3515625-.2641602.0888672,0,.2421875.1098633.3964844.2202148l1.4082031,1.012207c.1103516.0878906.2197266.2197266.2197266.3300781,0,.2416992-.1972656.2416992-.3300781.2416992h-5.2802734v6.6889648h3.7626953l.9462891-1.1220703c.109375-.1318359.2412109-.2861328.3515625-.2861328s.2636719.1323242.3964844.2421875l1.2753906,1.1220703c.0888672.0878906.2207031.1982422.2207031.3300781,0,.2421875-.1982422.2421875-.3300781.2421875h-11.2441406c-.1757812,0-1.5615234,0-2.5957031.1977539l-.4179688-.8579102c1.078125.0878906,2.2880859.1318359,3.3662109.1318359h2.7060547v-6.6889648h-1.5185547c-.5498047,0-1.6054688.0219727-2.5957031.1982422l-.4404297-.8803711c1.078125.1103516,2.3105469.1542969,3.3886719.1542969h1.1660156v-5.5449219h-2.4638672c-.5068359,0-1.6064453.0219727-2.5742188.1982422l-.4404297-.8803711c1.8037109.1538086,3.1240234.1538086,3.3662109.1538086h6.7109375l.7919922-1.0556641c.1318359-.1982422.2207031-.3300781.3740234-.3300781.0878906,0,.2421875.1318359.3964844.2416992l1.4296875,1.1000977c.0888672.0664062.2207031.1982422.2207031.3300781,0,.2202148-.2207031.2421875-.3300781.2421875h-5.9189453Zm-2.8388672-5.3686523c.96875.4399414,3.2568359,1.5400391,3.2568359,3.2783203,0,.5063477-.2197266,1.0561523-.9023438,1.0561523-.7480469,0-.9238281-.6162109-1.0996094-1.3203125-.2646484-.9902344-.96875-2.3540039-1.3642578-2.8823242l.109375-.1318359Z"/>
        <path class="cls-3" d="m329.7996773,46.4832923c-.7041016.3520508-1.3427734.8139648-1.9804688,1.2763672l-.1103516-.0664062c.5947266-1.6938477.6162109-1.8481445.6826172-2.2661133h-12.8056641c.0654297,2.4643555-1.2763672,3.6303711-2.2226562,3.6303711-.6162109,0-.9462891-.4838867-.9462891-.8579102,0-.550293.5058594-.9462891,1.1220703-1.4301758,1.0341797-.7919922,1.4521484-1.4301758,1.6943359-2.7285156h.1318359c.0878906.2641602.1318359.4619141.1767578.8579102h5.6767578c.0439453-2.0678711-.1328125-2.5742188-.4404297-3.4985352l2.2880859.6601562c.2421875.0664062.3300781.1982422.3300781.3300781,0,.1982422-.1542969.3300781-.6601562.6821289v1.8261719h5.5673828l.6816406-.6376953c.1318359-.1103516.2636719-.2202148.4179688-.2202148s.3085938.1538086.4179688.2641602l1.2763672,1.2319336c.2197266.2202148.2636719.4179688.2636719.550293,0,.2197266-.109375.3959961-1.5615234.3959961Zm1.2763672,13.7080078c-.9462891.6821289-3.6308594.7041016-4.8847656.7041016-4.9951172,0-6.0068359-.0439453-6.0957031-2.15625-.0214844-.3520508-.0214844-3.3886719-.0214844-3.9384766l-4.5322266.8359375c-1.1005859.1982422-1.8925781.4179688-2.5087891.6601562l-.59375-.7919922c1.1220703-.1103516,2.2441406-.2421875,3.3662109-.4404297l4.2685547-.7919922c0-.5498047.0214844-3.2783203.0439453-3.8945312-1.9580078.5058594-4.5546875,1.2099609-7.0849609,1.2324219v-.1542969c.3300781-.065918,9.9892578-2.706543,11.6171875-4.9506836l1.4746094,1.4521484c.1318359.1098633.1542969.2861328.1542969.3740234,0,.1982422-.2207031.2861328-.3300781.2861328-.1103516,0-.6601562-.0219727-.7919922-.0219727-.5947266.2641602-1.4306641.6162109-3.4990234,1.2983398,0,.59375-.0439453,3.4541016-.0439453,4.0922852l6.6455078-1.2099609.8134766-1.3203125c.1103516-.1757812.1982422-.3300781.3300781-.3300781.1103516,0,.2861328.0878906.3964844.1542969l1.4960938.8579102c.1318359.065918.2861328.2202148.2861328.3520508,0,.1757812-.1318359.2202148-.2861328.2421875l-9.703125,1.7822266c-.0224609,1.671875,0,2.8823242.0439453,4.0043945.0214844.3520508.109375.5722656.4394531.7041016.3964844.1542969,1.4082031.1762695,4.0488281.1762695,3.3447266,0,3.71875-.0439453,4.4003906-4.1147461h.1318359c.1103516.5942383.2646484,1.4960938.4189453,2.2441406.1533203.7480469.1757812.8364258.4394531,1.078125.3085938.2861328.3525391.3081055.3525391.5283203,0,.4619141-.4619141.8359375-.7919922,1.0561523Z"/>
      </g>
      <path class="cls-2" d="m370.3445992,64.736222c-4.5507812,3.7802734-11.8320312,5.4599609-15.6123047,5.4599609-.7001953,0-1.3994141,0-1.6103516-.0693359-.6992188-.0703125-.9794922-.2109375-.9794922-.5605469,0-.2802734.7695312-1.2597656,1.4003906-1.4003906,8.6806641-.7695312,17.2910156-5.3203125,17.2910156-13.8613281,0-4.4101562-2.6601562-8.1904297-7.0703125-10.1513672-3.4306641-1.4697266-6.8603516-2.6601562-11.2714844-3.4296875-.2792969-.0703125-.9101562-1.2607422-.9101562-1.6103516,0-1.9599609,2.1708984-8.9609375,3.5009766-12.1113281.3496094-.7705078,1.1894531-2.3105469,1.5400391-2.3798828,1.6796875-.7001953,12.1113281-2.5205078,16.8017578-2.5205078.1396484,0,.5595703.5595703.5595703.6298828,0,2.8007812-2.7998047,5.4609375-3.5703125,5.5302734-4.1298828.2802734-11.0605469.7001953-13.3007812.9101562-.2802734,0-.7705078.3505859-.8408203.6308594-.6298828,1.8193359-1.3994141,4.1298828-1.4697266,4.4101562-.0703125.4902344.1396484.9101562.4902344.9794922,4.4804688.9804688,11.2705078,3.5712891,13.9316406,5.1806641,4.8300781,2.8710938,7.3505859,7.4208984,7.3505859,12.1113281,0,5.4609375-2.9404297,9.5214844-6.2304688,12.2519531Z"/>
      <g>
        <path class="cls-3" d="m406.9451851,40.1727454c.2285156.0761719.4560547.6464844.4560547.7216797.0761719.7226562.3798828,2.9257812.3798828,3.078125,0,.6455078,0,1.0253906-.265625,1.0253906-.3037109,0-.7597656-.265625-.9121094-.7978516-.4560547-1.3671875-1.4814453-2.5068359-1.8613281-2.7353516-.6845703-.5322266-1.5957031-.8740234-2.6982422-.8740234-2.5449219,0-4.3691406,1.9003906-4.3691406,4.4453125,0,2.6982422,1.9375,3.8759766,5.28125,6.1171875,2.9257812,1.9755859,5.2431641,3.9511719,5.2431641,7.3710938,0,1.8994141-1.0634766,4.0273438-3.1152344,5.3574219-1.2158203.7978516-3.4580078,1.3671875-5.1669922,1.3671875-1.2167969,0-3.7998047-.4179688-4.9775391-.9873047-.3798828-.2285156-.8740234-1.0644531-.8740234-1.2158203-.1904297-1.2919922-.5703125-2.9638672-.5703125-3.5712891,0-.1523438.3798828-.7226562.5322266-.7226562.3037109,0,.8740234.9882812,1.40625,2.1660156.9873047,2.0898438,3.4951172,3.0400391,4.9384766,3.0400391,2.6220703,0,4.5976562-1.8623047,4.5976562-4.5976562,0-1.5957031-.7597656-3.3056641-4.7490234-5.8515625-3.2294922-2.0888672-5.5097656-4.2929688-5.5097656-7.5224609,0-1.7861328.7978516-3.4951172,2.0898438-4.6357422,1.1777344-1.0634766,2.9638672-1.8613281,5.6230469-1.8613281,1.8623047,0,3.8378906.5703125,4.5214844.6835938Z"/>
        <path class="cls-3" d="m433.5447945,40.0965735c1.3671875-.0751953,2.0517578-.3037109,2.5830078-.6835938.2666016-.1513672.3798828-.2275391.5322266-.2275391.1894531,0,.3417969.3417969.1513672.8740234-.3798828,1.1777344-.6074219,2.3935547-.8349609,4.3691406-.0380859.3417969-.3427734.7216797-.6464844.7216797-.265625,0-.4179688-.265625-.5322266-1.2158203-.2275391-1.9755859-.7216797-2.1660156-3.0771484-2.2792969-.6455078-.0380859-4.8632812-.0380859-5.3193359.0751953-.1894531.0380859-.3417969.4179688-.3417969.4941406v9.3085938c0,4.4072266,0,8.0166016.1523438,9.4228516.1894531,1.7099609.3798828,2.1660156,2.7353516,2.6972656.4941406.1142578,1.0253906.4179688,1.0253906.6845703,0,.4179688-.6835938.4560547-1.0634766.4560547-.3037109,0-2.6591797-.1904297-4.3310547-.1904297-1.9003906,0-3.8378906.265625-4.3320312.265625-.7597656,0-1.1396484-.2275391-1.1396484-.4560547,0-.265625.3798828-.5693359.7216797-.6455078,2.6601562-.6074219,2.7363281-1.2539062,2.8496094-4.1035156.0761719-2.2412109.2666016-9.9921875.2666016-12.9179688v-4.5214844c0-.3037109-.1904297-.4941406-.3046875-.4941406-.7597656-.1132812-4.1025391-.1894531-4.7109375-.1894531-1.4433594,0-2.2412109.2275391-2.8115234.8740234-.1523438.1132812-.6074219.7216797-1.2539062,1.9755859-.3417969.7978516-.5693359.7597656-.7216797.7597656-.2285156,0-.3798828-.4941406-.3798828-.8740234,0-.7216797.7216797-2.8115234.7216797-5.0527344,0-.2285156.3417969-.6083984.5703125-.6083984.1894531,0,.1894531.265625.6074219.6083984.1142578.1132812.7216797.6835938,1.2919922.7216797.9882812.1142578,4.0273438.2275391,8.890625.2275391,1.9755859,0,7.1425781-.0380859,8.7011719-.0761719Z"/>
        <path class="cls-3" d="m453.1903023,40.1727454c1.2539062,0,2.9257812-.0380859,3.4960938-.1132812.1132812-.0380859.3037109.2275391.3417969.4179688,0,1.7470703.0761719,2.8486328.0761719,3.609375,0,.53125-.2285156.9873047-.5703125.9873047s-.5322266-.53125-.6074219-.9121094c-.4941406-2.0136719-1.3300781-2.3935547-2.5458984-2.5830078-.9882812-.1523438-3.7236328-.2285156-5.3955078-.1523438-.0761719,0-.4941406.1904297-.5693359,1.0644531-.0761719.9492188-.1904297,8.0927734-.1142578,8.6621094.0380859.1523438.0761719.3798828.265625.3798828h2.4697266c3.5712891,0,3.7236328-.1513672,4.4072266-1.8994141.2285156-.5703125.4560547-.7978516.6845703-.7978516.265625,0,.3417969.5322266.3037109.8359375-.0761719,1.0634766-.1142578,1.8232422-.1142578,2.7353516,0,1.0263672.0761719,1.5576172.1142578,2.3173828.0380859.6845703-.1523438,1.1025391-.4179688,1.1025391-.2666016,0-.5322266-.4179688-.6464844-.8359375-.53125-1.7480469-.6835938-1.8623047-3.0009766-1.9755859-1.2158203-.0761719-2.7353516-.0761719-3.7617188-.0761719-.1523438,0-.3417969.265625-.3417969.3417969-.1523438.7978516-.1142578,4.3310547-.1142578,5.9648438,0,1.1015625.1523438,2.5458984.3798828,3.1533203.1523438.4560547.4560547.7607422.7216797.8359375.6464844.1142578,1.9384766.2666016,3.4580078.2666016.4560547,0,2.7734375-.0380859,3.609375-.2666016,1.2158203-.3037109,2.2421875-1.0253906,3.1533203-2.8115234.4179688-.8359375.6464844-1.0634766.8740234-1.0634766.265625,0,.3798828.6074219.3037109,1.0253906-.0380859.3046875-1.1015625,3.7236328-1.3671875,4.0654297-.1142578.1523438-.4560547.4560547-.6464844.4560547-.4179688,0-6.1542969-.3037109-12.3476562-.3037109-2.0136719,0-2.8496094.1904297-4.2939453.1904297-.7216797,0-1.1396484-.0761719-1.1396484-.4941406,0-.2666016.4560547-.4560547,1.0644531-.6083984,1.8994141-.4560547,2.6210938-.7216797,2.7734375-2.7734375.1132812-1.5957031.3037109-6.0791016.3037109-10.7900391,0-4.5214844.0380859-5.3193359-.0380859-6.4208984-.0761719-1.671875-.4560547-2.1279297-2.1279297-2.5078125-.7978516-.1904297-1.1015625-.3417969-1.1015625-.6464844,0-.3417969.5322266-.53125,1.0634766-.53125,1.7861328,0,3.2675781.1513672,5.8134766.1513672h5.5849609Z"/>
        <path class="cls-3" d="m472.0770211,40.970597c-.4179688,0-.7978516.1523438-1.1015625.3417969-.1523438.1142578-.3417969.5703125-.3798828,1.4824219-.0380859.7978516-.0380859,5.5087891-.0761719,9.8779297,0,3.4580078.0761719,6.6113281.0761719,7.5615234.0380859,2.4697266.3417969,2.7734375,2.2792969,3.34375.7216797.1894531,1.0263672.3798828,1.0263672.7216797s-.6845703.4560547-1.2539062.4560547c-.9501953,0-2.3183594-.1523438-3.9892578-.1523438-1.1025391,0-2.6601562.1523438-3.8378906.1523438-.6455078,0-1.0634766-.1904297-1.0634766-.5322266,0-.265625.3798828-.4941406.7597656-.6083984,2.1279297-.4550781,2.5458984-1.2158203,2.6591797-2.7734375.1142578-1.8613281.1904297-4.9765625.1904297-6.8769531,0-1.2539062-.0761719-9.3085938-.1142578-10.5244141-.0380859-1.3671875,0-1.8994141-2.1279297-2.203125-.7597656-.1142578-1.1777344-.3427734-1.1777344-.5703125,0-.3037109.3798828-.4941406.8740234-.5322266.265625-.0380859.9121094,0,1.2539062,0,1.5195312,0,4.4453125-.3037109,6.3447266-.3037109,3.4580078,0,5.6992188.9121094,7.1054688,2.2421875,1.8232422,1.7470703,2.203125,3.9130859,2.203125,5.1669922,0,3.3808594-1.5576172,4.9394531-2.6591797,5.8886719-.9882812.8359375-2.7353516,1.671875-4.3691406,1.671875-.4179688,0-1.40625-.0380859-2.0136719-.265625-.4560547-.1904297-.6464844-.3798828-.6464844-.6083984,0-.1513672.1523438-.3417969.4560547-.3417969h.9501953c2.0136719,0,4.8251953-1.7851562,4.8251953-6.1552734,0-3.4570312-2.6220703-6.4589844-6.1933594-6.4589844Z"/>
      </g>
    </g>
  </g>
</svg>