<?xml version="1.0" encoding="UTF-8"?>
<svg id="_レイヤー_2" data-name="レイヤー 2" xmlns="http://www.w3.org/2000/svg" viewBox="0 0 325 110">
  <defs>
    <style>
      .cls-1 {
        fill: #1e2973;
      }

      .cls-1, .cls-2, .cls-3, .cls-4 {
        stroke-width: 0px;
      }

      .cls-2 {
        fill: #d61518;
      }

      .cls-4 {
        fill: #fff;
        opacity: 0;
      }
    </style>
  </defs>
  <g id="_フレーム" data-name="フレーム">
    <g>
      <g>
        <g>
          <path class="cls-3" d="m96.4516602,103.3878385c-1.2402344-.8198242-2.640625-2.0800781-3.7207031-3.2006836-1.8007812-1.9003906-3.140625-4.480957-3.6210938-8.421875h-.159668c-.6401367,5.4213867-2.3808594,7.7817383-3.940918,9.3422852-1.9003906,1.9204102-3.7807617,2.5605469-4.440918,2.7802734l-.1000977-.1396484c2.6606445-1.5605469,4.7807617-3.940918,6.0009766-6.7817383.7202148-1.6601562,1.1206055-3.4204102,1.340332-5.2011719h-4.8208008c-.7202148,0-1.8203125.0800781-2.5805664.2202148l-.4799805-.8603516c1.5.1201172,2.9604492.1601562,3.340332.1601562h4.5810547c.0400391-.3198242.1201172-1.1401367.1201172-2.2001953,0-1.1806641-.1201172-2.0805664-.2202148-2.7207031-.0795898-.5400391-.159668-.7001953-.2797852-.9404297l2.1005859.5400391c.2397461.0600586.3798828.1201172.3798828.3203125,0,.2602539-.2802734.4199219-.7402344.7202148,0,.6401367-.0200195,1.9003906-.199707,4.2807617h6.28125l.6601562-.8999023c.1196289-.1601562.199707-.2402344.2998047-.2402344s.1601562.0400391.3803711.2001953l1.2602539.8999023c.0996094.0600586.199707.1601562.199707.300293,0,.1796875-.159668.2197266-.2998047.2197266h-8.3618164c.7202148,3.5410156,2.5805664,6.9619141,5.78125,8.8623047,1.5400391.8999023,2.8603516,1.2402344,3.4003906,1.3798828v.1601562c-1.0400391.1201172-1.7202148.7802734-2.1601562,1.2202148Z"/>
          <path class="cls-3" d="m118.8120117,96.8463346h-5.2612305c0,.8803711.0400391,4.7011719.0600586,5.4814453,0,.1201172.0200195.7001953.0200195.800293,0,.5400391-.7202148.7402344-.9204102.7402344-.5200195,0-.5200195-.300293-.5200195-.5205078,0-.1396484.0400391-.7797852.0400391-.9199219.0200195-.8803711.1000977-4.78125.1401367-5.581543h-4.7011719c-.4199219,2.3208008-2.140625,5.3413086-6.1611328,6.5415039l-.0600586-.1601562c3.8007812-1.8603516,4.8007812-4.9008789,5.0610352-6.3813477h-2.4204102c-.7001953,0-1.800293.0800781-2.5605469.2402344l-.4799805-.8603516c1.5.1201172,2.9604492.1401367,3.3203125.1401367h2.2207031c.2001953-1.7602539.1801758-2.9804688.1601562-5.3007812h-1.6005859c-.7202148,0-1.8203125.0996094-2.5805664.2397461l-.4799805-.8603516c1.5004883.1201172,2.9604492.1401367,3.3408203.1401367h1.3203125c0-.4799805-.0200195-2.6005859-.0400391-3.0405273-.0200195-.840332-.0800781-1.1601562-.1801758-1.5805664l1.800293.5004883c.0800781.0400391.1801758.0800781.1801758.2197266,0,.1401367-.3803711.4404297-.5800781.6000977,0,.3603516-.0200195.5004883-.0200195,1.8408203v1.4599609h4.480957c0-.5200195.0200195-2.8203125,0-3.3007812,0-.1396484-.0400391-.6201172-.1801758-1.4199219l1.7202148.4199219c.0800781.0200195.2802734.0600586.2802734.2602539,0,.1796875-.300293.3999023-.6201172.6201172-.0400391.6401367-.0400391.6601562-.0400391,1.5600586v1.8603516h1.9804688l.6801758-.8598633c.1401367-.1801758.2001953-.2602539.3198242-.2602539.1000977,0,.2001953.0800781.3603516.2202148l.9399414.8598633c.1201172.1201172.2001953.1801758.2001953.3203125,0,.1801758-.1801758.2001953-.300293.2001953h-4.1806641c-.0200195.6000977-.0400391,3.1806641-.0400391,3.7207031,0,.2397461.0200195,1.3603516.0200195,1.5800781h2.9003906l.8203125-.8798828c.2001953-.2202148.2202148-.2402344.300293-.2402344.1201172,0,.199707.0600586.3798828.2202148l.9804688.8598633c.1196289.1201172.199707.1801758.199707.3203125,0,.1796875-.159668.199707-.2998047.199707Zm-6.4213867-5.7807617h-4.480957c0,2.0400391,0,3.8408203-.1601562,5.3007812h4.6210938c.0400391-1.3203125.0400391-1.3803711.0400391-1.7001953,0-.5-.0200195-3.0205078-.0200195-3.6005859Z"/>
          <path class="cls-3" d="m138.0117187,90.6051237c-.2001953.1401367-.2402344.1801758-.4604492.340332,0,.6801758,0,1.3603516.0400391,2.6206055.0200195.2998047.1000977,3.2207031.1000977,3.2602539,0,.6601562-.840332.7602539-.8798828.7602539-.4003906,0-.3803711-.3398438-.3603516-1.1801758h-5.4609375c0,1.4204102.0400391,4.5009766.1000977,5.7612305,0,.0800781.0195312.5.0195312.5800781,0,.6801758-.699707.8203125-.8999023.8203125-.5,0-.5-.3798828-.5-.6201172,0-.1601562.1796875-4.9208984.1796875-5.4614258v-1.0800781h-5.4008789c.0200195,1.1201172.0200195,1.2402344-.0200195,1.3603516-.1201172.2602539-.4599609.4799805-.7802734.4799805-.3398438,0-.4799805-.1796875-.4599609-.4599609,0,0,.0200195-.5400391.0400391-.5800781.0400391-.6801758.1000977-3.5805664.1000977-5.2412109,0-1.2202148-.0400391-2.1005859-.2202148-2.7607422l1.6401367.840332h5.1010742c-.0200195-.7802734-.0600586-2.6206055-.159668-3.2607422-.0600586-.4199219-.1401367-.5800781-.2402344-.800293l1.8603516.5205078c.1601562.0400391.300293.0795898.300293.2397461,0,.2202148-.3203125.4404297-.6201172.6401367-.0400391.4604492-.1000977,1.1401367-.1000977,2.6606445h5.1811523l.5600586-.5800781c.1000977-.1201172.2397461-.1401367.2998047-.1401367s.1801758.0200195.2602539.0800781l.8203125.6201172c.199707.1601562.2197266.1801758.2197266.2602539,0,.1000977-.1000977.199707-.2597656.3198242Zm-8.1220703-.0800781h-5.4008789v5.4013672h5.4008789c.0200195-4.0009766.0200195-4.4609375,0-5.4013672Zm6.5615234,0h-5.5209961c0,.840332.0200195,2.5004883.0400391,5.4013672h5.480957v-5.4013672Z"/>
          <path class="cls-3" d="m158.8515625,103.6480924c-4.0810547-1.3803711-6.8413086-4.3408203-7.6416016-7.9018555h-.1801758c-.2597656,1.7207031-.7202148,3.8608398-3.6806641,6.0415039-1.5800781,1.1601562-3.4609375,1.840332-5.4013672,2.0405273v-.1401367c3.6611328-1.2001953,5.5615234-3.0605469,6.4614258-4.2412109.9404297-1.2001953,1.2802734-2.3803711,1.5605469-3.7006836h-4.980957c-.7001953,0-1.8203125.0800781-2.5805664.2202148l-.4604492-.8603516c.7802734.0600586,1.8208008.1000977,2.7807617.1401367v-2.7607422c0-1.2602539-.0400391-2.5205078-.1401367-3.7807617l1.3603516.6401367h4.3808594c-.0200195-1.2802734-.0800781-2.640625-.2597656-3.9008789l1.6601562.5004883c.1601562.0395508.2802734.0996094.2802734.2797852,0,.2402344-.300293.4199219-.6000977.6000977.0200195,1.0600586.0200195,1.8803711.0200195,2.5205078h3.6606445l.5-.5400391c.2402344-.2402344.2602539-.2602539.340332-.2602539.0600586,0,.0800781,0,.2998047.1601562l.9404297.6601562c.1201172.0600586.1796875.1201172.1796875.2402344,0,.1801758-.1196289.2797852-.8398438.7602539,0,.2998047-.0200195.5200195-.0200195,2.6201172,0,.3603516-.0200195,1.9404297-.0200195,2.2807617h1.2001953l.6801758-.9404297c.1201172-.159668.1801758-.2597656.2998047-.2597656.1201172,0,.2202148.1000977.3803711.2397461l1.0200195.9204102c.1201172.1000977.2001953.1801758.2001953.300293,0,.1796875-.1601562.2197266-.300293.2197266h-8.4614258c1.3198242,3.6606445,4.7207031,5.9414062,8.9819336,6.4414062v.0800781c-.6201172.2802734-1.1606445.5200195-1.6206055,1.3803711Zm-12.9829102-13.8232422v5.4414062h4.1811523c.2998047-2.1206055.2998047-3.6606445.2998047-5.4414062h-4.480957Zm9.5419922,0h-4.0004883c0,1.7607422-.0400391,3.5209961-.3203125,5.4414062h4.3208008v-5.4414062Z"/>
          <path class="cls-3" d="m164.7495117,102.2677213v-.6401367h.9599609c1.140625,0,1.9609375-.4199219,1.9609375-1.9604492v-9.0019531c0-1.2602539-.4003906-1.8803711-1.9804688-1.8803711h-.7802734v-.5400391h.4003906c1.2792969,0,2.7402344-.5400391,3.0800781-.7602539.1201172-.0800781.2802734-.1801758.4003906-.1801758s.1396484.1000977.1396484.2001953v12.1625977c0,1.5205078.6806641,1.9604492,1.9609375,1.9604492h.9599609v.6401367h-7.1015625Z"/>
          <path class="cls-3" d="m194.2719727,87.9444791h-7.9619141c0,.2602539.0605469,5.9013672.0605469,6.0615234v5.1210938c0,2.9604492,0,3.0605469-.6201172,3.6005859-.2607422.2202148-.7802734.5800781-1.8408203.6801758-.0595703-.6401367-.0996094-.9599609-2.5009766-2.0605469l.0605469-.1396484c.2802734.0400391,2.1005859.2197266,2.7207031.2197266,1,0,1.0195312-.2397461,1.0195312-1.6601562v-11.8227539h-5.5605469c-.6201172,0-1.7402344.0800781-2.5605469.2402344l-.4804688-.8603516c1.1005859.0800781,2.2207031.1401367,3.3212891.1401367h11.5419922l.9199219-1.0800781c.1005859-.1201172.2402344-.2402344.3203125-.2402344s.2597656.1201172.3603516.2001953l1.2998047,1.0800781c.1005859.1000977.2001953.2001953.2001953.3203125,0,.1796875-.1796875.199707-.2998047.199707Z"/>
          <path class="cls-3" d="m209.4516602,88.3048307c-.0205078.3598633-.0400391.9199219-.0400391,2.2202148,0,3.1206055.0996094,6.2416992.2001953,9.3623047,0,.3198242.0595703,1.8803711.0595703,2.0205078,0,.699707-.6601562.8999023-.9804688.8999023-.4199219,0-.3798828-.3398438-.359375-.7402344h-7.8623047c.0400391.4604492.0400391.5205078-.0400391.6401367-.1796875.300293-.5595703.4604492-.8203125.4604492-.4199219,0-.4199219-.300293-.4199219-.4404297,0-.3598633.0800781-1.9604492.0800781-2.2802734.0800781-2.5605469.1005859-5.1010742.1005859-7.6616211,0-2.140625,0-4.6411133-.3408203-6.4213867l1.8808594.800293h7.0009766l.5009766-.5004883c.1191406-.1196289.2197266-.199707.3798828-.199707.1201172,0,.2597656.1000977.3193359.1396484l.8603516.6401367c.2402344.1801758.2607422.2802734.2607422.3603516,0,.1401367,0,.2202148-.7802734.7001953Zm-1.1201172-.6601562h-7.8623047v4.2807617h7.8623047v-4.2807617Zm0,4.7607422h-7.8623047v4.3012695h7.8623047v-4.3012695Zm0,4.78125h-7.8623047v4.4008789h7.8623047v-4.4008789Z"/>
          <path class="cls-3" d="m219.0307617,102.6476041c-3.0810547,0-4.6416016-1.5800781-4.6416016-2.9604492,0-.6401367.3603516-1.1401367.9804688-1.1401367.6796875,0,.9804688.5800781.9804688,1.0200195,0,.1000977-.0400391.340332-.0800781.4604492-.0400391.1396484-.0800781.3598633-.0800781.4399414,0,1,1.2197266,1.5200195,2.7802734,1.5200195,2.4208984,0,3.8613281-1.6000977,3.8613281-3.6606445,0-1.9204102-1.0810547-3.5205078-3.9013672-3.5205078-.1601562,0-.8798828.0600586-1.0400391.0600586-.2597656,0-.5205078-.1000977-.5205078-.4003906,0-.3999023.4404297-.3798828.9804688-.3398438.7197266.0600586,1.4599609.1000977,2.4804688-.4604492.7001953-.3999023,1.6201172-1.2402344,1.6201172-2.7602539,0-1.8603516-1.3603516-2.9609375-3.2001953-2.9609375-.3398438,0-1.2607422.0400391-1.8808594.6000977-.4794922.4604492-.5.9404297-.5195312,1.2407227-.0205078.4399414-.0605469,1.4399414-.9609375,1.4399414-.5996094,0-.8398438-.5400391-.8398438-1,0-1.5004883,1.8408203-2.9208984,4.3408203-2.9208984,2.8212891,0,4.6416016,1.4003906,4.6416016,3.440918,0,.7202148-.2402344,2.9604492-4.1015625,3.6806641.7001953.0600586,1.9003906.1601562,3.0410156,1.0405273.6601562.5200195,1.5,1.5,1.5,2.9404297,0,2.4003906-2.1005859,4.2407227-5.4404297,4.2407227Z"/>
          <path class="cls-3" d="m231.4086914,99.9474088c-2.2197266,2.6005859-3.2607422,3.3203125-4.1201172,3.8608398l-.0605469-.1000977c1.1201172-1.2402344,2.2402344-2.7607422,2.9003906-4.3212891.1601562-.3999023.1806641-.6201172.1806641-1.0800781l1.7197266,1.0405273c.0800781.0395508.1601562.0996094.1601562.2197266,0,.2802734-.2402344.3203125-.7802734.3803711Zm6.2617188-10.7426758h-2.6005859c0,1.140625.0800781,6.7016602.0595703,7.9619141h.8808594l.3798828-.4399414c.2001953-.2202148.2402344-.2602539.3398438-.2602539.1005859,0,.1806641.0600586.3603516.2202148l.5.4399414c.0996094.0800781.2001953.1601562.2001953.300293,0,.2197266-.2197266.2197266-.2998047.2197266h-6.9619141c-.4003906,0-1.6201172.0400391-2.5800781.2202148l-.4804688-.8603516c.8798828.0800781,1.0400391.0800781,2.5.1401367.0205078-4.4008789.0205078-4.8808594-.0195312-7.9018555-.9804688.0800781-1.2207031.1201172-1.5400391.1801758l-.4599609-.8603516c.8193359.0800781,1.8603516.1201172,1.9804688.1201172-.0205078-.4599609-.0205078-.5400391-.0205078-1.340332,0-.8398438-.1796875-1.5200195-.3203125-1.8203125l1.8603516.4204102c.2001953.0395508.2207031.199707.2207031.2998047,0,.1801758-.1806641.2802734-.6005859.5-.0400391.9003906-.0400391,1.0405273-.0400391,1.9804688h3.0410156c0-.5400391-.0400391-2.0004883-.0800781-2.4404297-.0205078-.1000977-.2001953-.7001953-.2402344-.8203125l1.7607422.4204102c.0996094.0200195.2392578.0795898.2392578.2397461,0,.2602539-.2197266.4003906-.6201172.6401367-.0195312.5800781-.0400391.9003906-.0595703,1.9604492h1l.4404297-.5c.1601562-.2001953.2197266-.2402344.3203125-.2402344.0996094,0,.1201172.0200195.359375.2202148l.5800781.4799805c.0800781.0600586.2001953.1601562.2001953.300293,0,.2197266-.2197266.2197266-.2998047.2197266Zm-6.6816406,5.4414062v.9199219c0,.800293-.0195312.9003906,0,1.6005859h3.0810547c.0195312-.3598633.0195312-2.1206055.0195312-2.5205078h-3.1005859Zm3.1005859-2.9008789h-3.0800781c-.0205078,1.1206055-.0205078,1.2602539-.0205078,2.4208984h3.1005859v-2.4208984Zm0-2.5405273h-3.0605469c0,.4204102-.0195312.5805664-.0195312,2.0605469h3.0800781v-2.0605469Zm1.4404297,12.4829102c-.4199219,0-.5800781-.3203125-.8203125-.7602539-.8798828-1.6601562-1.2802734-1.9404297-1.6796875-2.2602539v-.0800781c1.5195312.5,3.1005859,1.0400391,3.1005859,2.2802734,0,.300293-.1806641.8203125-.6005859.8203125Zm8.7421875-14.1430664c0,7.581543.0595703,8.4418945.0595703,13.6030273v.0600586c0,1.0400391-.2001953,1.8603516-2.0800781,2.340332-.4404297-1.0400391-.8798828-1.2602539-2.140625-1.840332v-.1000977c.640625.0600586,1.5.1000977,1.8603516.1000977.8603516,0,1.2802734,0,1.2802734-.7402344v-5.4213867h-3.7207031c-.1396484,2.3808594-.3603516,5.7416992-4.4208984,8.2021484l-.0595703-.1201172c.6396484-.6601562,1.6201172-1.6606445,2.3603516-3.1806641.6796875-1.4204102,1.2402344-2.8608398,1.2402344-9.6020508,0-1.7602539,0-3.7807617-.3408203-5.2412109l1.7011719.800293h3.1201172l.3603516-.4404297c.1601562-.1796875.1601562-.2197266.2402344-.2197266.0595703,0,.0800781.0200195.2792969.1801758l.8408203.699707c.1396484.1201172.2197266.1801758.2197266.300293,0,.1801758-.0800781.2202148-.7998047.6201172Zm-1.0205078,3.7006836h-3.5410156c-.0195312.3203125-.1396484,3.2407227-.1601562,3.8208008h3.7011719v-3.8208008Zm0-4.3608398h-3.5410156v3.8808594h3.5410156v-3.8808594Z"/>
        </g>
        <g>
          <g>
            <path class="cls-1" d="m47.126216,38.7661254h3.1798716c1.028131,0,2.3466037.1718615,2.3466037,1.4013655v11.0589655s-3.5769758,1.3128917-10.0387075,1.3128917c-6.4582597,0-15.0921297-3.556144-15.0921297-13.40563,0-9.8434101,9.0071045-13.6751401,15.6597934-13.6751401,3.0032362,0,6.7472995.1770694,6.7472995,1.8622668v3.2879359c-2.5275791-2.0623378-3.5535401-2.4447477-7.3939501-2.4447477-3.8560337,0-10.7521931,2.5233005-10.7521931,10.7466123,0,8.1807804,9.246669,13.065813,16.9452827,9.9740422v-6.2773453c0-1.3166757-.1041585-3.8412168-1.6018706-3.8412168Z"/>
            <path class="cls-1" d="m95.4171251,51.8692618h8.1482311c-2.2446152-.8432497-3.1798716-3.5526721-3.9345866-5.5269092-.7586209-1.9603493-6.6587648-16.3073116-7.3015094-18.2767748-.6700862-1.9642553-1.5918888-1.9642553-2.3604915-1.9642553h-4.6654319c2.2402753.753847,1.0059973,2.3466037.6327628,3.4688499-.3675926,1.1171611-8.2367658,20.6273458-8.2367658,20.6273458-2.7241782-.749507-9.5830141-10.7838743-9.5830141-10.7838743,9.0934693-2.6165477,7.7059915-13.3123214-1.2069364-13.3123214h-10.2196828c2.0675458.4661092,1.8809285,2.6308695,1.8809285,4.3160669v17.712583c0,2.4312325-.752979,3.0964839-1.9694633,3.7392893h7.4920326c-2.057998-.9317844-1.50943-3.0917708-1.50943-4.1203358v-19.1100426h4.042651c2.1660624,0,3.7479693,2.6265296,3.7479693,4.4089415,0,2.8873598-2.258069,4.0192152-4.4927024,4.857691-2.258503.8419477-1.0337729,2.7189702,0,4.2136444,1.027697,1.504222,4.0231213,5.7308253,5.8194211,7.794526,1.7746001,2.0627718,3.3703948,1.9555754,4.2097386,1.9555754h6.7468655c-2.6117739-.8332678-1.2108423-2.8860578-.8428157-3.9198307.3832164-1.0389808,2.0636399-5.4440164,2.0636399-5.4440164h10.1233362s1.2242961,3.1798715,2.3466037,6.0060382c1.1361954,2.7983911.2690761,3.1759656-.9313504,3.3578089Zm-10.5052507-12.3631772l3.8404099-10.0291594,4.1311857,10.0291594h-7.9715956Z"/>
            <path class="cls-1" d="m177.5213487,51.8692618h8.1721007c-2.264145-.8432497-3.1937594-3.5526721-3.9384925-5.5269092-.7451671-1.9603493-6.6605008-16.3073116-7.3110573-18.2767748-.6627083-1.9642553-1.5840769-1.9642553-2.3526797-1.9642553h-4.6775837c2.262409.753847,1.028131,2.3466037.6466506,3.4688499-.3732346,1.1171611-8.2506536,20.6273458-8.2506536,20.6273458-.5225284,1.2247301-1.2911312,1.2429578-1.7746001,1.6717436h6.7512055c-2.6260957-.8332678-1.2208242-2.8860578-.8471556-3.9198307.3714986-1.0389808,2.0714518-5.4440164,2.0714518-5.4440164h10.1194303s1.234278,3.1798715,2.3544156,6.0060382c1.1184017,2.7983911.271246,3.1759656-.9630319,3.3578089Zm-10.484853-12.3631772l3.8404099-10.0291594,4.1212038,10.0291594h-7.9616138Z"/>
            <path class="cls-1" d="m148.6859416,52.3488248c.9352563-.8471556,1.782412-1.5086228,1.782412-4.4988392v-17.716862c0-1.4009315-.1080644-3.00801-1.782412-3.5656919h7.2029929c-.7447331.6648783-1.6352881,1.4981461-1.6352881,3.3842825v17.8982714c0,1.5980256-.3263632,3.9454972,1.7411826,4.4988392h-7.3088873Z"/>
            <path class="cls-1" d="m109.8465465,32.0939069s-.0924407,14.1503021-.0924407,15.7560787c0,1.5980256.1905232,3.9454972,2.2524271,4.4988392h-6.849288c.9552201-.8471556,1.6860654-1.5086228,1.6860654-4.4988392,0-2.9931933.2005051-16.3241764.2005051-17.716862,0-1.4009315-.2005051-3.00801-1.8865705-3.5656919h5.2669471l15.7387803,19.7749209v-16.1107124c0-1.0385468.1905232-2.9993301-1.9655573-3.7488372h7.0263574c-.8332678.6423106-2.0736217.9313504-2.0736217,3.6503206v23.2581539s-1.9555755.3589128-5.135447-3.4775912c-3.1976653-3.8365039-14.1681572-17.8197795-14.1681572-17.8197795Z"/>
            <path class="cls-2" d="m154.6446746,72.306023c-20.6142651-17.3776007-28.5051379-37.8281889-.3063995-65.7335469.8844791-.8840451,1.7216529-.3584788,1.027697.4326917-12.3579696,14.1325078-26.1450804,36.7332229-.2829639,64.4398118.4010101.4188039.2517163,1.3406064-.4383336.8610434Z"/>
          </g>
          <g>
            <path class="cls-3" d="m214.5621303,48.5147916c.4433594-.1303711,2.3974609-.6518555,2.6845703-.7822266.4433594-.234375.5214844-.46875.5214844-.9379883,0-1.2250977-2.5019531-3.7788086-5.9951172-3.7788086-.9121094,0-1.4326172.15625-1.8242188.2866211,1.5898438,1.7460938,2.0332031,3.1010742,2.0332031,4.2739258,0,2.5019531-2.5800781,3.5185547-3.6484375,3.5185547-.3125,0-.4169922-.078125-.5732422-.2866211-.3652344-.4169922-.4169922-.4692383-1.9550781-1.0688477-.9121094-.3388672-1.6416016-.9121094-2.1113281-1.2768555l.078125-.1303711c.5996094.2607422,2.1630859.9384766,4.0917969.9384766,2.6064453,0,2.6064453-1.6679688,2.6064453-1.9287109,0-.4433594-.2607422-1.6679688-1.4335938-3.0751953-.1816406-.1826172-.2080078-.2084961-.3642578-.3911133-2.0068359,1.0424805-6.9326172,4.6650391-7.6367188,5.6552734-.4951172.6777344-.78125,1.0688477-1.1982422,1.0688477-.6259766,0-1.6679688-.9121094-1.6679688-1.8505859,0-.15625.1035156-1.2246094.9902344-2.2412109.0517578.9121094.078125,1.6679688.5732422,1.6679688.15625,0,1.0419922-.5996094,1.2773438-.7558594.7294922-.4951172,4.3261719-2.8144531,7.1669922-4.1176758-.2607422-.3129883-1.4335938-1.6157227-1.6679688-1.8764648-.3652344-.3911133-.7304688-.8862305-.7304688-1.7460938,0-1.4858398,1.1210938-2.4238281,1.8242188-2.8149414.3652344-.1821289,1.1474609-.6254883,1.1474609-.9379883,0-.1567383-.0527344-.3388672-.6777344-.7558594-1.1992188-.7822266-1.9550781-2.1113281-1.9550781-2.8671875,0-.1298828,0-.15625.0527344-.3383789.9902344,1.5112305,2.6845703,2.293457,3.6220703,2.7363281,1.0947266.5209961,2.2939453,1.1469727,2.2939453,2.0068359,0,.2866211-.1826172.4692383-.6777344.4692383-.234375,0-1.3291016-.1303711-1.5634766-.1303711-.9384766,0-3.4404297.6254883-3.4404297,2.1889648,0,1.1992188,1.1201172,2.137207,2.4238281,3.0751953.3642578.2871094.46875.3652344.5996094.4956055.4169922-.1303711,1.3027344-.3911133,2.6318359-.3911133,4.2480469,0,7.8183594,2.8666992,7.8183594,5.7856445,0,.6254883-.3388672,1.3032227-.703125,1.3032227-.078125,0-1.6679688-.4951172-1.9804688-.5473633-.2353516-.0258789-2.2158203-.234375-2.6328125-.2866211v-.15625Z"/>
            <path class="cls-3" d="m242.3922084,46.1949674c-2.4238281,4.5869141-8.0009766,6.1767578-10.8154297,6.1767578-.5478516,0-3.3095703-.1040039-4.1699219-2.0585938-.2089844-.4956055-.5732422-1.3295898-.5732422-5.6035156,0-1.3813477.0253906-2.7626953.1298828-4.144043.1308594-2.0849609.1826172-4.0654297.1826172-4.7954102,0-2.9707031-.3388672-3.6743164-1.9287109-4.0654297.2871094-.1303711.8603516-.4169922,1.3291016-.4169922.6259766,0,1.5644531.7558594,1.7724609.9121094.3652344.2607422.6777344.5473633.6777344,1.0424805,0,.234375-.0263672.3125-.1826172.9902344-.6777344,2.8671875-.9121094,11.2851562-.9121094,13.2919922,0,2.8666992.8857422,3.6225586,3.1015625,3.6225586,4.2998047,0,9.2783203-3.1538086,11.2851562-5.0561523l.1035156.1040039Zm-5.7333984-9.277832c0,.6513672-.546875.6777344-.6513672.6777344-.3652344,0-.4697266-.1567383-.8339844-.7041016-.8603516-1.3027344-1.9550781-2.1630859-2.9970703-2.9970703.8857422.1826172,4.4824219.9643555,4.4824219,3.0234375Zm.5214844-4.300293c1.5117188.6513672,2.0068359,1.0166016,2.0068359,2.0068359,0,.2084961-.0527344.7558594-.5478516.7558594-.2080078,0-.2607422-.0522461-1.1728516-1.1206055-.9638672-1.1210938-1.5898438-1.5380859-2.6835938-2.2416992.8339844.0263672,1.6416016.2866211,2.3974609.5996094Z"/>
            <path class="cls-3" d="m257.0347865,52.4762174c1.3291016-1.3813477,3.5703125-3.909668,5.1865234-7.6103516-2.1894531-1.0161133-4.4824219-1.7719727-6.8808594-2.0327148-.3388672.6777344-2.0068359,3.8833008-3.5439453,5.5771484-.5732422.5996094-1.6679688,1.4858398-2.4755859,1.4858398-.4169922,0-.6523438-.1044922-1.0947266-.7299805-.7558594-1.0424805-.9121094-1.7202148-.9121094-2.2675781,0-1.9282227,2.1630859-4.612793,7.140625-5.0297852,1.8242188-3.8051758,3.1796875-8.1835938,3.1796875-8.2875977,0-.2084961-.1308594-.2084961-.2089844-.2084961-.46875,0-1.5634766.3647461-2.7363281,1.0947266-.4433594.2866211-.859375.5473633-1.1728516.5473633-.4951172,0-1.6152344-.6259766-1.6152344-2.0332031,0-.3125.078125-.46875.15625-.6777344.390625.9384766,1.3027344.9643555,1.4589844.9643555.3652344,0,2.9970703-.5991211,4.3261719-1.1723633.2089844-.0786133.3916016-.1567383.5732422-.1567383.3652344,0,1.4863281.8339844,1.4863281,1.3032227,0,.2607422-.1044922.3911133-.4433594.8081055-.3652344.46875-.9638672,1.6938477-1.3554688,2.5019531-.390625.8339844-2.0322266,4.5605469-2.3710938,5.3164062,2.9189453.2084961,6.0722656,1.3032227,6.984375,1.6938477.2607422-.7817383.6777344-2.2148438.6777344-3.2314453,0-.8339844-.234375-1.3554688-.9902344-2.137207.1816406-.0522461.2607422-.0522461.3388672-.0522461,1.0947266,0,2.2412109,1.4858398,2.2412109,2.059082,0,.2084961-.3916016,2.1108398-1.0683594,3.9355469,2.8144531,1.3813477,4.7949219,2.605957,4.7949219,3.7006836,0,.3911133-.2080078.8081055-.7294922.8081055-.2871094,0-.5214844-.1826172-1.4853516-1.0166016-1.4335938-1.2250977-2.3203125-1.7460938-3.1279297-2.1889648-1.9804688,4.1699219-4.3525391,6.3330078-6.2285156,7.140625l-.1044922-.1040039Zm-5.9941406-8.9394531c-1.3808594.6518555-2.7363281,1.6420898-2.7363281,3.1015625,0,.9379883.5732422,1.8764648,1.2509766,1.8764648,1.1982422,0,3.4404297-3.3623047,4.4306641-5.6035156-.5742188,0-1.5644531,0-2.9453125.6254883Z"/>
            <path class="cls-3" d="m275.9254115,51.6158659c-.3388672.6518555-.4169922.8081055-.6777344.8081055-.1826172,0-.2607422-.1826172-.3388672-.3911133l-.8603516-2.1367188c.4169922.0258789,1.1210938.1040039,1.4853516.1040039,1.0947266,0,2.5283203-.15625,3.6230469-.2866211v-3.5444336h-.8339844c-.9121094,0-2.3720703.1044922-3.3623047.3125l-.5996094-1.1464844c1.9550781.1826172,3.8320312.2084961,4.3271484.2084961h.46875v-3.6748047h-2.8408203c.0517578.9384766-.9384766,1.0424805-1.0429688,1.0424805-.4423828,0-.4423828-.3125-.4423828-.7817383,0-.15625,0-.2607422.0263672-.4951172.1035156-1.5898438.1035156-4.144043.1035156-5.8120117,0-3.6484375-.0253906-3.8569336-.2080078-4.7431641l2.0068359.9379883h6.2285156l.7041016-.6254883c.1816406-.1821289.234375-.1821289.3125-.1821289.15625,0,.234375.078125.3642578.1821289l.9121094.7558594c.1044922.078125.2353516.2084961.2353516.3388672,0,.2084961-.078125.2607422-.8339844.7036133-.0263672.9384766-.0263672,1.5117188-.0263672,2.6064453,0,1.5375977.15625,4.0131836.15625,5.5771484,0,1.0947266-1.0166016,1.0947266-1.0683594,1.0947266-.3652344,0-.3652344-.2084961-.3388672-.5996094h-3.0488281v3.6748047h2.4755859l.78125-.9121094c.2607422-.2866211.2871094-.3129883.4179688-.3129883.15625,0,.3642578.1826172.4951172.3129883l.859375.8598633c.234375.2348633.234375.3388672.234375.3911133,0,.234375-.2080078.2866211-.390625.2866211h-4.8730469v3.3881836c3.2050781-.4433594,4.5087891-.7036133,5.8378906-.9384766l.078125.1567383c-1.3554688.546875-8.3144531,2.3193359-10.3466797,2.840332Zm3.2314453-18.9731445h-2.8408203v3.8051758h2.8408203v-3.8051758Zm0,4.4306641h-2.8408203v4.1699219h2.8408203v-4.1699219Zm4.2480469-4.4306641h-3.0488281v3.8051758h3.0488281v-3.8051758Zm0,4.4306641h-3.0488281v4.1699219h3.0488281v-4.1699219Zm12.6923828,3.1533203c-.2607422.2089844-2.2939453,1.824707-3.3359375,2.6586914l-.1308594-.1044922c.6259766-.8862305,1.6425781-2.762207,1.7724609-3.4399414h-3.1269531c0,2.4238281,0,6.2026367.0253906,8.5219727,0,.3652344.078125,2.0849609.078125,2.4760742,0,1.3554688,0,2.527832-2.7626953,3.2055664-.078125-.3388672-.1298828-.6254883-.5986328-1.0161133-.4951172-.4433594-1.2509766-.8862305-2.4765625-1.3032227v-.1303711c1.1210938.1303711,2.3457031.234375,2.9716797.234375.9902344,0,1.4072266-.0517578,1.4072266-1.1464844v-10.8417969h-1.1728516c-.5214844,0-2.1113281.0517578-3.3623047.2866211l-.5996094-1.1206055c1.3554688.1040039,2.9716797.2084961,4.3271484.2084961h4.9257812l.78125-.7299805c.2871094-.2607422.3652344-.2607422.4169922-.2607422.1044922,0,.2089844.0522461.4433594.2607422l1.6152344,1.3554688c.1044922.1040039.1826172.234375.1826172.3647461,0,.5209961-.5996094.5209961-1.3808594.5209961Zm-2.1894531-7.1147461c-1.0683594.7817383-1.1992188.9121094-3.4140625,2.6845703.3652344.1821289,1.3291016.7294922,1.3291016,1.5898438,0,.5209961-.3388672.9643555-.8339844.9643555-.3652344,0-.4169922-.0786133-1.2246094-1.1210938-.9121094-1.1464844-1.3554688-1.5898438-2.5019531-2.1630859v-.15625c.46875.0258789,1.7978516.15625,2.9443359.7294922,1.2255859-1.6416016,1.5898438-2.449707,1.9550781-3.2836914h-2.3974609c-.5214844,0-2.1113281.078125-3.3623047.3129883l-.5996094-1.1206055c1.3291016.1040039,2.9716797.1821289,4.3261719.1821289h1.9814453l.8857422-.7036133c.1826172-.15625.2089844-.15625.2871094-.15625.1298828,0,.2080078.0522461.2861328.1040039l1.4599609,1.2773438c.1298828.1040039.2080078.234375.2080078.3647461,0,.4428711-.4433594.4692383-1.3291016.4951172Z"/>
          </g>
        </g>
      </g>
      <rect class="cls-4" width="325" height="110"/>
    </g>
  </g>
</svg>