<?xml version="1.0" encoding="utf-8"?>
<!-- Generator: Adobe Illustrator 28.0.0, SVG Export Plug-In . SVG Version: 6.00 Build 0)  -->
<svg version="1.1" id="_レイヤー_2" xmlns="http://www.w3.org/2000/svg" xmlns:xlink="http://www.w3.org/1999/xlink" x="0px"
	 y="0px" viewBox="0 0 757 110" style="enable-background:new 0 0 757 110;" xml:space="preserve">
<style type="text/css">
	.st0{fill:#1E2973;}
	.st1{fill:#D61518;}
	.st2{opacity:0.99;}
	.st3{fill:#74A64C;}
	.st4{fill:#BCD537;}
	.st5{fill:none;stroke:#B1B1B1;stroke-width:0.4892;stroke-miterlimit:10;}
</style>
<g>
	<g>
		<path d="M53.7,91.3c-0.9-0.6-2-1.6-2.8-2.4c-1.3-1.4-2.4-3.4-2.7-6.3h-0.1c-0.5,4.1-1.8,5.8-3,7c-1.4,1.4-2.8,1.9-3.3,2.1
			l-0.1-0.1c2-1.2,3.6-3,4.5-5.1c0.5-1.2,0.8-2.6,1-3.9h-3.6c-0.5,0-1.4,0.1-1.9,0.2l-0.4-0.6c1.1,0.1,2.2,0.1,2.5,0.1h3.4
			c0-0.2,0.1-0.9,0.1-1.6c0-0.9-0.1-1.6-0.2-2C47.1,78.2,47,78,47,77.9l1.6,0.4c0.2,0,0.3,0.1,0.3,0.2c0,0.2-0.2,0.3-0.6,0.5
			c0,0.5,0,1.4-0.2,3.2h4.7l0.5-0.7c0.1-0.1,0.2-0.2,0.2-0.2c0.1,0,0.1,0,0.3,0.1l0.9,0.7c0.1,0,0.1,0.1,0.1,0.2
			c0,0.1-0.1,0.2-0.2,0.2h-6.3c0.5,2.7,1.9,5.2,4.3,6.6c1.2,0.7,2.1,0.9,2.5,1v0.1C54.5,90.5,54,91,53.7,91.3z"/>
		<path d="M70.5,86.4h-3.9c0,0.7,0,3.5,0,4.1c0,0.1,0,0.5,0,0.6c0,0.4-0.5,0.6-0.7,0.6c-0.4,0-0.4-0.2-0.4-0.4c0-0.1,0-0.6,0-0.7
			c0-0.7,0.1-3.6,0.1-4.2h-3.5c-0.3,1.7-1.6,4-4.6,4.9l0-0.1c2.9-1.4,3.6-3.7,3.8-4.8h-1.8c-0.5,0-1.3,0.1-1.9,0.2L57.1,86
			c1.1,0.1,2.2,0.1,2.5,0.1h1.7c0.1-1.3,0.1-2.2,0.1-4h-1.2c-0.5,0-1.4,0.1-1.9,0.2l-0.4-0.6c1.1,0.1,2.2,0.1,2.5,0.1h1
			c0-0.4,0-1.9,0-2.3c0-0.6-0.1-0.9-0.1-1.2l1.3,0.4c0.1,0,0.1,0.1,0.1,0.2s-0.3,0.3-0.4,0.5c0,0.3,0,0.4,0,1.4v1.1h3.4
			c0-0.4,0-2.1,0-2.5c0-0.1,0-0.5-0.1-1.1l1.3,0.3c0.1,0,0.2,0,0.2,0.2c0,0.1-0.2,0.3-0.5,0.5c0,0.5,0,0.5,0,1.2v1.4H68l0.5-0.6
			c0.1-0.1,0.1-0.2,0.2-0.2c0.1,0,0.2,0.1,0.3,0.2l0.7,0.6c0.1,0.1,0.1,0.1,0.1,0.2c0,0.1-0.1,0.1-0.2,0.1h-3.1c0,0.5,0,2.4,0,2.8
			c0,0.2,0,1,0,1.2h2.2l0.6-0.7c0.2-0.2,0.2-0.2,0.2-0.2c0.1,0,0.1,0,0.3,0.2l0.7,0.6c0.1,0.1,0.2,0.1,0.2,0.2
			C70.7,86.4,70.6,86.4,70.5,86.4z M65.6,82.1h-3.4c0,1.5,0,2.9-0.1,4h3.5c0-1,0-1,0-1.3C65.7,84.4,65.6,82.5,65.6,82.1z"/>
		<path d="M84.9,81.7c-0.2,0.1-0.2,0.1-0.3,0.3c0,0.5,0,1,0,2c0,0.2,0.1,2.4,0.1,2.4c0,0.5-0.6,0.6-0.7,0.6c-0.3,0-0.3-0.3-0.3-0.9
			h-4.1c0,1.1,0,3.4,0.1,4.3c0,0.1,0,0.4,0,0.4c0,0.5-0.5,0.6-0.7,0.6c-0.4,0-0.4-0.3-0.4-0.5c0-0.1,0.1-3.7,0.1-4.1v-0.8h-4
			c0,0.8,0,0.9,0,1c-0.1,0.2-0.3,0.4-0.6,0.4c-0.3,0-0.4-0.1-0.3-0.3c0,0,0-0.4,0-0.4c0-0.5,0.1-2.7,0.1-3.9c0-0.9,0-1.6-0.2-2.1
			l1.2,0.6h3.8c0-0.6,0-2-0.1-2.4c0-0.3-0.1-0.4-0.2-0.6l1.4,0.4c0.1,0,0.2,0.1,0.2,0.2c0,0.2-0.2,0.3-0.5,0.5c0,0.3-0.1,0.9-0.1,2
			h3.9l0.4-0.4c0.1-0.1,0.2-0.1,0.2-0.1s0.1,0,0.2,0.1l0.6,0.5c0.1,0.1,0.2,0.1,0.2,0.2C85.1,81.6,85,81.7,84.9,81.7z M78.8,81.7h-4
			v4h4C78.8,82.7,78.8,82.4,78.8,81.7z M83.7,81.7h-4.1c0,0.6,0,1.9,0,4h4.1V81.7z"/>
		<path d="M100.5,91.5c-3.1-1-5.1-3.3-5.7-5.9h-0.1c-0.2,1.3-0.5,2.9-2.8,4.5c-1.2,0.9-2.6,1.4-4,1.5v-0.1c2.7-0.9,4.2-2.3,4.8-3.2
			c0.7-0.9,1-1.8,1.2-2.8h-3.7c-0.5,0-1.4,0.1-1.9,0.2l-0.3-0.6c0.6,0,1.4,0.1,2.1,0.1v-2.1c0-0.9,0-1.9-0.1-2.8l1,0.5h3.3
			c0-1-0.1-2-0.2-2.9l1.2,0.4c0.1,0,0.2,0.1,0.2,0.2c0,0.2-0.2,0.3-0.4,0.5c0,0.8,0,1.4,0,1.9h2.7l0.4-0.4c0.2-0.2,0.2-0.2,0.3-0.2
			c0,0,0.1,0,0.2,0.1l0.7,0.5c0.1,0,0.1,0.1,0.1,0.2c0,0.1-0.1,0.2-0.6,0.6c0,0.2,0,0.4,0,2c0,0.3,0,1.5,0,1.7h0.9l0.5-0.7
			c0.1-0.1,0.1-0.2,0.2-0.2s0.2,0.1,0.3,0.2l0.8,0.7c0.1,0.1,0.1,0.1,0.1,0.2c0,0.1-0.1,0.2-0.2,0.2H95c1,2.7,3.5,4.5,6.7,4.8v0.1
			C101.2,90.7,100.8,90.9,100.5,91.5z M90.8,81.2v4.1h3.1c0.2-1.6,0.2-2.7,0.2-4.1H90.8z M97.9,81.2h-3c0,1.3,0,2.6-0.2,4.1h3.2
			V81.2z"/>
		<path d="M104.9,90.5V90h0.7c0.9,0,1.5-0.3,1.5-1.5v-6.8c0-0.9-0.3-1.4-1.5-1.4H105V80h0.3c1,0,2.1-0.4,2.3-0.6
			c0.1-0.1,0.2-0.1,0.3-0.1s0.1,0.1,0.1,0.1v9.1c0,1.1,0.5,1.5,1.5,1.5h0.7v0.5H104.9z"/>
		<path d="M127.1,79.7h-6c0,0.2,0,4.4,0,4.5v3.8c0,2.2,0,2.3-0.5,2.7c-0.2,0.2-0.6,0.4-1.4,0.5c0-0.5-0.1-0.7-1.9-1.5l0-0.1
			c0.2,0,1.6,0.2,2,0.2c0.8,0,0.8-0.2,0.8-1.2v-8.9h-4.2c-0.5,0-1.3,0.1-1.9,0.2l-0.4-0.6c0.8,0.1,1.7,0.1,2.5,0.1h8.7l0.7-0.8
			c0.1-0.1,0.2-0.2,0.2-0.2s0.2,0.1,0.3,0.1l1,0.8c0.1,0.1,0.1,0.1,0.1,0.2C127.3,79.7,127.1,79.7,127.1,79.7z"/>
		<path d="M138.4,80c0,0.3,0,0.7,0,1.7c0,2.3,0.1,4.7,0.1,7c0,0.2,0,1.4,0,1.5c0,0.5-0.5,0.7-0.7,0.7c-0.3,0-0.3-0.3-0.3-0.6h-5.9
			c0,0.3,0,0.4,0,0.5c-0.1,0.2-0.4,0.3-0.6,0.3c-0.3,0-0.3-0.2-0.3-0.3c0-0.3,0.1-1.5,0.1-1.7c0.1-1.9,0.1-3.8,0.1-5.7
			c0-1.6,0-3.5-0.3-4.8l1.4,0.6h5.2l0.4-0.4c0.1-0.1,0.2-0.1,0.3-0.1c0.1,0,0.2,0.1,0.2,0.1l0.6,0.5c0.2,0.1,0.2,0.2,0.2,0.3
			C139,79.6,139,79.7,138.4,80z M137.6,79.5h-5.9v3.2h5.9V79.5z M137.6,83.1h-5.9v3.2h5.9V83.1z M137.6,86.7h-5.9V90h5.9V86.7z"/>
		<path d="M145.6,90.8c-2.3,0-3.5-1.2-3.5-2.2c0-0.5,0.3-0.9,0.7-0.9c0.5,0,0.7,0.4,0.7,0.8c0,0.1,0,0.3-0.1,0.3
			c0,0.1-0.1,0.3-0.1,0.3c0,0.8,0.9,1.1,2.1,1.1c1.8,0,2.9-1.2,2.9-2.7c0-1.4-0.8-2.6-2.9-2.6c-0.1,0-0.7,0-0.8,0
			c-0.2,0-0.4-0.1-0.4-0.3c0-0.3,0.3-0.3,0.7-0.3c0.5,0,1.1,0.1,1.9-0.3c0.5-0.3,1.2-0.9,1.2-2.1c0-1.4-1-2.2-2.4-2.2
			c-0.3,0-0.9,0-1.4,0.5c-0.4,0.3-0.4,0.7-0.4,0.9c0,0.3,0,1.1-0.7,1.1c-0.5,0-0.6-0.4-0.6-0.8c0-1.1,1.4-2.2,3.3-2.2
			c2.1,0,3.5,1,3.5,2.6c0,0.5-0.2,2.2-3.1,2.8c0.5,0,1.4,0.1,2.3,0.8c0.5,0.4,1.1,1.1,1.1,2.2C149.7,89.4,148.1,90.8,145.6,90.8z"/>
		<path d="M154.9,88.7c-1.7,1.9-2.4,2.5-3.1,2.9l0-0.1c0.8-0.9,1.7-2.1,2.2-3.2c0.1-0.3,0.1-0.5,0.1-0.8l1.3,0.8
			c0.1,0,0.1,0.1,0.1,0.2C155.5,88.7,155.3,88.7,154.9,88.7z M159.6,80.7h-2c0,0.9,0.1,5,0,6h0.7l0.3-0.3c0.1-0.2,0.2-0.2,0.3-0.2
			c0.1,0,0.1,0,0.3,0.2l0.4,0.3c0.1,0.1,0.2,0.1,0.2,0.2c0,0.2-0.2,0.2-0.2,0.2h-5.2c-0.3,0-1.2,0-1.9,0.2l-0.4-0.6
			c0.7,0.1,0.8,0.1,1.9,0.1c0-3.3,0-3.7,0-5.9c-0.7,0.1-0.9,0.1-1.2,0.1l-0.3-0.6c0.6,0.1,1.4,0.1,1.5,0.1c0-0.3,0-0.4,0-1
			c0-0.6-0.1-1.1-0.2-1.4l1.4,0.3c0.1,0,0.2,0.2,0.2,0.2c0,0.1-0.1,0.2-0.5,0.4c0,0.7,0,0.8,0,1.5h2.3c0-0.4,0-1.5-0.1-1.8
			c0-0.1-0.1-0.5-0.2-0.6l1.3,0.3c0.1,0,0.2,0.1,0.2,0.2c0,0.2-0.2,0.3-0.5,0.5c0,0.4,0,0.7,0,1.5h0.8l0.3-0.4
			c0.1-0.1,0.2-0.2,0.2-0.2c0.1,0,0.1,0,0.3,0.2l0.4,0.4c0.1,0,0.2,0.1,0.2,0.2C159.8,80.7,159.7,80.7,159.6,80.7z M154.6,84.8v0.7
			c0,0.6,0,0.7,0,1.2h2.3c0-0.3,0-1.6,0-1.9H154.6z M156.9,82.6h-2.3c0,0.8,0,0.9,0,1.8h2.3V82.6z M156.9,80.7h-2.3
			c0,0.3,0,0.4,0,1.5h2.3V80.7z M158,90.1c-0.3,0-0.4-0.2-0.6-0.6c-0.7-1.2-1-1.5-1.3-1.7v-0.1c1.1,0.4,2.3,0.8,2.3,1.7
			C158.5,89.7,158.3,90.1,158,90.1z M164.6,79.4c0,5.7,0,6.3,0,10.2v0c0,0.8-0.1,1.4-1.6,1.8c-0.3-0.8-0.7-0.9-1.6-1.4V90
			c0.5,0,1.1,0.1,1.4,0.1c0.6,0,1,0,1-0.6v-4.1H161c-0.1,1.8-0.3,4.3-3.3,6.1l0-0.1c0.5-0.5,1.2-1.2,1.8-2.4
			c0.5-1.1,0.9-2.1,0.9-7.2c0-1.3,0-2.8-0.3-3.9l1.3,0.6h2.3l0.3-0.3c0.1-0.1,0.1-0.2,0.2-0.2c0,0,0.1,0,0.2,0.1l0.6,0.5
			c0.1,0.1,0.2,0.1,0.2,0.2C165.2,79.1,165.1,79.1,164.6,79.4z M163.8,82.2h-2.7c0,0.2-0.1,2.4-0.1,2.9h2.8V82.2z M163.8,79h-2.7
			v2.9h2.7V79z"/>
	</g>
	<g>
		<g>
			<path class="st0" d="M15,43.4h2.4c0.8,0,1.8,0.1,1.8,1.1v8.5c0,0-2.7,1-7.7,1C6.6,53.9,0,51.2,0,43.6c0-7.6,6.9-10.5,12-10.5
				c2.3,0,5.2,0.1,5.2,1.4v2.5c-1.9-1.6-2.7-1.9-5.7-1.9c-3,0-8.3,1.9-8.3,8.2c0,6.3,7.1,10,13,7.7v-4.8
				C16.3,45.3,16.2,43.4,15,43.4z"/>
			<path class="st0" d="M52.1,53.4h6.3c-1.7-0.6-2.4-2.7-3-4.2c-0.6-1.5-5.1-12.5-5.6-14c-0.5-1.5-1.2-1.5-1.8-1.5h-3.6
				c1.7,0.6,0.8,1.8,0.5,2.7c-0.3,0.9-6.3,15.8-6.3,15.8c-2.1-0.6-7.4-8.3-7.4-8.3c7-2,5.9-10.2-0.9-10.2h-7.8
				c1.6,0.4,1.4,2,1.4,3.3v13.6c0,1.9-0.6,2.4-1.5,2.9h5.8c-1.6-0.7-1.2-2.4-1.2-3.2V35.6H30c1.7,0,2.9,2,2.9,3.4
				c0,2.2-1.7,3.1-3.4,3.7c-1.7,0.6-0.8,2.1,0,3.2c0.8,1.2,3.1,4.4,4.5,6c1.4,1.6,2.6,1.5,3.2,1.5h5.2c-2-0.6-0.9-2.2-0.6-3
				c0.3-0.8,1.6-4.2,1.6-4.2H51c0,0,0.9,2.4,1.8,4.6C53.7,53,53,53.3,52.1,53.4z M44,43.9l2.9-7.7l3.2,7.7H44z"/>
			<path class="st0" d="M115.1,53.4h6.3c-1.7-0.6-2.5-2.7-3-4.2c-0.6-1.5-5.1-12.5-5.6-14c-0.5-1.5-1.2-1.5-1.8-1.5h-3.6
				c1.7,0.6,0.8,1.8,0.5,2.7c-0.3,0.9-6.3,15.8-6.3,15.8c-0.4,0.9-1,1-1.4,1.3h5.2c-2-0.6-0.9-2.2-0.7-3c0.3-0.8,1.6-4.2,1.6-4.2
				h7.8c0,0,0.9,2.4,1.8,4.6C116.7,53,116.1,53.3,115.1,53.4z M107.1,43.9l2.9-7.7l3.2,7.7C113.2,43.9,107.1,43.9,107.1,43.9z"/>
			<path class="st0" d="M93,53.8c0.7-0.7,1.4-1.2,1.4-3.5V36.7c0-1.1-0.1-2.3-1.4-2.7h5.5c-0.6,0.5-1.3,1.1-1.3,2.6v13.7
				c0,1.2-0.3,3,1.3,3.5C98.6,53.8,93,53.8,93,53.8z"/>
			<path class="st0" d="M63.2,38.2c0,0-0.1,10.9-0.1,12.1c0,1.2,0.1,3,1.7,3.5h-5.3c0.7-0.7,1.3-1.2,1.3-3.5
				c0-2.3,0.2-12.5,0.2-13.6c0-1.1-0.2-2.3-1.4-2.7h4l12.1,15.2V36.8c0-0.8,0.1-2.3-1.5-2.9h5.4C79,34.4,78,34.6,78,36.7v17.9
				c0,0-1.5,0.3-3.9-2.7C71.6,49,63.2,38.2,63.2,38.2z"/>
			<path class="st1" d="M97.6,69.1c-15.8-13.3-21.9-29-0.2-50.5c0.7-0.7,1.3-0.3,0.8,0.3c-9.5,10.8-20.1,28.2-0.2,49.5
				C98.2,68.8,98.1,69.5,97.6,69.1z"/>
		</g>
		<g>
			<path d="M143.6,50.8c0.3-0.1,1.8-0.5,2.1-0.6c0.3-0.2,0.4-0.4,0.4-0.7c0-0.9-1.9-2.9-4.6-2.9c-0.7,0-1.1,0.1-1.4,0.2
				c1.2,1.3,1.6,2.4,1.6,3.3c0,1.9-2,2.7-2.8,2.7c-0.2,0-0.3-0.1-0.4-0.2c-0.3-0.3-0.3-0.4-1.5-0.8c-0.7-0.3-1.3-0.7-1.6-1l0.1-0.1
				c0.5,0.2,1.7,0.7,3.1,0.7c2,0,2-1.3,2-1.5c0-0.3-0.2-1.3-1.1-2.4c-0.1-0.1-0.2-0.2-0.3-0.3c-1.5,0.8-5.3,3.6-5.9,4.3
				c-0.4,0.5-0.6,0.8-0.9,0.8c-0.5,0-1.3-0.7-1.3-1.4c0-0.1,0.1-0.9,0.8-1.7c0,0.7,0.1,1.3,0.4,1.3c0.1,0,0.8-0.5,1-0.6
				c0.6-0.4,3.3-2.2,5.5-3.2c-0.2-0.2-1.1-1.2-1.3-1.4c-0.3-0.3-0.6-0.7-0.6-1.3c0-1.1,0.9-1.9,1.4-2.2c0.3-0.1,0.9-0.5,0.9-0.7
				c0-0.1,0-0.3-0.5-0.6c-0.9-0.6-1.5-1.6-1.5-2.2c0-0.1,0-0.1,0-0.3c0.8,1.2,2.1,1.8,2.8,2.1c0.8,0.4,1.8,0.9,1.8,1.5
				c0,0.2-0.1,0.4-0.5,0.4c-0.2,0-1-0.1-1.2-0.1c-0.7,0-2.6,0.5-2.6,1.7c0,0.9,0.9,1.6,1.9,2.4c0.3,0.2,0.4,0.3,0.5,0.4
				c0.3-0.1,1-0.3,2-0.3c3.3,0,6,2.2,6,4.4c0,0.5-0.3,1-0.5,1c-0.1,0-1.3-0.4-1.5-0.4c-0.2,0-1.7-0.2-2-0.2V50.8z"/>
			<path d="M164.9,49.1c-1.9,3.5-6.1,4.7-8.3,4.7c-0.4,0-2.5-0.1-3.2-1.6c-0.2-0.4-0.4-1-0.4-4.3c0-1.1,0-2.1,0.1-3.2
				c0.1-1.6,0.1-3.1,0.1-3.7c0-2.3-0.3-2.8-1.5-3.1c0.2-0.1,0.7-0.3,1-0.3c0.5,0,1.2,0.6,1.4,0.7c0.3,0.2,0.5,0.4,0.5,0.8
				c0,0.2,0,0.2-0.1,0.8c-0.5,2.2-0.7,8.7-0.7,10.2c0,2.2,0.7,2.8,2.4,2.8C159.5,52.9,163.3,50.4,164.9,49.1L164.9,49.1z
				 M160.5,41.9c0,0.5-0.4,0.5-0.5,0.5c-0.3,0-0.4-0.1-0.6-0.5c-0.7-1-1.5-1.7-2.3-2.3C157.8,39.8,160.5,40.4,160.5,41.9z
				 M160.9,38.6c1.2,0.5,1.5,0.8,1.5,1.5c0,0.2,0,0.6-0.4,0.6c-0.2,0-0.2,0-0.9-0.9c-0.7-0.9-1.2-1.2-2.1-1.7
				C159.7,38.2,160.3,38.4,160.9,38.6z"/>
			<path d="M176.2,53.9c1-1.1,2.7-3,4-5.8c-1.7-0.8-3.4-1.4-5.3-1.6c-0.3,0.5-1.5,3-2.7,4.3c-0.4,0.5-1.3,1.1-1.9,1.1
				c-0.3,0-0.5-0.1-0.8-0.6c-0.6-0.8-0.7-1.3-0.7-1.7c0-1.5,1.7-3.5,5.5-3.9c1.4-2.9,2.4-6.3,2.4-6.4c0-0.2-0.1-0.2-0.2-0.2
				c-0.4,0-1.2,0.3-2.1,0.8c-0.3,0.2-0.7,0.4-0.9,0.4c-0.4,0-1.2-0.5-1.2-1.6c0-0.2,0.1-0.4,0.1-0.5c0.3,0.7,1,0.7,1.1,0.7
				c0.3,0,2.3-0.5,3.3-0.9c0.2-0.1,0.3-0.1,0.4-0.1c0.3,0,1.1,0.6,1.1,1c0,0.2-0.1,0.3-0.3,0.6c-0.3,0.4-0.7,1.3-1,1.9
				c-0.3,0.6-1.6,3.5-1.8,4.1c2.2,0.2,4.7,1,5.4,1.3c0.2-0.6,0.5-1.7,0.5-2.5c0-0.6-0.2-1-0.8-1.6c0.1,0,0.2,0,0.3,0
				c0.8,0,1.7,1.1,1.7,1.6c0,0.2-0.3,1.6-0.8,3c2.2,1.1,3.7,2,3.7,2.8c0,0.3-0.2,0.6-0.6,0.6c-0.2,0-0.4-0.1-1.1-0.8
				c-1.1-0.9-1.8-1.3-2.4-1.7C179.5,51.7,177.7,53.3,176.2,53.9L176.2,53.9z M171.6,47c-1.1,0.5-2.1,1.3-2.1,2.4
				c0,0.7,0.4,1.4,1,1.4c0.9,0,2.6-2.6,3.4-4.3C173.4,46.5,172.6,46.5,171.6,47z"/>
			<path d="M190.7,53.2c-0.3,0.5-0.3,0.6-0.5,0.6c-0.1,0-0.2-0.1-0.3-0.3l-0.7-1.6c0.3,0,0.9,0.1,1.1,0.1c0.8,0,1.9-0.1,2.8-0.2V49
				h-0.6c-0.7,0-1.8,0.1-2.6,0.2l-0.5-0.9c1.5,0.1,2.9,0.2,3.3,0.2h0.4v-2.8H191c0,0.7-0.7,0.8-0.8,0.8c-0.3,0-0.3-0.2-0.3-0.6
				c0-0.1,0-0.2,0-0.4c0.1-1.2,0.1-3.2,0.1-4.5c0-2.8,0-3-0.2-3.6l1.5,0.7h4.8l0.5-0.5c0.1-0.1,0.2-0.1,0.2-0.1
				c0.1,0,0.2,0.1,0.3,0.1l0.7,0.6c0.1,0.1,0.2,0.2,0.2,0.3c0,0.2-0.1,0.2-0.6,0.5c0,0.7,0,1.2,0,2c0,1.2,0.1,3.1,0.1,4.3
				c0,0.8-0.8,0.8-0.8,0.8c-0.3,0-0.3-0.2-0.3-0.5h-2.3v2.8h1.9l0.6-0.7c0.2-0.2,0.2-0.2,0.3-0.2c0.1,0,0.3,0.1,0.4,0.2l0.7,0.7
				c0.2,0.2,0.2,0.3,0.2,0.3c0,0.2-0.2,0.2-0.3,0.2h-3.7v2.6c2.5-0.3,3.5-0.5,4.5-0.7l0.1,0.1C197.6,51.5,192.2,52.8,190.7,53.2z
				 M193.1,38.7H191v2.9h2.2V38.7z M193.1,42.1H191v3.2h2.2V42.1z M196.4,38.7h-2.3v2.9h2.3V38.7z M196.4,42.1h-2.3v3.2h2.3V42.1z
				 M206.1,44.5c-0.2,0.2-1.8,1.4-2.6,2l-0.1-0.1c0.5-0.7,1.3-2.1,1.4-2.6h-2.4c0,1.9,0,4.8,0,6.5c0,0.3,0.1,1.6,0.1,1.9
				c0,1,0,1.9-2.1,2.5c-0.1-0.3-0.1-0.5-0.5-0.8c-0.4-0.3-1-0.7-1.9-1v-0.1c0.9,0.1,1.8,0.2,2.3,0.2c0.8,0,1.1,0,1.1-0.9v-8.3h-0.9
				c-0.4,0-1.6,0-2.6,0.2l-0.5-0.9c1,0.1,2.3,0.2,3.3,0.2h3.8l0.6-0.6c0.2-0.2,0.3-0.2,0.3-0.2c0.1,0,0.2,0,0.3,0.2l1.2,1
				c0.1,0.1,0.1,0.2,0.1,0.3C207.2,44.5,206.7,44.5,206.1,44.5z M204.5,39c-0.8,0.6-0.9,0.7-2.6,2.1c0.3,0.1,1,0.6,1,1.2
				c0,0.4-0.3,0.7-0.6,0.7c-0.3,0-0.3-0.1-0.9-0.9c-0.7-0.9-1-1.2-1.9-1.7v-0.1c0.4,0,1.4,0.1,2.3,0.6c0.9-1.3,1.2-1.9,1.5-2.5h-1.8
				c-0.4,0-1.6,0.1-2.6,0.2l-0.5-0.9c1,0.1,2.3,0.1,3.3,0.1h1.5l0.7-0.5c0.1-0.1,0.2-0.1,0.2-0.1c0.1,0,0.2,0,0.2,0.1l1.1,1
				c0.1,0.1,0.2,0.2,0.2,0.3C205.5,39,205.1,39,204.5,39z"/>
		</g>
	</g>
</g>
<g>
	<g>
		<g>
			<g class="st2">
				<path d="M306.1,72.2v20.1h-1V71.2h7.7v1H306.1z"/>
				<path d="M343,95.5c-0.1,0-0.7-0.2-1.6-0.6c-1.3-0.5-3.4-0.6-4.6-0.6v-0.1c0.6-0.2,3.1-1.1,3.4-1.3c0.4-0.2,0.6-0.5,0.6-1
					c0-1.9-3-4.8-7-4.8c-1.2,0-1.9,0.2-2.3,0.3c1.3,1.2,2.8,3.1,2.8,5.5c0,2.8-2.8,4.5-4.8,4.5c-0.4,0-0.5-0.1-1.1-0.8
					c-0.4-0.4-1.4-0.9-1.7-1c-1.2-0.5-2.2-1.2-3-1.6l0-0.1c1.4,0.4,3.3,0.8,5.4,0.8c2.1,0,2.8-1.3,2.8-2.2c0-1.8-1.8-3.7-2.3-4.2
					c-4.2,2.2-8.5,6.5-9.3,7.6c-0.5,0.8-0.6,1-1.1,1c-0.9,0-2.4-1.4-2.4-2.9c0-0.4,0.2-1.7,1.4-2.8c0,1.7,0.2,2.2,0.8,2.2
					c0.4,0,0.8-0.4,1.7-1c1.3-1,5.5-3.6,8.3-4.9c-2.7-2.9-2.9-3.5-2.9-4.4c0-1.8,1.5-3.1,2.4-3.6c0.7-0.4,1.2-0.7,1.2-1
					c0-0.4-0.5-0.7-0.8-0.9c-1.2-0.8-2.4-2.3-2.4-3.8c0-0.3,0-0.5,0.1-0.7c1.3,2.1,2.4,2.5,5.4,3.7c0.9,0.4,2.3,0.9,2.3,2.3
					c0,0.6-0.3,0.8-0.8,0.8c-0.3,0-1.8-0.2-2.1-0.2c-1.7,0-4.3,1-4.3,2.6c0,1.3,1.4,2.3,3.9,4.3c0.6-0.2,1.8-0.6,3.4-0.6
					c5.5,0,10,3.8,10,7.3C344.1,94.5,343.7,95.5,343,95.5L343,95.5z"/>
				<path d="M362.6,99.2c-6.1,0-6.1-4-6.1-9.2c0-1.9,0.4-10.3,0.4-12c0-2.1,0-3.8-2.7-4.3c0.6-0.5,1.1-0.8,2.2-0.8
					c1,0,3.5,1.3,3.5,2.5c0,0.3,0,0.4-0.2,1.3c-0.3,0.9-1.4,9.5-1.4,15.6c0,2.9,0.1,5,3.5,5c5.2,0,11.5-3.5,14.6-6.1l0.1,0.1
					C373.8,96.4,367.2,99.2,362.6,99.2z M368,81.1c-0.2,0-0.6-0.1-1-0.7c-1.5-2.2-1.6-2.3-3.5-4c3.8,0.7,5.5,2.1,5.5,3.7
					C368.9,80.7,368.4,81.1,368,81.1L368,81.1z M371.2,78.3c-0.4,0-0.5-0.1-1.5-1.4c-1.3-1.6-1.8-1.9-3.2-3c0.8,0.1,5.6,0.9,5.6,3.3
					C372.1,77.7,371.9,78.3,371.2,78.3L371.2,78.3z"/>
				<path d="M407.7,94.6c-0.4,0-0.8-0.2-1.8-1c-1.9-1.7-3.2-2.5-3.9-2.9c-2.1,4.2-4.9,7.3-8.1,8.7l-0.1-0.1c2.8-2.7,4.9-6,6.4-9.6
					c-2.3-1.1-4.7-2.1-8-2.4c-1.1,2.1-4.5,8.9-7.5,8.9c-1.6,0-2.7-2.6-2.7-3.9c0-4,4.6-6,8.8-6.3c2.3-5.3,3.7-9.8,3.7-9.9
					c0-0.2-0.2-0.3-0.4-0.3c-0.8,0-2.6,1.2-3.3,1.6c-0.6,0.4-0.9,0.6-1.2,0.6c-0.7,0-2.1-1.2-2.1-2.7c0-0.7,0.3-1.1,0.5-1.4
					c0.4,1,1.2,1.4,1.8,1.4c0.6,0,3-0.6,4.5-1.2c0.3-0.1,1.3-0.5,1.5-0.5c0.6,0,2,1.2,2,1.9c0,0.4-0.1,0.4-0.8,1.4
					c-1,1.3-3.3,6.7-4.3,9c3.1,0.3,6.5,1.3,8.1,1.9c0.2-0.6,0.7-2.5,0.7-3.7c0-1-0.4-1.7-1.2-2.7c0.3-0.1,0.5-0.2,0.8-0.2
					c1.3,0,2.9,1.8,2.9,2.8c0,0.6-0.7,3.3-1.3,4.7c2.7,1.3,5.9,2.9,5.9,4.7C408.8,94.3,408.1,94.6,407.7,94.6L407.7,94.6z
					 M383.4,91.7c0,1.4,0.9,2.4,1.7,2.4c1.3,0,4.2-4.5,5.2-6.8C388.3,87.2,383.4,88.7,383.4,91.7L383.4,91.7z"/>
				<path d="M424.5,73.7l1-0.8c0.2-0.1,0.2-0.2,0.4-0.2c0.2,0,0.3,0.1,0.4,0.2l1.5,1.3c0.1,0.1,0.3,0.3,0.3,0.4c0,0.2-0.2,0.4-1,0.9
					v4.2c0,0.9,0.2,5.4,0.2,5.8c0,0.8-0.4,1.6-1.6,1.6c-0.7,0-0.7-0.5-0.6-1.4h-3.2v4.6h2.6l1-1.1c0.3-0.4,0.4-0.4,0.5-0.4
					c0.2,0,0.3,0.1,0.6,0.4l1.2,1.1c0.2,0.2,0.3,0.4,0.3,0.5c0,0.3-0.3,0.4-0.5,0.4h-5.7v4.1c4.1-0.5,6-0.9,7.2-1.2l0,0.2
					c-2.6,1.2-5.9,2.1-7,2.4c-1.8,0.5-4.6,1.3-6,1.8c-0.1,0.1-0.5,0.6-0.5,0.6c-0.1,0.1-0.2,0.2-0.4,0.2c-0.2,0-0.4-0.3-0.5-0.4
					l-1.1-3.1c0.5,0.1,1,0.2,1.6,0.2c0.6,0,3.8-0.3,4.7-0.4v-4.3h-1.6c-0.6,0-2.3,0-3.8,0.3l-0.6-1.3c1.7,0.2,3.3,0.2,5,0.2h1.1
					v-4.6h-3.1c0.1,0.9-0.1,1.8-1.5,1.8c-0.4,0-0.8-0.2-0.8-1c0-0.3,0.1-0.7,0.1-0.8c0.1-1.2,0.1-4,0.1-5.3c0-1.4,0-5.8-0.1-6.8
					c-0.1-0.5-0.1-0.8-0.2-1.2l2.8,1.2L424.5,73.7L424.5,73.7z M416.6,74.5v4.8h3.1v-4.8H416.6z M416.6,80.1v4.9h3.1v-4.9H416.6z
					 M421.7,74.5v4.8h3.2v-4.8H421.7z M421.7,80.1v4.9h3.2v-4.9H421.7z M433,83h-1.4c-0.8,0-2.4,0-3.8,0.3l-0.6-1.3
					c1.6,0.1,3.4,0.2,5,0.2h6.2l1.1-1c0.2-0.2,0.3-0.3,0.5-0.3c0.1,0,0.3,0.1,0.5,0.3l2.2,1.9c0.1,0.1,0.2,0.3,0.2,0.5
					c0,0.6-0.9,0.7-1.7,0.7c-0.4,0.3-2.3,1.8-2.5,1.9c-1,0.7-1.7,1.2-2,1.5l-0.2-0.1c0.7-1.1,1.8-3.5,2.1-4.5h-3.3
					c0,2.6,0,6.6,0,7.9c0,0.8,0.1,4.9,0.1,5.9c0,1.3,0,3.2-3.9,4c-0.2-0.6-0.5-2.1-3.8-3.5V97c1.1,0.1,3.3,0.4,4.2,0.4
					c0.9,0,1.3-0.3,1.3-1.2L433,83L433,83z M435.8,73.5l1.1-0.9c0.1-0.1,0.3-0.2,0.5-0.2c0.2,0,0.3,0.1,0.4,0.2l2.1,1.8
					c0.1,0.1,0.2,0.3,0.2,0.5c0,0.4-0.4,0.5-1.7,0.7c-1,0.6-3.5,2.3-4.3,2.9c1.6,0.8,1.8,1.9,1.8,2.2c0,0.6-0.4,1.3-1.3,1.3
					c-0.6,0-0.8-0.3-1.3-0.8c-1.3-1.7-1.9-2.5-3.6-3.4v-0.2c1.4,0.1,2.9,0.3,4,0.8c1.8-2.9,1.8-3,2.2-3.9h-3c-0.8,0-2.4,0-3.8,0.3
					l-0.6-1.3c2.7,0.2,4.6,0.2,5,0.2L435.8,73.5L435.8,73.5z"/>
				<path d="M445.4,100.9v-1h6.7V79.8h1v21.1H445.4z"/>
			</g>
			<path class="st3" d="M583.6,38.5c2.5-0.1,4.7-0.2,5-0.2c0.8,0,1.5,0.3,1.6,0.6c0,0.5-0.5,1.3-0.8,1.8c-1.4,2-13.6,26-20.3,40.1
				c-5.2,10.8-9,18.7-9.6,20.2c-0.5,1.1-1.1,1.3-1.3,1.3c-1.3,0-2.4-1.1-2.4-1.9c0-0.5,0.4-1.3,0.9-2.2
				c8.8-17.7,18.8-36.5,25.6-51.3c0.1-0.1-0.2-0.7-0.4-0.7c-0.9-0.1-8-0.7-20.2-0.7c-1.7,0-4.3,0.1-5.7,0.4c-2.6,0.2-3.6,1.5-5.9,5
				c-0.5,0.9-1.5,2.1-2,2.1c-0.6,0-0.9-0.6-0.9-1.2s0.5-2.2,1.1-3.7c1.4-3.4,1.7-6.4,2-7.7c0.1-0.9,0.5-1.7,1-2.2
				c0.4-0.3,0.9-0.2,1.3,0c1.4,0.6,12,0.7,15.3,0.7C574.7,38.9,581.3,38.6,583.6,38.5L583.6,38.5z"/>
			<g>
				<path class="st4" d="M675.6,98.8c-0.1-0.3,0.2-0.7,0.6-1.1c2.1-1.9,5.2-5.8,7.4-8.6c2.6-3.4,4.8-7.2,4.8-10.4
					c0-4.1-2.5-5.8-5.4-5.8c-2.7,0-4.6,1.4-5.8,2.9c-0.5,0.7-0.8,1-1,1c-0.1,0-0.5-0.5-0.5-0.7c0-0.4,0.1-0.9,0.6-1.5
					c2.1-3.2,5-5,8.4-5c4.2,0,7.5,3.6,7.5,7.9c0,2.7-1.8,6-3.7,8.2c-2.6,3-5.2,6.2-8.5,9.7c-0.1,0.1,0,0.3,0.1,0.4
					c2,0.2,9.2,0.2,10.7,0c1.4-0.2,2.1-0.6,3.3-1.8c0.3-0.4,0.7-0.8,0.9-0.8c0.4,0,0.6,0.6,0.1,1.5c-0.8,1.8-1.3,2.9-1.5,4.2
					c-0.1,0.4-0.5,0.4-0.7,0.4c-0.2,0-9.7-0.2-11.9-0.2c-1.1,0-3,0-4.7,0.1C676.3,99.4,675.6,99.1,675.6,98.8L675.6,98.8z"/>
				<path class="st4" d="M717.7,84.3c0,7.5-2.7,12.5-5.3,14.2c-1.4,0.9-2.9,1.4-4.3,1.3c-7-0.1-9.6-8.8-9.6-14.8
					c0-7.5,2.7-12.2,5.7-14c1.3-0.8,2.5-1.3,4.3-1.3C715.9,69.7,717.7,79.2,717.7,84.3z M704.8,72.8c-1.1,1.7-2.4,4.6-2.4,11.6
					c0,5.2,1.5,14.1,6.3,14.1c1.6,0,2.9-2,3-2.2c1.1-2.1,1.8-5.7,1.8-11.7c0-7.7-2.2-11.7-3.5-12.6c-0.7-0.5-1.5-0.9-2.4-0.9
					C706.6,71.1,705.8,71.5,704.8,72.8z"/>
			</g>
			<path d="M596.9,85c-1.5,3-4.1,5.2-5.5,6l-0.1-0.1c2.5-2.8,3.9-5.3,4.3-6.4c0.2-0.4,0.2-0.8,0.3-1.1l1.5,1
				c0.1,0.1,0.2,0.2,0.2,0.3C597.6,84.8,597.2,84.9,596.9,85z M603.3,90.5c-0.2,6.3-0.5,7.6-3.7,7.9c-0.1-1.1-0.9-1.7-1.3-1.9l0-0.1
				c0.7,0.2,1.5,0.3,2,0.3c0.8,0,1.2-0.2,1.4-1.8c0.2-1.3,0.3-4.2,0.3-5.1h-3.6c-0.1,2.8-1.3,7.5-6.8,8.6l0-0.1
				c3.6-1.7,5.4-4.3,5.6-8.4h-0.5c-0.4,0-1.3,0-2.1,0.2l-0.3-0.7c1.1,0.1,2.2,0.1,2.7,0.1h5l0.5-0.4c0.1-0.1,0.2-0.2,0.3-0.2
				c0.1,0,0.2,0.1,0.2,0.2l0.7,0.8c0.1,0.1,0.2,0.2,0.2,0.3C603.8,90.1,603.8,90.1,603.3,90.5L603.3,90.5z M606.5,90.5
				c-1.9-0.8-4-2.7-5.3-6.7h-1.4c-0.9,0-1.2,0.1-1.5,0.1l-0.2-0.6c0.8,0.1,1.6,0.1,1.9,0.1h0.9l0.6-0.6c0.2-0.2,0.2-0.2,0.3-0.2
				c0.1,0,0.2,0.1,0.3,0.2l0.7,0.6c0.1,0.1,0.1,0.2,0.1,0.3c0,0.4-0.8,0.5-1.1,0.5c0.8,2.3,3.8,4.5,6.5,4.7l0,0.2
				C607.2,89.4,606.8,90,606.5,90.5L606.5,90.5z"/>
			<path d="M731.9,85c-1.5,3-4.1,5.2-5.5,6l-0.1-0.1c2.5-2.8,3.9-5.3,4.3-6.4c0.2-0.4,0.2-0.8,0.3-1.1l1.5,1
				c0.1,0.1,0.2,0.2,0.2,0.3C732.6,84.8,732.2,84.9,731.9,85z M738.3,90.5c-0.2,6.3-0.5,7.6-3.7,7.9c-0.1-1.1-0.9-1.7-1.3-1.9l0-0.1
				c0.7,0.2,1.5,0.3,2,0.3c0.8,0,1.2-0.2,1.4-1.8c0.2-1.3,0.3-4.2,0.3-5.1h-3.6c-0.1,2.8-1.3,7.5-6.8,8.6l0-0.1
				c3.6-1.7,5.4-4.3,5.6-8.4h-0.5c-0.4,0-1.3,0-2.1,0.2l-0.3-0.7c1.1,0.1,2.2,0.1,2.7,0.1h5l0.5-0.4c0.1-0.1,0.2-0.2,0.3-0.2
				c0.1,0,0.2,0.1,0.2,0.2l0.7,0.8c0.1,0.1,0.2,0.2,0.2,0.3C738.8,90.1,738.8,90.1,738.3,90.5L738.3,90.5z M741.5,90.5
				c-1.9-0.8-4-2.7-5.3-6.7h-1.4c-0.9,0-1.2,0.1-1.5,0.1l-0.2-0.6c0.8,0.1,1.6,0.1,1.9,0.1h0.9l0.6-0.6c0.2-0.2,0.2-0.2,0.3-0.2
				c0.1,0,0.2,0.1,0.3,0.2l0.7,0.6c0.1,0.1,0.1,0.2,0.1,0.3c0,0.4-0.8,0.5-1.1,0.5c0.8,2.3,3.8,4.5,6.5,4.7l0,0.2
				C742.2,89.4,741.8,90,741.5,90.5L741.5,90.5z"/>
			<g>
				<path d="M634.4,92.9c1.7-1.7,3.6-4.7,4.1-5.8c0.1-0.4,0.2-0.6,0.3-1l1.4,1.1c0.1,0.1,0.1,0.1,0.1,0.2c0,0.2-0.3,0.2-0.7,0.3
					c-0.3,0.4-0.6,0.9-1.3,1.7c0.2,0.2,0.3,0.2,0.3,0.4c0,0.1-0.1,0.2-0.5,0.5c-0.1,0.8-0.1,1.4-0.1,2c0,0.8,0.1,4.2,0.1,4.8
					c0,0.9,0,1.4-0.8,1.4c-0.3,0-0.6-0.1-0.6-0.5c0-0.2,0.1-1.2,0.1-1.4c0.1-1.1,0-1.5,0.1-5.5c-1.3,1.3-2.2,1.8-2.6,2L634.4,92.9
					L634.4,92.9z M634.5,87.7c2.5-2.3,3.9-4.6,4.1-5.4l1.3,1c0,0,0.1,0.1,0.1,0.2c0,0.2-0.1,0.2-0.7,0.4c-1.5,2-3.2,3.2-4.7,4
					L634.5,87.7L634.5,87.7z M648.5,88.7l0.6-0.9c0.1-0.2,0.2-0.2,0.3-0.2c0.1,0,0.2,0.1,0.3,0.2l1,0.9c0.1,0.1,0.2,0.2,0.2,0.3
					c0,0.2-0.1,0.2-0.3,0.2h-6.3l1.6,0.5c0.1,0,0.2,0.1,0.2,0.2c0,0.2-0.4,0.5-0.5,0.5v1.7h1.8l0.6-0.8c0.1-0.2,0.2-0.2,0.3-0.2
					c0.1,0,0.1,0,0.3,0.2l0.9,0.7c0.1,0.1,0.2,0.1,0.2,0.3c0,0.2-0.1,0.2-0.3,0.2h-3.9c0,0.2,0,3.8,0,3.9c0.4,0.1,1.4,0.2,2.6,0.2
					c1.6,0,2.4-0.2,2.8-0.3l0,0.1c-0.3,0.2-0.9,0.7-1,1.7c-0.3,0-0.6,0.1-1,0.1c-5.7,0-6.6-3.2-7-4.6c-0.4,1.2-1.3,3.3-3.5,4.5
					l-0.1-0.1c2.6-2.9,2.9-6.4,2.9-7.1c0-0.4,0-0.6-0.1-0.8l1.8,0.6c0.1,0,0.2,0.1,0.2,0.2c0,0.1,0,0.1-0.1,0.2
					c-0.1,0.1-0.4,0.2-0.5,0.3c-0.2,0.8-0.3,1.3-0.5,1.7c0.8,1.7,1.7,2.6,2.3,2.9c0-4.6,0-4.9,0-5.7c0-0.2-0.1-1.1-0.1-1.3h-1.8
					c-0.4,0-1.3,0-2.1,0.2l-0.4-0.7c1.2,0.1,2.5,0.1,2.7,0.1h1.7c0-1,0-2.1,0-3.1h-1.4c-0.3,0-1.2,0-2.1,0.2l-0.4-0.7
					c1.1,0.1,2.2,0.1,2.7,0.1h1.1c0-1.7-0.1-1.8-0.3-2.7L646,83c0.1,0,0.2,0.1,0.2,0.2c0,0.1-0.4,0.5-0.5,0.6v1.4h1.7l0.7-0.8
					c0.1-0.1,0.2-0.2,0.3-0.2s0.2,0.1,0.3,0.2l0.9,0.8c0.1,0.1,0.2,0.2,0.2,0.3c0,0.2-0.2,0.2-0.3,0.2h-3.9v3.1L648.5,88.7
					L648.5,88.7z"/>
				<path d="M668.3,88.9h-7.9l0.6,0.1c0.4,0.1,0.4,0.1,0.4,0.2c0,0.1-0.1,0.2-0.4,0.4c0,0.5,0.1,2.7,0.1,3.2c0,1.1,0,1.6-1.8,2.1
					c-0.2-0.7-0.7-1.2-1.5-1.6v-0.1c0.2,0,1.3,0.1,1.5,0.1c0.6,0,0.6,0,0.7-0.7c0-0.8,0-2.8,0-3.8H655c-0.4,0-1.3,0-2.1,0.2
					l-0.4-0.7c1.2,0.1,2.4,0.1,2.7,0.1h0.8c0-3.1,0-3.5-0.3-4.4l1.7,0.5c0.3,0.1,0.3,0.1,0.3,0.3c0,0.1-0.1,0.2-0.5,0.5v3.1h2.4
					c0-4,0-4.4,0-5c0-0.4-0.1-0.8-0.2-1.7l1.6,0.4c0.2,0.1,0.3,0.1,0.3,0.3c0,0.1,0,0.2-0.5,0.5v2.3h2.5l0.7-1
					c0.1-0.1,0.2-0.2,0.3-0.2c0.1,0,0.2,0.1,0.3,0.2l1.1,1c0.1,0.1,0.2,0.2,0.2,0.3c0,0.2-0.1,0.2-0.3,0.2H661v2.8h4.8l0.8-1.1
					c0.1-0.1,0.2-0.2,0.3-0.2c0.1,0,0.2,0.1,0.3,0.2l1.1,1.1c0.1,0.1,0.2,0.2,0.2,0.3C668.5,88.9,668.4,88.9,668.3,88.9L668.3,88.9z
					 M658.3,91.1c-0.1,0-0.3,0.1-0.4,0.1c-1.2,2-2.8,3.5-4.8,4.6l-0.1-0.1c1.9-2,3.2-4.3,3.4-4.9c0.1-0.3,0.2-0.6,0.3-1.1l1.4,0.7
					c0.2,0.1,0.3,0.2,0.3,0.4C658.4,90.9,658.3,91,658.3,91.1L658.3,91.1z M663.6,94.2c-2.8,2.5-5.6,4.1-9.9,4.2l0-0.1
					c2.6-0.7,5.3-1.7,7.8-4c0.6-0.5,1.2-1.1,1.6-1.7l1.1,1.1c0.1,0.1,0.2,0.2,0.2,0.3C664.4,94.1,664.3,94.1,663.6,94.2z
					 M666.7,94.7c-0.5,0-0.8-0.4-1.1-0.9c-1.1-1.8-2-2.6-3.2-3.5l0.1-0.1c3.2,0.8,4.9,2.7,4.9,3.8C667.4,94.3,667.1,94.7,666.7,94.7
					z"/>
			</g>
			<g>
				<path d="M469.5,97c-0.4,0-0.6-0.3-0.6-0.7c0-0.3,0.6-1.7,0.7-2c0.1-0.3,0.1-0.5,0-0.8l0.2,0c0.3,0.5,0.7,1.2,0.7,2.1
					C470.4,96.2,470.3,97,469.5,97L469.5,97z M476,91.9c-0.2,2.7-0.8,4.2-1.1,4.9c-0.4,0.9-1,1.2-1.9,1.5c-0.2-1.1-1.1-1.6-1.4-1.7
					l0-0.1c1,0.2,1.7,0.2,1.7,0.2c0.4,0,0.5,0,0.7-0.5c0.5-1.1,0.8-3.4,0.8-4.6h-3.9c0,0.3,0,0.9-0.8,0.9c-0.4,0-0.4-0.2-0.4-0.5
					c0-0.1,0-0.5,0-0.6c0.1-1.1,0.1-4.2,0.1-5.4c0-0.6,0-1.9-0.2-2.9l1.3,0.7h3.3l0.4-0.5c0.1-0.1,0.2-0.2,0.3-0.2
					c0.1,0,0.2,0.1,0.4,0.2l0.7,0.5c0.1,0.1,0.2,0.2,0.2,0.3c0,0.1-0.2,0.2-0.3,0.2h-2.4v2h0.8l0.3-0.4c0.1-0.2,0.2-0.2,0.3-0.2
					c0.1,0,0.2,0.1,0.4,0.2l0.6,0.4c0.1,0.1,0.2,0.2,0.2,0.3c0,0.2-0.2,0.2-0.3,0.2h-2.2v2h0.8l0.4-0.5c0.1-0.1,0.2-0.2,0.3-0.2
					c0.1,0,0.2,0.1,0.3,0.2l0.5,0.5c0.1,0.1,0.2,0.2,0.2,0.3c0,0.1-0.1,0.2-0.3,0.2h-2.2v2.1h1.2l0.5-0.5c0.1-0.1,0.2-0.2,0.3-0.2
					c0.1,0,0.2,0.1,0.4,0.2l0.7,0.6c0.1,0.1,0.1,0.1,0.1,0.2C476.5,91.7,476.1,91.9,476,91.9L476,91.9z M471.6,96.3
					c-0.6,0-0.6-0.7-0.6-1.1c0-1.1,0-1.5-0.2-1.9l0.1-0.1c0.1,0.1,0.8,0.8,0.8,0.9c0.4,0.7,0.5,1.1,0.5,1.4
					C472.2,96,471.8,96.3,471.6,96.3L471.6,96.3z M472.4,84h-1.6v2h1.6V84z M472.4,86.5h-1.6v2h1.6V86.5z M472.4,89h-1.6v2.1h1.6
					C472.4,91.1,472.4,89,472.4,89z M473,95.1c-0.5,0-0.5-0.3-0.7-1.3c-0.1-0.4-0.1-0.8-0.3-1.3l0.1-0.1c0.9,0.8,1.5,1.3,1.5,2
					C473.6,94.8,473.4,95.1,473,95.1z M474,93.8c-0.4,0-0.4-0.3-0.6-1c-0.1-0.5-0.3-0.7-0.4-0.8l0.1-0.1c0.8,0.4,1.4,0.8,1.4,1.3
					C474.4,93.6,474.3,93.8,474,93.8z M485.7,97.1c-0.8,0.1-1.5,0.8-1.7,1c-2-1.6-3.4-4.6-3.4-8.8h-1.9c-0.2,4.3-1,7-3.6,8.8
					l-0.1-0.1c2.5-2.7,2.6-7.6,2.6-11.3c0-2.2-0.1-2.8-0.3-3.7l1.7,0.7h3.6l0.5-0.5c0.1-0.1,0.2-0.2,0.3-0.2s0.2,0,0.3,0.2l0.7,0.6
					c0.1,0.1,0.2,0.2,0.2,0.3c0,0.1-0.3,0.4-0.5,0.5c0,0.3,0,0.6,0,1.1c0,0.6,0.1,3,0.1,3.6s-0.5,0.7-0.8,0.7
					c-0.6,0-0.5-0.4-0.5-0.8h-1.8c0.4,3.8,2.9,6.9,4.8,7.6L485.7,97.1L485.7,97.1z M482.7,84.3h-3.9c0,0.7-0.1,3.9-0.1,4.6h4V84.3z"
					/>
				<path d="M498.2,85.2l0.5-0.6c0.1-0.1,0.2-0.2,0.2-0.2c0.1,0,0.2,0.1,0.2,0.1l0.9,0.7c0.1,0.1,0.2,0.2,0.2,0.3
					c0,0.2-0.2,0.3-0.6,0.5c0,0.9,0,1.3,0,2.8c0,0.9,0,4.1,0.1,5.6c0,0.5,0.1,2.2,0.1,2.7c0,0.7-0.5,0.9-0.9,0.9
					c-0.4,0-0.6-0.2-0.6-0.6c0-0.1,0-0.5,0-0.6h-7.7c0,0.8-0.1,1.3-0.9,1.3c-0.4,0-0.5-0.2-0.5-0.6c0-0.2,0-0.5,0-0.8
					c0.1-2.8,0.1-4.4,0.1-6.7c0-1.6,0-4.5-0.2-5.9l1.7,0.8h2.3c0.4-1.6,0.6-2.3,0.5-3.2l1.9,0.9c0.2,0.1,0.2,0.2,0.2,0.3
					c0,0.2-0.4,0.3-0.7,0.4c-0.6,0.7-1.1,1.3-1.5,1.6C493.6,85.2,498.2,85.2,498.2,85.2z M490.7,85.7v3.4h7.7v-3.4H490.7z
					 M490.7,89.5v3.2h7.7v-3.2H490.7z M490.7,93.1v3.4h7.7v-3.4H490.7z"/>
				<path d="M507.5,85.7h-1c-0.2,0-1.3,0-2.1,0.2l-0.3-0.7c1.2,0.1,2.4,0.1,2.7,0.1h0.7c0-1.8,0-1.9-0.2-2.8l1.6,0.4
					c0.1,0,0.3,0.1,0.3,0.3c0,0.2-0.2,0.3-0.5,0.5c0,0.1,0,1.1,0,1.7h1.5l0.4-0.6c0.1-0.2,0.2-0.2,0.3-0.2c0.1,0,0.1,0.1,0.3,0.2
					l0.7,0.6c0.2,0.1,0.2,0.2,0.2,0.3c0,0.2-0.2,0.2-0.3,0.2h-3l0,1.8h1.5l0.4-0.4c0.1-0.1,0.2-0.2,0.3-0.2c0.1,0,0.2,0.1,0.3,0.1
					l0.6,0.5c0.1,0.1,0.2,0.2,0.2,0.3c0,0.2-0.1,0.2-0.5,0.5c0,0.7,0.1,3.8,0.1,4.2c0,0.8-0.6,0.8-0.8,0.8c-0.4,0-0.4-0.4-0.4-0.7
					h-1.6l0,2.1h1.5l0.4-0.5c0.1-0.2,0.2-0.2,0.3-0.2c0.1,0,0.1,0.1,0.3,0.2l0.7,0.5c0.1,0.1,0.2,0.2,0.2,0.3c0,0.2-0.1,0.2-0.3,0.2
					h-3c0,0.4,0,1.2,0.1,2.3c0,0.1,0,0.2,0,0.3c0,0.8-0.8,0.8-0.9,0.8c-0.2,0-0.5-0.1-0.5-0.4c0-0.1,0.1-2.8,0.1-3h-1.2
					c-0.4,0-1.3,0-2.1,0.2l-0.4-0.7c1.2,0.1,2.4,0.1,2.7,0.1h0.9l0-2.1H506c0,0.3,0,0.8-0.8,0.8c-0.4,0-0.4-0.3-0.4-0.5
					c0-0.1,0-0.2,0-0.4c0.1-1.1,0.1-2.7,0.1-3c0-0.9,0-1.8-0.1-2.7l1.4,0.7h1.4L507.5,85.7L507.5,85.7z M507.6,87.9H506v1.9h1.6
					V87.9z M507.5,92.2c0-0.6,0-1.7,0-1.9H506v1.9H507.5z M508.6,89.8h1.6v-1.9h-1.6L508.6,89.8z M510.2,92.2v-1.9h-1.6
					c0,0.7,0,1.3,0,1.9H510.2z M516.2,89.7c-0.2,0.5-0.6,1.6-1.3,3.1c-0.2,0.4-1.2,2.4-1.4,2.9c2.6-0.3,2.9-0.4,4.1-0.6
					c-0.5-1.3-0.8-1.8-1.2-2.3l0.1-0.1c0.7,0.4,3.1,2.1,3.1,4.1c0,0.3-0.1,0.9-0.7,0.9c-0.4,0-0.5-0.2-0.7-0.7
					c-0.1-0.2-0.4-1.4-0.5-1.6c-0.7,0.3-4.8,1.6-5.3,1.7c-0.1,0.4-0.2,0.5-0.4,0.5c-0.1,0-0.2-0.2-0.3-0.4l-0.6-1.6
					c0.3,0.1,0.5,0.1,1,0.1c0.3,0,0.5,0,1-0.1c0.7-2.1,1.2-4.4,1.5-6h-0.4c-0.5,0-1.3,0-2.1,0.2l-0.3-0.7c1.4,0.1,2.5,0.1,2.7,0.1
					h3.5l0.6-0.8c0.1-0.2,0.2-0.2,0.3-0.2c0.1,0,0.2,0.1,0.3,0.2l0.9,0.8c0.1,0.1,0.2,0.2,0.2,0.3c0,0.2-0.2,0.2-0.3,0.2L516.2,89.7
					L516.2,89.7z M517.2,84.6l0.6-0.8c0.1-0.2,0.2-0.2,0.3-0.2c0.1,0,0.2,0.1,0.3,0.2l0.9,0.8c0.1,0.1,0.2,0.1,0.2,0.3
					c0,0.2-0.2,0.2-0.3,0.2h-4.2c-0.4,0-1.3,0-2.1,0.2l-0.4-0.7c1.2,0.1,2.5,0.1,2.7,0.1C515.2,84.6,517.2,84.6,517.2,84.6z"/>
				<path d="M537.5,95h-7.3c0,0.6,0.1,2.3,0.1,2.9c0,0.4-0.4,0.8-0.9,0.8c-0.4,0-0.6-0.3-0.6-0.6c0-0.2,0.1-1.2,0.1-1.4
					c0-0.9,0-1,0-1.7h-4.7c-0.4,0-1.3,0-2.1,0.2l-0.4-0.7c1.1,0.1,2.2,0.1,2.7,0.1h4.4l0-2h-3.3c0,0.4,0.1,0.5-0.1,0.6
					c-0.2,0.2-0.5,0.3-0.8,0.3c-0.3,0-0.5-0.1-0.5-0.4c0-0.2,0.1-1,0.1-1.2c0-0.9,0.1-1.7,0.1-2.6c0-2.2-0.1-2.5-0.2-3.3l1.7,0.8
					h3.1c0-0.3,0-1.6,0-1.9h-4.1c-0.4,0-1.3,0-2.1,0.2l-0.4-0.7c1.2,0.1,2.5,0.1,2.7,0.1h3.8c0-1.1-0.1-1.2-0.4-2.2l1.8,0.4
					c0.2,0,0.3,0.1,0.3,0.3c0,0.1,0,0.2-0.2,0.3c-0.1,0.1-0.2,0.2-0.3,0.3c0,0.1,0,0.8,0,1h4.4l0.7-0.9c0.1-0.2,0.2-0.2,0.3-0.2
					c0.1,0,0.2,0.1,0.3,0.2l1.1,0.9c0.1,0.1,0.2,0.2,0.2,0.3c0,0.1-0.2,0.2-0.3,0.2h-6.7l0,1.9h3l0.5-0.4c0.2-0.2,0.3-0.2,0.4-0.2
					c0.1,0,0.2,0.1,0.4,0.2l0.7,0.6c0.1,0.1,0.2,0.2,0.2,0.3c0,0.1-0.1,0.2-0.6,0.6c0,0.3,0,0.7,0,1.3c0,0.5,0.1,2.8,0.1,3.3
					c0,0.6-0.5,0.8-0.8,0.8c-0.5,0-0.5-0.2-0.5-0.6h-3.3l0,2h4.9l0.8-0.9c0.1-0.1,0.2-0.2,0.3-0.2c0.1,0,0.2,0.1,0.3,0.2l1.1,0.9
					c0.1,0.1,0.2,0.2,0.2,0.3C537.8,95,537.7,95,537.5,95L537.5,95z M529,87.3h-3.3v2.2h3.3V87.3z M525.7,89.9l0,2.3h3.3l0-2.3
					H525.7z M533.5,87.3h-3.3v2.2h3.3V87.3z M533.5,89.9h-3.3l0,2.3h3.3L533.5,89.9L533.5,89.9z"/>
			</g>
			<g>
				<rect x="241" y="61.5" class="st5" width="43" height="39.1"/>
				<g>
					<path d="M254.3,78.8c-0.6-0.2-1.8-1.1-1.8-1.1c-1.2-0.7-1.9-1.7-2.6-2.7c0,0.6,0,3.1,0.1,3.7c0,0.1,0,0.3,0,0.4
						c0,0.2,0,0.3-0.2,0.4c-0.2,0.1-0.4,0.2-0.4,0.2c-0.2,0-0.3-0.2-0.3-0.4c0-0.1,0-0.5,0-0.6c0-0.5,0.1-2.7,0.1-3.2
						c-1.7,1.9-4,3.1-5.4,3.5l-0.1-0.1c1.5-0.6,3.9-2.6,4.9-3.8h-2c0,0.3,0,0.4-0.1,0.4c-0.1,0.2-0.3,0.2-0.5,0.2
						c-0.2,0-0.2-0.1-0.2-0.2c0,0,0-0.2,0-0.2c0.1-0.6,0.1-1.8,0.1-2.3c0-1.2,0-1.3-0.2-2.1l0.9,0.4h2.4c0-0.2,0-0.5,0-1.3h-3.4
						c-0.4,0-1.1,0.1-1.6,0.1l-0.3-0.5c1,0.1,1.9,0.1,2.1,0.1h3.2c0-0.7-0.1-1.3-0.3-1.6l1.2,0.3c0.1,0,0.2,0.1,0.2,0.1
						c0,0.1,0,0.1-0.2,0.2c-0.1,0.1-0.2,0.2-0.3,0.2c0,0.1,0,0.5,0,0.8h3.8l0.4-0.6c0.1-0.1,0.1-0.2,0.2-0.2c0.1,0,0.2,0.1,0.2,0.1
						l0.7,0.6c0.1,0.1,0.1,0.1,0.1,0.2c0,0.1-0.1,0.1-0.2,0.1h-5.3v1.3h2.3l0.4-0.3c0.1-0.1,0.1-0.1,0.1-0.1c0,0,0.1,0,0.1,0.1
						l0.5,0.4c0.1,0.1,0.1,0.1,0.1,0.2c0,0.1,0,0.1-0.1,0.2c-0.1,0.1-0.2,0.1-0.3,0.2c0,1,0,1,0.1,3c0,0.1,0,0.3,0,0.3
						c0,0.2,0,0.3-0.2,0.4c-0.1,0.1-0.2,0.1-0.3,0.1c-0.3,0-0.3-0.2-0.2-0.5H250c0.9,1,2.9,2.7,5.5,2.7v0.1
						C254.8,78,254.7,78.2,254.3,78.8L254.3,78.8z M249.1,71.4h-2.5v1.4h2.5V71.4z M249.1,73.1h-2.5v1.5h2.5V73.1z M252.4,71.4h-2.6
						v1.4h2.6V71.4z M252.4,73.1h-2.6v1.5h2.6V73.1z"/>
					<path d="M267.7,79.4c-0.4,0-1.4-0.5-2.1-1.3c-1.7-2-2-4.2-2.2-6.3h-2.7l0.4,0.1c0.1,0,0.2,0.1,0.2,0.1c0,0.1-0.2,0.3-0.4,0.3
						v1.9h1l0.3-0.5c0.1-0.1,0.1-0.2,0.2-0.2c0.1,0,0.1,0,0.3,0.2l0.5,0.5c0.1,0.1,0.1,0.1,0.1,0.2c0,0.1-0.1,0.1-0.2,0.1h-2.2v3.2
						c0.1,0,0.2,0,0.4-0.1c0.9-0.2,1.8-0.3,2.6-0.5v0.1c-0.6,0.3-5,1.4-6,1.7c-0.1,0.3-0.1,0.3-0.3,0.3c-0.1,0-0.1,0-0.2-0.1l-0.6-1
						c0.2,0,0.3,0.1,0.4,0.1c0.2,0,0.4,0,0.9-0.1c0-2.1,0-2.4-0.1-4.4c0-0.4,0-0.6-0.1-0.8l1.1,0.4c0.1,0,0.2,0.1,0.2,0.1
						c0,0-0.1,0.2-0.4,0.3c0,0.2,0,0.4,0,0.5c0,0.4,0,3.7,0,3.8c0.2,0,0.6-0.1,1.4-0.2v-6.1h-1.6c-0.4,0-1.1,0.1-1.6,0.2l-0.3-0.6
						c1,0.1,1.9,0.1,2.1,0.1h4.6c-0.1-0.9-0.1-1.8-0.2-2.5c0-0.6-0.1-0.8-0.1-1l1.2,0.3c0.1,0,0.2,0.1,0.2,0.2
						c0,0.2-0.2,0.3-0.4,0.4c0,0.3,0,0.7,0,1.3c0,0.6,0,1.1,0,1.3h2.4l0.4-0.6c0-0.1,0.1-0.2,0.2-0.2c0.1,0,0.2,0.1,0.3,0.2l0.6,0.6
						c0.1,0.1,0.1,0.2,0.1,0.2c0,0.1-0.1,0.1-0.2,0.1h-3.7c0.2,2.3,0.6,3.7,1.4,5c0.6,0.9,1.3,1.2,1.6,1.2c0.2,0,0.2-0.1,0.3-0.3
						c0-0.1,0.4-0.7,0.5-1l0.1,0c-0.1,0.7-0.1,1.4-0.1,1.5c0,0.2,0,0.2,0.2,0.4c0.1,0.1,0.1,0.2,0.1,0.3
						C268.1,79,268.1,79.4,267.7,79.4L267.7,79.4z M262.4,69.9h-2.5c-0.5,0-1.2,0.1-1.6,0.1l-0.3-0.5c1,0.1,1.9,0.1,2.1,0.1h1.2
						l0.3-0.4c0.1-0.2,0.1-0.2,0.2-0.2c0.1,0,0.2,0.1,0.2,0.1l0.5,0.4c0.1,0.1,0.1,0.1,0.1,0.2C262.6,69.8,262.5,69.9,262.4,69.9z
						 M266.3,70.4c-0.2,0-0.4-0.2-0.6-0.5c-0.3-0.4-0.5-0.8-1-1.1v-0.1c1.3,0.2,1.9,0.8,1.9,1.3C266.7,70.2,266.5,70.4,266.3,70.4
						L266.3,70.4z"/>
					<path d="M254.3,93.4c-0.6-0.2-1.8-1.1-1.8-1.1c-1.2-0.7-1.9-1.7-2.6-2.7c0,0.6,0,3.1,0.1,3.7c0,0.1,0,0.3,0,0.4
						c0,0.2,0,0.3-0.2,0.4c-0.2,0.1-0.4,0.2-0.4,0.2c-0.2,0-0.3-0.2-0.3-0.4c0-0.1,0-0.5,0-0.6c0-0.5,0.1-2.7,0.1-3.2
						c-1.7,1.9-4,3.1-5.4,3.5l-0.1-0.1c1.5-0.6,3.9-2.6,4.9-3.8h-2c0,0.3,0,0.4-0.1,0.4c-0.1,0.2-0.3,0.2-0.5,0.2
						c-0.2,0-0.2-0.1-0.2-0.2c0,0,0-0.2,0-0.2c0.1-0.6,0.1-1.8,0.1-2.3c0-1.2,0-1.3-0.2-2.1l0.9,0.4h2.4c0-0.2,0-0.5,0-1.3h-3.4
						c-0.4,0-1.1,0.1-1.6,0.1l-0.3-0.5c1,0.1,1.9,0.1,2.1,0.1h3.2c0-0.7-0.1-1.3-0.3-1.6l1.2,0.3c0.1,0,0.2,0.1,0.2,0.1
						c0,0.1,0,0.1-0.2,0.2c-0.1,0.1-0.2,0.2-0.3,0.2c0,0.1,0,0.5,0,0.8h3.8l0.4-0.6c0.1-0.1,0.1-0.2,0.2-0.2c0.1,0,0.2,0.1,0.2,0.1
						l0.7,0.6c0.1,0.1,0.1,0.1,0.1,0.2c0,0.1-0.1,0.1-0.2,0.1h-5.3v1.3h2.3l0.4-0.3c0.1-0.1,0.1-0.1,0.1-0.1c0,0,0.1,0,0.1,0.1
						l0.5,0.4c0.1,0.1,0.1,0.1,0.1,0.2c0,0.1,0,0.1-0.1,0.2c-0.1,0.1-0.2,0.1-0.3,0.2c0,1,0,1,0.1,3c0,0.1,0,0.3,0,0.3
						c0,0.2,0,0.3-0.2,0.4c-0.1,0.1-0.2,0.1-0.3,0.1c-0.3,0-0.3-0.2-0.2-0.5H250c0.9,1,2.9,2.7,5.5,2.7v0.1
						C254.8,92.7,254.7,92.9,254.3,93.4L254.3,93.4z M249.1,86.1h-2.5v1.4h2.5V86.1z M249.1,87.8h-2.5v1.5h2.5V87.8z M252.4,86.1
						h-2.6v1.4h2.6V86.1z M252.4,87.8h-2.6v1.5h2.6V87.8z"/>
					<path d="M267.7,93.2h-9.3c-0.4,0-1.1,0.1-1.6,0.1l-0.3-0.5c1,0.1,1.9,0.1,2.1,0.1h2.7V88c0-0.8,0-4.2-0.1-4.7
						c0-0.2-0.1-0.3-0.1-0.4l1.2,0.3c0.1,0,0.2,0.1,0.2,0.2c0,0.1-0.1,0.2-0.4,0.4c0,0.2,0,0.3,0,0.5c0,0.4,0,2.4,0,2.8h2.6l0.5-0.6
						c0.1-0.1,0.1-0.2,0.2-0.2c0.1,0,0.2,0.1,0.2,0.1l0.8,0.6c0.1,0.1,0.1,0.1,0.1,0.2c0,0.1-0.1,0.1-0.2,0.1H262c0,2.7,0,3.3,0,5.5
						h4.1l0.5-0.6c0.1-0.2,0.2-0.2,0.2-0.2c0.1,0,0.2,0.1,0.2,0.1l0.7,0.6c0.1,0.1,0.1,0.1,0.1,0.2
						C267.9,93.2,267.8,93.2,267.7,93.2L267.7,93.2z"/>
					<path d="M270.8,90.2c-0.6,1.8-0.9,2.5-1.6,3.4l-0.1,0c0.5-1.1,1-3.1,1-3.8c0-0.1,0-0.3-0.1-0.4l1,0.4c0.1,0,0.1,0.1,0.1,0.2
						C271.1,90,271,90.1,270.8,90.2z M273.6,85.2c-0.7,1-2.2,2.8-2.3,2.9c0.2,0,1.4-0.1,1.8-0.1c-0.2-0.6-0.4-0.8-0.5-1l0.1-0.1
						c0.3,0.2,1.4,0.8,1.4,1.5c0,0.3-0.2,0.5-0.4,0.5c-0.3,0-0.4-0.3-0.6-0.8l-1.1,0.3c0,1.3,0,1.9,0,2.2c0,0.5,0.1,2.9,0.1,3
						c0,0.5-0.3,0.6-0.5,0.6c-0.3,0-0.3-0.2-0.3-0.3c0-0.5,0.1-2.4,0.1-2.8s0-2.2,0.1-2.5c-0.8,0.2-1.3,0.3-1.7,0.3
						c-0.1,0.2-0.2,0.3-0.3,0.3c-0.1,0-0.2,0-0.2-0.2l-0.2-1c0.6,0.2,1.3,0.2,2,0.2c0.8-1.1,2-3.4,1.9-3.9l1,0.6
						c0.1,0.1,0.1,0.1,0.1,0.2C274.2,85.1,274,85.1,273.6,85.2L273.6,85.2z M272.1,83.6c-0.6,0.9-0.8,1.1-1.2,1.6
						c0.3,0.2,0.5,0.4,0.5,0.8c0,0.3-0.2,0.5-0.4,0.5c-0.2,0-0.4-0.2-0.6-0.8c-0.2-0.5-0.4-0.7-0.8-1l0-0.1c0.2,0,0.5,0.1,1.2,0.5
						c0.1-0.3,0.7-1.6,0.7-2.2c0-0.1,0-0.2,0-0.3l1.1,0.5c0.1,0,0.1,0.1,0.1,0.2C272.7,83.4,272.6,83.5,272.1,83.6z M273.5,91.4
						c-0.3,0-0.3-0.2-0.5-0.7c0-0.1-0.2-0.6-0.5-1l0-0.1c0.7,0.4,1.3,0.8,1.3,1.3C273.9,91.2,273.8,91.4,273.5,91.4L273.5,91.4z
						 M275.8,90.1c-0.9,1.9-1.7,2.8-2.8,3.3l0-0.1c1-0.8,1.9-2.4,2.2-3.6h-0.7c-0.2,0-0.5,0-0.7,0.1l-0.1-0.4c0.2,0,0.7,0.1,0.9,0.1
						h0.6l0.1-0.2c0-0.1,0.1-0.1,0.1-0.1c0.1,0,0.1,0.1,0.2,0.1l0.6,0.5c0.1,0.1,0.1,0.1,0.1,0.2C276.3,90.1,276,90.1,275.8,90.1z
						 M280,93.5c-1.3-1.1-2.2-2.2-2.7-3.8c0,0.2,0,0.5,0,0.7c0,0.4,0.1,2.5,0.1,2.6c0,0.5-0.2,0.7-0.4,0.8c-0.2,0.1-0.4,0.3-0.8,0.4
						c-0.2-0.3-0.3-0.6-1.3-1.1l0-0.1c0.2,0,1.1,0,1.2,0c0.4,0,0.5,0,0.5-0.3v-4.1c0-0.5,0-0.5,0-0.6h-1.3c0,0.1,0,0.4-0.4,0.4
						c-0.3,0-0.3-0.1-0.3-0.3c0-0.3,0-1.6,0-1.9c0-0.3,0-1.8,0-2c0-0.2,0-0.5-0.1-0.7l0.9,0.5h1c0.1-0.4,0.1-0.8,0.1-1
						c0-0.2,0-0.4-0.1-0.6l1.1,0.3c0.1,0,0.2,0.1,0.2,0.2c0,0.2-0.2,0.2-0.5,0.3c-0.1,0.1-0.5,0.7-0.6,0.8h1.9l0.4-0.4
						c0.1-0.1,0.1-0.1,0.2-0.1c0.1,0,0.1,0,0.2,0.1l0.5,0.4c0.1,0.1,0.1,0.1,0.1,0.2c0,0.2-0.2,0.2-0.4,0.4c0,0.1,0,1.6,0,1.7
						c0,0.3,0.1,1.5,0.1,1.7c0,0.4-0.2,0.5-0.5,0.5c-0.2,0-0.3-0.1-0.2-0.4h-1.8l0.2,0.1c0.1,0,0.2,0.1,0.2,0.2
						c0,0.1-0.2,0.2-0.3,0.3c0,0.1,0.2,1,0.7,1.8c0.2-0.2,0.9-1,1.1-1.6l0.8,0.5c0.1,0.1,0.1,0.1,0.1,0.2c0,0.2-0.2,0.2-0.5,0.2
						c-0.5,0.3-1,0.5-1.5,0.8c0.1,0.2,0.3,0.5,0.7,0.9c0.7,0.7,1.4,1,2.5,1.3v0.1C280.4,92.9,280.2,93.3,280,93.5L280,93.5z
						 M278.9,84.4h-3.5v1.6h3.5V84.4z M278.9,86.3h-3.5v1.5h3.5V86.3z"/>
				</g>
			</g>
			<g>
				<path d="M311.2,51.4l1,2.8l-0.4,0.2c-0.5-0.9-1.4-2.5-3-2.5c-0.7,0-1,0.4-1,1v7.7c0,0.6,0.4,1,1.1,1h0.7v0.5h-4.7v-0.5h0.7
					c0.6,0,1-0.3,1-1v-7.7c0-0.7-0.4-1-1-1c-1.6,0-2.5,1.6-3,2.5l-0.4-0.2l1-2.8H311.2L311.2,51.4z"/>
				<path d="M318.4,51.8H318c-0.6,0-1,0.3-1,1v8.4c0,1.9-1.2,3.2-2.9,3.2c-0.8,0-1.4-0.3-1.4-1.1c0-0.3,0.2-0.9,0.8-0.9
					c0.4,0,0.6,0.1,0.9,0.8c0.1,0.3,0.3,0.4,0.5,0.4c0.7,0,0.9-0.6,0.9-1.4v-9.4c0-0.7-0.4-1-1-1h-0.6v-0.5h4.3L318.4,51.8
					L318.4,51.8z"/>
				<path d="M330.9,55.4c-0.3,0.1-0.3,0.2-0.5,0.6c-2.4,5.7-6.3,6.4-7.1,6.5l0-0.1c0.9-0.4,5-2.7,6.2-7.4c-0.4,0-4.7,0.4-5.6,0.8
					c-0.1,0-0.4,0.3-0.5,0.3c-0.4,0-1.4-0.9-1.4-1.7c0-0.1,0-0.2,0.1-0.5c0.2,0.4,0.7,1,1.5,1c0.7,0,5.7-0.4,5.9-0.5
					c0.1-0.1,0.5-0.5,0.7-0.5c0.2,0,1.2,0.8,1.2,1.1C331.3,55.2,331.1,55.3,330.9,55.4z M329.1,52.6c-1.1,0.1-3.5,0.3-3.8,0.3
					c-0.7,0.1-0.8,0.1-1,0.1c-0.5,0-1.2-0.7-1.2-1.6c0.6,0.6,1.1,0.7,1.9,0.7c1,0,2.9-0.2,3.5-0.5c0.3-0.1,0.3-0.2,0.5-0.2
					c0.3,0,1.2,0.2,1.2,0.7C330.1,52.4,329.9,52.5,329.1,52.6L329.1,52.6z"/>
				<path d="M344.4,52.1c-0.1,0.1-0.3,0.2-0.6,0.5c-0.1,0.1-1.8,1.9-2.1,2.2c0.2,0.1,0.7,0.4,0.7,0.6c0,0.1-0.1,0.5-0.2,0.5
					c0,0.1,0,1.2,0,1.5c0,0.7,0.1,3.6,0.1,4.2c0,0.3,0,0.9-0.5,0.9c-0.5,0-0.8-0.8-0.8-1.1c0-0.1,0.1-0.7,0.2-0.8
					c0.1-0.8,0.2-1.8,0.2-2.6c0-0.5-0.1-2.1-0.1-2.3c0-0.1-0.1-0.2-0.2-0.3c-0.9,0.9-2.8,2.5-5.2,3.4l-0.1-0.1
					c3.4-2.3,7.3-6.7,7.3-7.3c0-0.4-0.2-0.5-0.7-0.9c0.2,0,0.4-0.1,0.6-0.1c0.9,0,1.8,1,1.8,1.4C344.7,51.9,344.7,51.9,344.4,52.1z"
					/>
				<path d="M361.1,55.5c-0.1,0-1.3-0.2-1.5-0.2c-0.5-0.1-0.9-0.1-1.4-0.1c-0.8,0-1.2,0-1.6,0.1c0,0.2-0.1,2-0.5,3.4
					c-0.4,1.3-1.6,3.5-4,4.2l0-0.1c2.6-1.7,3.4-4.3,3.6-7.4c-0.9,0.1-2.9,0.4-3.5,0.7c-0.3,0.2-0.3,0.2-0.5,0.2
					c-0.3,0-1.5-0.6-1.5-1.7c0-0.2,0-0.3,0-0.5c0.5,0.8,1,0.9,1.5,0.9c0.2,0,0.3,0,1-0.1c0.5,0,2.5-0.2,2.9-0.3c0-0.6,0-2.2-0.1-2.7
					c-0.1-0.4-0.5-0.5-1.2-0.7c0.4-0.3,0.8-0.4,1-0.4c0.6,0,1.6,0.4,1.6,0.9c0,0.1-0.2,0.5-0.2,0.6c0,0.1-0.1,1-0.1,1.5
					c0,0.4,0,0.5,0,0.7c0.3,0,2.5-0.1,2.6-0.1c0.2,0,0.8-0.2,0.9-0.2c0.1,0,1.5,0.2,1.5,0.8C361.7,55.5,361.3,55.5,361.1,55.5
					L361.1,55.5z"/>
				<path d="M375.3,57c-0.1,0-0.5,0-0.5,0c-0.5,0-0.7-0.1-1.7-0.1c-4.5,0-5.8,0.1-6.5,0.3c0,0-0.5,0.1-0.6,0.1
					c-0.4,0-1.2-0.9-1.2-1.6c0-0.1,0-0.4,0.2-0.7c0.5,1.1,1,1.1,2.5,1.1c1,0,5.8,0,6.5-0.2c0.1,0,0.5-0.1,0.6-0.1s1.6,0.2,1.6,0.7
					C376.2,57,375.5,57,375.3,57z"/>
				<path d="M385.3,57.7c-0.6,0-1.2-0.5-1.2-1.2c0-0.7,0.5-1.2,1.2-1.2c0.6,0,1.2,0.5,1.2,1.2C386.5,57.2,386,57.7,385.3,57.7z"/>
				<path d="M393.9,62.3c-0.4,0-0.6-0.3-0.6-0.6c0-0.4,0.3-0.6,0.8-1c0.6-0.5,1-1.1,1.1-1.6h0.1c0,0.2,0,0.4,0,0.6
					C395.2,61.1,394.7,62.3,393.9,62.3z M405,53.9c-0.2,0.1-0.2,0.2-0.3,0.2c0,1.5,0,2.1,0.1,2.6c0,0.1,0,0.7,0,0.8
					c0,0.5-0.4,0.6-0.7,0.6c-0.5,0-0.5-0.3-0.5-0.5v-0.2h-6.8c-0.3,0-1,0-1.7,0.1l-0.3-0.6c0.9,0.1,1.8,0.1,2.2,0.1h6.6v-1.6h-6.6
					c-0.3,0-1,0-1.7,0.1l-0.3-0.6c0.9,0.1,1.8,0.1,2.3,0.1h6.3v-1.5h-8.1c-0.5,0.4-1.1,0.8-2.1,1.3l0-0.1c2-1.9,3.3-3.9,3.6-4.5
					c0.1-0.3,0.2-0.5,0.2-0.8l1.3,0.6c0.1,0,0.2,0.1,0.2,0.3c0,0.1-0.3,0.2-0.5,0.3c-0.1,0.1-0.2,0.3-0.3,0.4h3.3l0.5-0.4
					c0.1-0.1,0.2-0.2,0.2-0.2c0.1,0,0.2,0.1,0.3,0.2l0.7,0.5c0.1,0.1,0.1,0.1,0.1,0.2c0,0.2-0.1,0.2-0.6,0.3c-0.2,0-0.3,0.1-1.5,1
					c-0.2,0.2-0.6,0.4-0.8,0.5h3.2l0.4-0.4c0.1-0.1,0.2-0.2,0.2-0.2c0.1,0,0.2,0.1,0.2,0.1l0.6,0.5c0.1,0.1,0.2,0.1,0.2,0.2
					C405.1,53.7,405.1,53.8,405,53.9z M397.6,51.6c-0.2,0.2-1.4,1.5-1.6,1.8h3.9c0.2-0.2,0.9-1.3,1.1-1.8H397.6z M402.8,62.7
					c-0.5,0.1-3.3,0.1-4.2,0.1c-1.6,0-1.7-0.3-1.7-1.7c0-2.4,0-2.5-0.1-3l1.4,0.4c0.1,0,0.2,0.1,0.2,0.2c0,0.1-0.1,0.1-0.1,0.2
					c0,0-0.3,0.2-0.3,0.3c0,0.2,0,2.2,0,2.4c0,0.3,0.3,0.3,0.7,0.3c0.7,0,3,0,3.3-0.1c0.2-0.1,0.3-0.2,0.4-0.4
					c0.2-0.5,0.4-1.3,0.4-1.7h0.1c0.1,0.5,0.3,1.6,0.6,1.8c0.2,0.2,0.3,0.3,0.3,0.5C403.8,62.1,403.6,62.6,402.8,62.7L402.8,62.7z
					 M400.8,60.3c-0.4,0-0.5-0.2-0.8-1c-0.1-0.2-0.3-0.8-0.8-1.2l0.1-0.1c1.9,0.5,2.1,1.3,2.1,1.5C401.4,59.9,401.2,60.3,400.8,60.3
					L400.8,60.3z M405.9,61.5c-0.4,0-0.5-0.1-0.9-1c-0.3-0.7-0.5-1.1-1-1.6l0,0c0.8,0.1,2.5,1,2.5,2
					C406.5,61.3,406.3,61.5,405.9,61.5z"/>
				<path d="M412.8,53.9c-0.3,0.4-0.6,0.7-1,1.2l0.2,0.1c0.1,0.1,0.2,0.2,0.2,0.2c0,0.1,0,0.1-0.3,0.3c-0.1,1.4-0.1,3.9-0.1,6.6
					c0,0.3,0,0.8-0.7,0.8c-0.5,0-0.5-0.3-0.5-0.5c0-0.2,0.2-3.6,0.2-3.9c0-0.4,0-2.3,0-2.7c-1.2,1.3-2.2,1.8-3.1,2.2v-0.1
					c1.5-1.3,3.1-3.2,4-4.8c0.1-0.2,0.2-0.3,0.4-0.9l1.2,1c0.1,0.1,0.1,0.1,0.1,0.2C413.5,53.8,413.4,53.8,412.8,53.9L412.8,53.9z
					 M412.4,51.1c-1.3,1.4-2.3,2.1-4.3,2.9l0-0.1c1-0.7,2.5-2.1,3.3-3.4c0.2-0.3,0.3-0.6,0.4-0.9l1.1,1c0.1,0.1,0.1,0.1,0.1,0.2
					C413,51,412.8,51.1,412.4,51.1L412.4,51.1z M421.1,55.1h-2.8c0,0.2,0,0.5,0,0.9c0,0.8,0.1,4.8,0.1,5.7c0,1.4-1.4,1.5-1.6,1.5
					c0-0.3-0.1-0.8-1.4-1.5v-0.1c0.4,0,0.9,0,1.3,0c0.5,0,0.7-0.3,0.7-0.8c0-0.9,0-5.4-0.1-5.7H415c-0.1,0-1,0-1.7,0.1l-0.3-0.6
					c0.4,0,1.2,0.1,2.3,0.1h3.9l0.6-0.8c0.1-0.1,0.2-0.2,0.2-0.2c0.1,0,0.2,0.1,0.3,0.2l0.9,0.8c0.1,0.1,0.1,0.1,0.1,0.2
					C421.4,55.1,421.2,55.1,421.1,55.1L421.1,55.1z M420.3,51.4h-4.4c-0.4,0-1.1,0-1.7,0.1l-0.3-0.6c1,0.1,2.1,0.1,2.3,0.1h2.4
					l0.5-0.7c0.1-0.1,0.2-0.2,0.2-0.2c0.1,0,0.2,0.1,0.3,0.2l0.8,0.7c0.1,0.1,0.1,0.1,0.1,0.2C420.5,51.4,420.4,51.4,420.3,51.4z"/>
				<path d="M435.4,56c-2.9-1.2-4.9-3.4-5.7-5.2h-0.1c-1.8,2.8-5,5.6-7.2,6.1l-0.1-0.1c2.5-1.8,4.3-3.5,6-6.4
					c0.3-0.5,0.4-0.7,0.4-0.9l1.4,0.7c0.1,0,0.1,0.1,0.1,0.2c0,0.1-0.1,0.2-0.3,0.3c1.4,2,4.2,3.7,6.7,3.9v0.1
					C436.5,54.9,435.8,55.3,435.4,56L435.4,56z M435.5,62.5h-10c-0.1,0-1.1,0-1.7,0.1l-0.3-0.6c1,0.1,2.1,0.1,2.3,0.1h3.2v-2.8h-2.1
					c-0.4,0-1.1,0-1.7,0.1l-0.3-0.6c0.9,0.1,1.8,0.1,2.3,0.1h1.9v-2.6h-1.3c-0.4,0-1.1,0-1.7,0.1l-0.3-0.6c1,0.1,2,0.1,2.2,0.1h3.7
					l0.6-0.7c0.1-0.1,0.1-0.2,0.2-0.2c0.1,0,0.1,0,0.3,0.1l1,0.7c0,0,0.1,0.1,0.1,0.2c0,0.1-0.1,0.2-0.2,0.2h-3.5v2.6h2.2l0.5-0.7
					c0.1-0.1,0.1-0.2,0.2-0.2c0.1,0,0.1,0,0.3,0.1l0.9,0.7c0.1,0.1,0.1,0.1,0.1,0.2c0,0.1-0.1,0.2-0.2,0.2h-4v2.8h3.6l0.7-0.8
					c0,0,0.1-0.1,0.2-0.1c0.1,0,0.1,0.1,0.3,0.2l0.9,0.7c0.1,0.1,0.1,0.1,0.1,0.2C435.7,62.5,435.5,62.5,435.5,62.5L435.5,62.5z"/>
				<path d="M449.2,52.6c-2,0-2.2,0-2.9,0.2c-1.7,0.6-3.3,2.7-3.3,4.8c0,2.5,2.7,3,3.7,3.2c0.5,0.1,1,0.3,1,0.9
					c0,0.4-0.5,0.4-0.6,0.4c-0.9,0-4.9-0.8-4.9-4.3c0-2.3,1.5-3.8,3.2-5.2c-0.9,0-3.8,1-5.3,1.7c-0.6,0.3-0.6,0.3-0.8,0.3
					c-0.3,0-1.1-0.5-1.1-1.3c0-0.4,0.1-0.6,0.2-0.8c0.2,0.5,0.5,0.8,1.1,0.8c0.2,0,0.5-0.1,0.6-0.1c3.3-0.8,3.7-0.9,5.1-1.2
					c0.9-0.2,1.9-0.4,2.5-0.6c0.1,0,0.4-0.1,0.6-0.1c0.9,0,1.2,0.7,1.2,0.8C449.8,52.6,449.4,52.6,449.2,52.6L449.2,52.6z"/>
				<path d="M458.9,61.7l0-0.1c3.1-1.1,4.6-3.2,4.6-5.4c0-2.5-2-3.9-4.5-3.9c-0.4,0-0.4,0-0.6,0.1c0.8,0.4,1,1,1,1.2
					c0,0.2,0,0.3-0.5,1.2c-0.9,2-2.3,5-3.3,5.8c-0.1,0.1-0.3,0.2-0.5,0.2c-0.3,0-0.5-0.2-0.9-0.8c-0.1-0.1-0.7-0.7-0.8-0.8
					c-0.2-0.2-0.4-0.8-0.4-1.5c0-3.2,2.7-5.8,6.3-5.8c2.8,0,5.4,1.7,5.4,4.6C464.6,59.3,462.2,61.5,458.9,61.7L458.9,61.7z
					 M457.7,52.4c-1.6,0.3-3.9,2.3-3.9,5c0,1,0.6,2.1,1.1,2.1c0.4,0,1-1,1.2-1.5c1.5-2.9,2-3.9,2-4.7C458.1,53,458,52.7,457.7,52.4
					L457.7,52.4z"/>
				<path d="M470.7,51.2c-0.5,1.2-0.9,1.9-1.1,2.3l0.3,0.1c0.2,0.1,0.2,0.2,0.2,0.2c0,0.1,0,0.1-0.3,0.5c0,0.5,0,1.2,0,2.9
					c0,1.5,0.1,3.8,0.1,5.2c0,0.3,0,0.8-0.7,0.8c-0.3,0-0.5-0.2-0.5-0.5c0-0.6,0.1-3.1,0.2-3.6c0-0.7,0-1.6,0.1-4.5
					c-0.5,0.7-1.2,1.9-2.3,2.8l-0.1-0.1c1.2-1.9,2.8-5.5,3.1-6.6c0.1-0.3,0.1-0.4,0.2-0.9l1.2,0.7c0.1,0.1,0.2,0.1,0.2,0.2
					C471.3,50.9,471.2,50.9,470.7,51.2L470.7,51.2z M479.9,57.4h-0.7c-0.2,0.1-0.9,0.6-1.1,0.7l-0.1,0c0.1-0.3,0.2-0.9,0.3-1h-6.5
					c0,0.4-0.1,1.5-0.9,1.5c-0.4,0-0.6-0.3-0.6-0.5c0-0.3,0.1-0.3,0.6-0.9c0.3-0.3,0.4-0.7,0.5-1h0.1c0.1,0.2,0.2,0.3,0.2,0.6h6.4
					l0.6-0.5c0.1-0.1,0.2-0.2,0.3-0.2c0.1,0,0.2,0.1,0.3,0.1l0.8,0.7c0.1,0.1,0.1,0.1,0.1,0.3C480.2,57.4,480,57.4,479.9,57.4z
					 M479.7,52.3h-7c-0.4,0-1.1,0-1.7,0.1l-0.3-0.6c1,0.1,2,0.1,2.2,0.1h1.5c0-0.9-0.1-1.4-0.2-2.1l1.3,0.2c0.1,0,0.2,0.1,0.2,0.3
					c0,0.1-0.1,0.2-0.4,0.4v1.1h2.4l0.7-0.7c0.1-0.1,0.2-0.2,0.2-0.2c0.1,0,0.1,0.1,0.3,0.2l0.8,0.7c0.1,0.1,0.1,0.1,0.1,0.2
					C479.9,52.3,479.8,52.3,479.7,52.3L479.7,52.3z M478.4,59h-2.8c0,0.4,0,2,0,2.4c0,0.9-0.2,1.1-0.4,1.2c-0.5,0.5-1.2,0.5-1.4,0.6
					c-0.1-0.7-0.6-1.1-1.3-1.4v-0.1c0.3,0,0.6,0,1.3,0c0.6,0,0.7,0,0.7-0.3c0-0.4,0-2.1,0-2.5h-1.2c-0.4,0-1.1,0-1.7,0.1l-0.3-0.6
					c0.9,0.1,1.8,0.1,2.2,0.1h3.1l0.4-0.5c0.1-0.1,0.2-0.2,0.2-0.2c0.1,0,0.1,0,0.3,0.1l0.8,0.5c0.1,0.1,0.2,0.1,0.2,0.2
					C478.6,59,478.5,59,478.4,59L478.4,59z M478,53.8c0,0-0.2,0.2-0.3,0.3c0,0.2,0,1.3,0,1.5C477.5,56,477,56,477,56
					c-0.2,0-0.3-0.1-0.3-0.4c0-0.1,0-0.1,0-0.2h-3.4c0,0.3-0.1,0.6-0.6,0.6c-0.4,0-0.4-0.2-0.4-0.4c0-0.3,0-1.8,0-2.1
					c0-0.4,0-0.5-0.1-0.7l1.1,0.5h3.1l0.3-0.3c0.1-0.1,0.2-0.2,0.2-0.2c0.1,0,0.2,0.1,0.2,0.1l0.5,0.4c0.1,0,0.2,0.1,0.2,0.2
					C478.1,53.7,478,53.7,478,53.8L478,53.8z M476.7,53.7h-3.4v1.4h3.4C476.7,55.1,476.7,53.7,476.7,53.7z"/>
				<path d="M494.6,60.3h-6c0,0.5,0,1.9,0,2.4c0,0.3-0.3,0.6-0.7,0.6c-0.4,0-0.5-0.2-0.5-0.5c0-0.2,0-1,0-1.2c0-0.7,0-0.8,0-1.4
					h-3.9c-0.4,0-1.1,0-1.7,0.1l-0.3-0.6c0.9,0.1,1.8,0.1,2.2,0.1h3.7l0-1.7h-2.7c0,0.3,0,0.4-0.1,0.5c-0.2,0.2-0.4,0.3-0.7,0.3
					c-0.3,0-0.4-0.1-0.4-0.4c0-0.2,0.1-0.8,0.1-1c0-0.7,0-1.4,0-2.1c0-1.8,0-2.1-0.2-2.7l1.4,0.7h2.6c0-0.2,0-1.3,0-1.6H484
					c-0.4,0-1.1,0-1.7,0.1l-0.3-0.6c1,0.1,2.1,0.1,2.2,0.1h3.2c0-0.9,0-1-0.3-1.8l1.5,0.3c0.1,0,0.3,0.1,0.3,0.2
					c0,0.1,0,0.1-0.1,0.2c-0.1,0.1-0.2,0.2-0.3,0.3c0,0.1,0,0.6,0,0.8h3.7l0.6-0.7c0.1-0.1,0.1-0.2,0.2-0.2s0.2,0.1,0.3,0.1l0.9,0.7
					c0.1,0.1,0.1,0.1,0.1,0.2c0,0.1-0.1,0.1-0.2,0.1h-5.6l0,1.6h2.5l0.4-0.4c0.2-0.1,0.2-0.2,0.3-0.2s0.2,0.1,0.3,0.2l0.6,0.5
					c0.1,0.1,0.2,0.1,0.2,0.2c0,0.1-0.1,0.2-0.5,0.5c0,0.3,0,0.6,0,1.1c0,0.4,0.1,2.3,0.1,2.7c0,0.5-0.4,0.7-0.7,0.7
					c-0.4,0-0.4-0.2-0.4-0.5h-2.7l0,1.7h4.1l0.6-0.8c0.1-0.1,0.2-0.2,0.2-0.2c0.1,0,0.2,0.1,0.3,0.1l0.9,0.8
					c0.1,0.1,0.1,0.2,0.1,0.2C494.8,60.3,494.7,60.3,494.6,60.3L494.6,60.3z M487.5,53.9h-2.8v1.8h2.8V53.9z M484.7,56l0,1.9h2.7
					l0-1.9H484.7L484.7,56z M491.2,53.9h-2.8v1.8h2.8V53.9z M491.2,56h-2.8l0,1.9h2.7L491.2,56L491.2,56z"/>
				<path d="M496.6,62c-0.3,0-0.5-0.2-0.5-0.5c0-0.3,0.5-1.4,0.6-1.7c0.1-0.2,0-0.5,0-0.6l0.1,0c0.2,0.4,0.5,1,0.5,1.7
					C497.4,61.3,497.3,62,496.6,62z M502,57.7c-0.2,2.3-0.7,3.5-0.9,4.1c-0.3,0.7-0.9,1-1.6,1.2c-0.2-0.9-0.9-1.3-1.2-1.5l0-0.1
					c0.8,0.2,1.4,0.2,1.4,0.2c0.3,0,0.4,0,0.6-0.4c0.4-1,0.6-2.9,0.6-3.8h-3.3c0,0.2,0,0.7-0.6,0.7c-0.3,0-0.4-0.1-0.4-0.4
					c0-0.1,0-0.4,0-0.5c0.1-0.9,0.1-3.5,0.1-4.5c0-0.5,0-1.6-0.1-2.4l1.1,0.5h2.7l0.4-0.4c0.1-0.1,0.2-0.2,0.2-0.2
					c0.1,0,0.2,0.1,0.3,0.2l0.6,0.4c0.1,0.1,0.2,0.2,0.2,0.2c0,0.1-0.1,0.1-0.2,0.1h-2v1.7h0.6l0.3-0.4c0.1-0.1,0.2-0.2,0.2-0.2
					c0.1,0,0.2,0.1,0.3,0.2l0.5,0.4c0.1,0.1,0.2,0.1,0.2,0.2c0,0.1-0.1,0.2-0.2,0.2h-1.8v1.7h0.6l0.4-0.4c0.1-0.1,0.2-0.2,0.2-0.2
					c0.1,0,0.1,0,0.3,0.1l0.4,0.4c0.1,0.1,0.1,0.2,0.1,0.2c0,0.1-0.1,0.1-0.2,0.1h-1.8V57h1l0.4-0.4c0.1-0.1,0.2-0.2,0.2-0.2
					c0.1,0,0.2,0.1,0.3,0.2l0.6,0.5c0.1,0.1,0.1,0.1,0.1,0.2C502.5,57.5,502.1,57.7,502,57.7L502,57.7z M498.3,61.4
					c-0.5,0-0.5-0.6-0.5-0.9c0-0.9,0-1.2-0.2-1.6l0.1,0c0.1,0.1,0.6,0.6,0.7,0.8c0.4,0.5,0.4,0.9,0.4,1.1
					C498.9,61.1,498.5,61.4,498.3,61.4L498.3,61.4z M499,51.2h-1.3v1.7h1.3V51.2z M499,53.2h-1.3v1.7h1.3V53.2z M499,55.3h-1.3V57
					h1.3V55.3z M499.5,60.4c-0.4,0-0.4-0.2-0.5-1.1c0-0.3-0.1-0.7-0.3-1.1l0.1,0c0.8,0.7,1.2,1.1,1.2,1.6
					C500,60.1,499.8,60.4,499.5,60.4L499.5,60.4z M500.4,59.3c-0.3,0-0.4-0.2-0.5-0.8c-0.1-0.4-0.2-0.5-0.3-0.7l0.1-0.1
					c0.7,0.3,1.1,0.6,1.1,1.1C500.7,59.1,500.6,59.3,500.4,59.3z M510.1,62c-0.7,0-1.2,0.7-1.4,0.9c-1.6-1.3-2.9-3.9-2.9-7.3h-1.6
					c-0.1,3.6-0.9,5.8-3,7.4l-0.1-0.1c2.1-2.2,2.1-6.3,2.1-9.4c0-1.8-0.1-2.3-0.2-3.1l1.4,0.6h3l0.4-0.4c0.1-0.1,0.2-0.1,0.2-0.1
					s0.1,0,0.2,0.1l0.6,0.5c0.1,0.1,0.1,0.1,0.1,0.2c0,0.1-0.3,0.3-0.5,0.4c0,0.2,0,0.5,0,0.9c0,0.5,0.1,2.5,0.1,3
					c0,0.5-0.5,0.6-0.7,0.6c-0.5,0-0.4-0.3-0.4-0.7h-1.5C506.4,58.8,508.5,61.3,510.1,62L510.1,62L510.1,62z M507.6,51.4h-3.3
					c0,0.6-0.1,3.3-0.1,3.9h3.3V51.4L507.6,51.4z"/>
			</g>
		</g>
		<g>
			<path d="M245.1,9.2l0.5-0.4c0.1-0.1,0.2-0.2,0.4-0.2c0.1,0,0.2,0,0.4,0.2l0.8,0.8c0.2,0.2,0.3,0.3,0.3,0.4c0,0.3-0.4,0.4-1,0.7
				c-0.2,0.4-2,3.1-2.7,4.1c0.9,0.7,2.8,2.3,2.8,4.4c0,2.1-1.8,2.7-2.4,2.9c-0.2-0.8-0.6-1.5-1.3-1.9v-0.1c0.3,0,0.7,0.1,1.2,0.1
				c0.8,0,1.1-0.2,1.1-1.1c0-1.4-0.7-3.2-1.9-4.1c1.1-2.7,1.3-3,1.7-5h-2.5c0,0.9,0,8.5,0,10.1c0,0.7,0.1,3.9,0.1,5
				c0,0.6,0,1.3-0.9,1.3c-0.6,0-0.6-0.3-0.6-0.5c0-1.6,0.1-4.2,0.1-5.9c0-0.6,0-5.3,0-5.6c0-1.5,0-4.5-0.1-5.7l1.7,0.8L245.1,9.2
				L245.1,9.2z M249.4,19.3c-0.5,0.6-2.4,3-4.7,4l0-0.1c0.9-0.8,3-2.6,4.6-6.4h-0.4c-0.5,0-1.5,0-2.4,0.2l-0.4-0.8
				c1.1,0.1,2.1,0.1,3.2,0.1h6.7l0.7-0.9c0.1-0.1,0.2-0.2,0.3-0.2c0.1,0,0.3,0.1,0.4,0.2l0.9,0.8c0.1,0.1,0.2,0.2,0.2,0.3
				c0,0.2-0.2,0.2-0.3,0.2H251c-0.5,0.9-0.8,1.4-1.2,2h5.5l0.5-0.5c0.1-0.1,0.2-0.3,0.3-0.3c0.2,0,0.3,0.1,0.4,0.2l0.9,0.7
				c0,0,0.2,0.1,0.2,0.3c0,0.3-0.4,0.5-0.7,0.7c-0.1,0.6-0.3,2.9-0.4,3.4c-0.4,2-1.2,2.8-3.2,3.1c-0.2-1-0.6-1.5-1.3-2.1l0.1-0.1
				c1,0.3,1.6,0.3,1.9,0.3c0.4,0,0.8,0,1.1-0.8c0.2-0.9,0.3-1.2,0.5-4.4h-1.1c-0.6,2.4-2.6,5.9-6.6,7.3l-0.1-0.1
				c2.8-1.8,4.4-4.6,5.1-7.2h-1.1c-1.4,3.4-3.5,5.2-6.4,6.5l0-0.1c2.8-2,4.4-4.8,5-6.4H249.4L249.4,19.3z M253.5,9.1l0.4-0.4
				c0.1-0.1,0.2-0.2,0.3-0.2c0.1,0,0.2,0.1,0.3,0.1l0.8,0.6c0.2,0.2,0.2,0.2,0.2,0.3c0,0.2-0.1,0.3-0.6,0.6c0,1.2,0.1,3.1,0.1,4.3
				c0,0.9-0.8,0.9-0.9,0.9c-0.5,0-0.5-0.3-0.5-0.8h-3.8c0,0.4-0.1,0.9-0.9,0.9c-0.5,0-0.5-0.3-0.5-0.5c0-0.6,0-3.1,0-3.7
				c0-0.9,0-1.6-0.1-2.9l1.6,0.8L253.5,9.1L253.5,9.1z M249.9,9.6v1.9h3.8V9.6C253.6,9.6,249.9,9.6,249.9,9.6z M249.9,12v2h3.8v-2
				H249.9z"/>
			<path d="M264.6,17.3c-0.4,0-1.4,0-2.4,0.2l-0.4-0.8c1.3,0.1,2.5,0.1,3.2,0.1h4.3c0-6.3,0-7.4-0.6-8.9l2.3,0.5
				c0.3,0.1,0.4,0.1,0.4,0.3c0,0.2-0.4,0.5-0.7,0.7c0,0.7,0,2.3,0,3.5v3.9h4.6l0.6-0.8c0.1-0.1,0.2-0.3,0.3-0.3s0.2,0.1,0.4,0.2
				l1,0.7c0.1,0.1,0.2,0.2,0.2,0.3c0,0.2-0.1,0.2-0.7,0.7c0,0.9,0,5,0.1,5.8c0,0.3,0.1,1.7,0.1,2c0,0.3,0,0.6-0.3,0.8
				c-0.3,0.3-0.7,0.4-0.8,0.4c-0.6,0-0.6-0.4-0.6-1.3h-10.9c-0.4,0-1.4,0-2.4,0.2l-0.4-0.8c1.3,0.1,2.5,0.1,3.2,0.1h10.6v-3.6h-9.9
				c-0.5,0-1.5,0-2.4,0.2l-0.4-0.8c1.3,0.1,2.6,0.1,3.2,0.1h9.6v-3.5H264.6L264.6,17.3z M263.2,10.3c1.5,0.4,3.8,2.5,3.8,4.1
				c0,0.6-0.3,1-0.8,1c-0.6,0-0.8-0.4-1.2-1.4C264.1,11.6,263.5,10.8,263.2,10.3C263.1,10.4,263.2,10.3,263.2,10.3z M277.1,10.6
				c0.1,0.1,0.2,0.2,0.2,0.3c0,0.3-0.4,0.4-0.9,0.5c-1.3,1.8-2.4,3-4.6,4.7l-0.1-0.1c1.6-1.7,3.1-5.3,3.2-5.6
				c0.2-0.6,0.2-0.8,0.2-1.2L277.1,10.6z"/>
			<path d="M291.7,12.9c-1.7,0.7-3.2,1.2-3.4,1.2c-1.2,3.3-2.4,6.7-3.9,9.9c-0.5,1-0.6,1.2-1.1,1.2c-0.5,0-0.7-0.6-0.7-1
				c0-0.4,0-0.4,0.8-1.7c1.5-2.5,3.2-6.8,3.5-7.9c0.1-0.2,0.1-0.2,0.1-0.3c-0.9,0.2-1.8,0.3-2.6,0.3c-1.1,0-1.9-0.7-2.1-1.4
				c0.4,0.1,1,0.3,2,0.3c1.3,0,2.4-0.3,3.1-0.5c0.6-2,0.7-2.5,0.7-2.9c0-0.8-1.1-1.2-1.3-1.3c0.2-0.2,0.4-0.3,0.9-0.3
				c1.2,0,2.2,1,2.2,1.6c0,0.2-0.1,0.4-0.4,0.8c-0.2,0.4-0.4,0.6-0.8,1.6c0.6-0.2,1.1-0.5,1.5-0.7c0.7-0.4,0.8-0.5,1.2-0.5
				c0.5,0,0.8,0.4,0.8,0.7C292.3,12.4,292.3,12.6,291.7,12.9z M295.7,25.3c-2.4,0-6.1-0.3-6.1-3c0-0.2,0-0.9,0.5-1.6
				c0,2.6,1.5,3.1,4.3,3.1c1,0,1.4-0.1,2-0.2s0.7-0.1,0.8-0.1c0.7,0,1.1,0.6,1.1,1C298.4,25.3,296.5,25.3,295.7,25.3L295.7,25.3z
				 M298,16.4c-0.2,0-0.9-0.1-1.1-0.1c-0.9,0-2.5,0.7-3.1,1l-0.1-0.1c0.2-0.2,1-0.8,1.2-0.9c0.6-0.5,0.7-0.6,0.7-0.8
				c0-0.6-2-0.6-2.3-0.6c-0.5,0-0.8,0-1.2,0c1-0.8,2.2-0.9,3-0.9c2.3,0,3.4,1.1,3.4,1.8C298.5,16.1,298.4,16.4,298,16.4z"/>
			<path d="M312.3,25.1c-0.7,0.6-2,1.6-2.9,1.8l0-0.1c3.6-2.6,4.6-6.6,4.6-10.3c0-1.4-0.1-5.1-1.6-5.1c-0.8,0-1.4,0.8-1.6,1.1
				c-0.8,1.2-2.2,4.4-2.2,6.8c0,0.2,0.1,1.3,0.1,1.5c0,0.2-0.1,0.6-0.5,0.6c-1.2,0-1.6-2.4-1.6-4.3c0-1.6,0.4-4.3,0.7-6
				c0-0.1,0.1-0.5,0.1-0.8c0-1.1-0.8-1.6-1.2-1.9c0.2,0,0.5-0.1,0.9-0.1c0.9,0,1.8,0.8,1.8,1.5c0,0.3-0.1,0.6-0.2,0.9
				c-0.6,1.5-1.2,3.6-1.2,5.5c0,0.3,0,1.5,0.2,1.5c0.1,0,0.2-0.1,0.2-0.2c0.5-1.7,2.2-7,4.7-7c2.6,0,2.8,4,2.8,6.1
				C315.5,20.5,314.6,23,312.3,25.1L312.3,25.1z"/>
			<path d="M328,18.7v5.5c2-0.2,3.7-0.5,5.6-0.9l0,0.1c-2.6,1.2-6.4,2.2-8.8,2.6c-0.1,0.3-0.2,0.5-0.4,0.5c-0.1,0-0.2-0.1-0.3-0.4
				l-0.9-1.9c0.3,0.1,0.7,0.2,1.3,0.2c0.5,0,1.9-0.1,2.1-0.1c0-2,0.1-7.5,0.1-9c0-3.3-0.1-3.7-0.4-5.3l2,1.1h2.7
				c0-1.9-0.1-2.4-0.4-3.5l2.2,0.6c0.1,0,0.4,0.1,0.4,0.3c0,0.2-0.2,0.4-0.7,0.6c0,0.6,0,1.8,0,1.9h2.9l0.6-0.6
				c0.1-0.1,0.2-0.2,0.3-0.2c0.1,0,0.2,0.1,0.3,0.2l1,0.8c0.1,0.1,0.2,0.2,0.2,0.3c0,0.2-0.2,0.4-0.8,0.6c-0.1,1.7,0.1,4.4,0.1,6.1
				c0,0.9-0.9,1-1,1c-0.6,0-0.6-0.4-0.6-0.6h-4c0.2,0.6,0.8,1.7,2.2,2.9c1.5-0.8,3.1-2,3.5-2.4c0.4-0.3,0.4-0.6,0.5-0.8l1.5,1.4
				c0.1,0.1,0.2,0.2,0.2,0.4c0,0.3-0.3,0.3-0.9,0.2c-1.4,0.6-3.8,1.2-4.6,1.4c2.1,1.8,4.8,2.6,7.6,2.7l0,0.1
				c-1.3,0.7-1.6,1.5-1.8,1.9c-4.4-1.5-7.6-4-8.6-7.9L328,18.7L328,18.7z M328,11.7v3h7.4v-3H328z M335.4,18.2v-3H328v3H335.4z"/>
			<path d="M350.6,24.7c-0.4,0-0.6-0.3-0.9-0.8c-0.4-0.7-0.9-1.4-1.4-1.9c-1.1,1.8-2.6,3.4-4.6,4.3l0-0.2c2.1-1.8,3.3-4.2,3.6-5.1
				c-0.3-0.2-0.8-0.6-2-1.1c-0.2,0.8-0.2,1.3-1.1,1.3c-0.5,0-0.7-0.2-0.7-0.4c0-0.1,0.4-1.7,0.5-1.9c0.2-1,0.3-1.5,1.2-5.8
				c-0.2,0-1.1,0-2,0.2l-0.4-0.8c0.7,0.1,1.4,0.1,2.5,0.1c0.4-2,0.5-3.3,0.5-3.9c0-0.4,0-0.7-0.1-1l1.9,0.6c0.2,0.1,0.4,0.1,0.4,0.3
				c0,0.2-0.1,0.3-0.7,0.6c-0.1,0.5-0.6,2.9-0.7,3.3h1.9l0.5-0.5c0.1-0.1,0.3-0.3,0.4-0.3c0.1,0,0.2,0.1,0.3,0.2l0.8,0.7
				c0.1,0.1,0.2,0.2,0.2,0.3c0,0.2-0.1,0.3-0.7,0.7c-0.2,3.4-1.1,6.2-1.5,7.1c0.4,0.2,2.5,1.4,2.5,2.9
				C351.3,24.7,350.7,24.7,350.6,24.7L350.6,24.7z M346.7,13.2c-0.4,1.5-0.9,4.4-1.3,6.6c1.1,0.2,1.8,0.4,2.2,0.6
				c0.6-1.6,1.3-4.8,1.2-7.2C348.8,13.2,346.7,13.2,346.7,13.2z M361.7,17.5h-4.9c0,1.1,0.1,5.8,0.1,6.8c0,1.3-0.2,2-2.2,2.5
				c0-0.4-0.2-1.4-2.1-2.2l0.1-0.1c0.3,0,2,0.2,2.2,0.2c0.4,0,0.5-0.1,0.6-0.7c0-0.4,0-1.3,0-6.4h-2.2c-0.5,0-1.5,0-2.4,0.2
				l-0.4-0.8c1.4,0.1,2.9,0.1,3.2,0.1h1.9c0-1.2,0-3.7-0.4-4.7l0.9,0.2c0.2-0.2,1.3-1.9,1.8-3H354c-0.3,0-1.4,0-2.4,0.2l-0.4-0.8
				C352.5,9,354,9,354.3,9h3.5l0.5-0.5c0.2-0.2,0.3-0.3,0.4-0.3c0.1,0,0.3,0.1,0.5,0.2l1.3,0.8c0.1,0.1,0.2,0.2,0.2,0.4
				c0,0.3-0.2,0.4-1.1,0.4c-0.7,0.6-1,0.8-3.2,2.5l0.7,0.2c0.3,0.1,0.4,0.2,0.4,0.3c0,0.2-0.3,0.4-0.5,0.6c0,0.4,0,0.5,0,0.8
				c0,0.4,0,2.2,0,2.5h2.2l0.9-1.1c0.1-0.1,0.2-0.3,0.3-0.3c0.1,0,0.2,0.1,0.4,0.2l1.2,1.1c0.1,0.1,0.2,0.2,0.2,0.3
				C362,17.5,361.9,17.5,361.7,17.5z"/>
			<path d="M375.1,12.3c-0.3,0.2-1.9,0.6-4.3,1.2c-0.5,1.1-2.8,5.9-3.3,6.8c-0.5,0.8-0.9,1.6-1.3,1.6c-0.1,0-0.6-0.1-0.6-0.8
				c0-0.6,0.3-0.9,0.5-1.2c1.5-2,2.8-4.7,3.4-6c-0.5,0.1-1.1,0.3-1.9,0.3c-1.2,0-2.2-0.6-2.1-1.9c0.5,0.7,1.2,0.8,2,0.8
				c0.7,0,1.6-0.1,2.4-0.3c0.5-1.2,0.9-2.2,0.9-2.6c0-0.2-0.1-0.7-1.2-1c0.3-0.3,0.6-0.4,1-0.4c0.8,0,2.1,0.9,2.1,1.4
				c0,0.1-0.2,0.5-0.5,0.9c-0.3,0.4-0.5,0.7-0.8,1.3c0.4-0.1,1.1-0.4,1.5-0.6c0.9-0.4,1-0.5,1.3-0.5c0.3,0,1.2,0.3,1.2,0.7
				C375.5,12.1,375.3,12.2,375.1,12.3L375.1,12.3z M380.3,17.4c-0.1,0-0.4,0-0.7-0.2c-0.7-0.4-0.9-0.5-1.8-0.5
				c-2.2,0-2.5,1.2-2.5,2.1c0,1.2,0.2,2.4,0.4,3c1.7,0.4,3.9,1.2,3.9,2.6c0,0.3-0.2,0.7-0.6,0.7c-0.2,0-1.1-0.6-1.6-0.9
				c-0.8-0.6-1.2-0.7-1.6-0.9c0,0.4-0.1,1.3-0.8,2c-0.8,0.8-2,0.9-2.5,0.9c-1.7,0-3.2-0.9-3.2-2.2c0-1.5,1.9-2.3,3.9-2.3
				c0.5,0,0.8,0,1.1,0.1c-0.1-0.7-0.1-1.7-0.1-2.2c0-2.3,2.2-3.2,3.6-3.4c0.2,0,0.4-0.1,0.4-0.3c0-0.3-0.7-1-2.8-1.6
				c0.3-0.1,0.7-0.2,1.3-0.2c2.6,0,4.2,1.9,4.2,2.9C380.8,17.2,380.6,17.4,380.3,17.4L380.3,17.4z M372.9,22.6
				c-0.8,0-2.7,0.2-2.7,1.3c0,0.9,1.3,1.1,2,1.1c0.7,0,2.3-0.2,2.2-2.2C374,22.7,373.7,22.6,372.9,22.6z"/>
			<path d="M396.7,18.2c0.9,0.8,1.4,1.8,1.4,3.1c0,2.5-2.1,4.4-4.8,4.4c-2.2,0-4.1-1.3-4.1-2.9c0-0.9,0.6-1.3,1.2-1.3
				c0.7,0,1,0.6,1,1c0,0.3-0.1,0.5-0.1,0.7c0,0.1-0.1,0.3-0.1,0.5c0,0.8,0.9,1.4,1.9,1.4c1.6,0,3.2-1.6,3.2-3.7
				c0-2.1-1.6-3.8-3.2-3.8c-0.1,0-0.7,0.1-0.8,0.1c-0.3,0-0.5-0.2-0.5-0.4c0-0.3,0.2-0.5,0.5-0.5c0.1,0,0.7,0.1,0.9,0.1
				c1.7,0,2.8-1.5,2.8-3.2c0-1.6-1-3.1-2.6-3.1c-1.1,0-1.7,0.8-1.7,1.4c0,0.1,0,0.2,0.1,0.3c0,0.1,0.1,0.4,0.1,0.5
				c0,0.6-0.5,1.1-1.1,1.1c-0.7,0-1-0.6-1-1.1c0-1.1,1.3-2.9,4-2.9c2.5,0,4.1,1.7,4.1,3.5c0,0.7-0.3,1.4-0.8,2.1
				c-0.8,1.1-1.8,1.5-2.6,1.8C395.3,17.4,396,17.6,396.7,18.2z"/>
			<path d="M403,16.1c0.4-0.3,1.1-0.5,1.8-0.5c2,0,3.7,2.1,3.7,4.6c0,2.9-2,5.4-4.4,5.4c-2.4,0-4.7-2.7-4.7-7.1
				c0-4.8,2.7-8.7,5.8-8.7c1.4,0,2.4,0.8,2.4,1.8c0,0.7-0.6,1.1-1.1,1.1c-0.4,0-1.1-0.3-1.1-1.4c0-0.5-0.1-0.7-0.6-0.7
				s-1.1,0.3-1.5,0.7c-1.8,2-1.9,5.1-2,6.9C401.6,17.5,402.1,16.7,403,16.1z M402.4,23.8c0.4,0.6,0.9,1.1,1.7,1.1
				c1.1,0,2.6-1.1,2.6-4.5c0-0.9-0.2-3.8-2.4-3.8c-0.8,0-2.1,0.6-3.1,2.8C401.3,20.5,401.5,22.5,402.4,23.8z"/>
			<path d="M419.7,21.8c-1.6,0.6-2.4,0.9-3.1,1.2c-0.1,0.3-0.2,0.7-0.5,0.7c-0.1,0-0.2-0.1-0.4-0.3l-1-1.9c0.3,0,0.4,0.1,0.7,0.1
				c0.6,0,1.1-0.1,2.4-0.4V14c-0.6,0-1.5,0-2.5,0.2l-0.4-0.8c1,0.1,1.7,0.1,2.9,0.1c0-4.1-0.2-4.7-0.4-5.5l2,0.6
				c0.3,0.1,0.4,0.2,0.4,0.4s0,0.2-0.6,0.6c0,0.6,0,3.3,0,3.9h0.5l0.7-1c0.1-0.1,0.2-0.2,0.3-0.2c0.1,0,0.2,0.1,0.4,0.2l0.9,1
				c0.1,0.1,0.2,0.2,0.2,0.3c0,0.2-0.2,0.2-0.3,0.2h-2.7c0,0.2,0,6.5,0,6.9c0.6-0.1,3.4-0.7,3.9-0.8v0.1
				C422.1,20.8,420.3,21.6,419.7,21.8L419.7,21.8z M433.8,19.1h-5.6c0,2.6,0,2.8,0.1,3.8c0,0.4,0.1,2.4,0.1,2.9
				c0,0.9-0.8,1.1-1.1,1.1c-0.7,0-0.7-0.5-0.7-0.8c0-0.2,0.1-4.3,0.1-5.1c0-0.3,0-1.5,0-1.8h-2.9c-0.5,0-1.5,0-2.4,0.2l-0.4-0.8
				c1.1,0.1,2.1,0.1,3.2,0.1h2.6c0-4.4,0-4.7,0-8.7h-2.3c-0.5,0-1.5,0-2.4,0.2l-0.4-0.8c1.1,0.1,2.1,0.1,3.2,0.1h5.7l0.6-1
				c0.1-0.2,0.2-0.3,0.3-0.3c0.1,0,0.2,0.1,0.4,0.2l1.3,1c0.1,0.1,0.2,0.2,0.2,0.3c0,0.2-0.2,0.2-0.3,0.2h-4.8
				c0.1,2.4,0,6.3,0.1,8.7h2.9l0.7-1.2c0.1-0.1,0.2-0.3,0.3-0.3s0.2,0.1,0.4,0.2l1.4,1.2c0.1,0.1,0.2,0.2,0.2,0.3
				C434.1,19.1,433.9,19.1,433.8,19.1L433.8,19.1z M424.5,16.6c-0.6,0-0.7-0.3-1-1.7c-0.1-0.3-0.5-2.1-1.3-3l0.1-0.1
				c1.2,0.6,3.1,2.2,3.1,3.7C425.4,16.3,424.8,16.6,424.5,16.6z M432.1,13c-1,1.4-2.2,3-3.2,3.9l-0.1,0c0.7-1.5,1.8-4.2,1.9-5.7
				l1.8,0.9c0.1,0.1,0.3,0.3,0.3,0.4C432.9,12.7,432.8,12.7,432.1,13L432.1,13z"/>
			<path d="M453.5,26c-1.2,0.1-2.8,0.1-3.1,0.1c-6.1,0-7.2-0.5-8.3-1.1c-1.3-0.7-2.5-1.9-3.4-3.8c-0.3,1.4-0.9,3.3-3.1,5.3l-0.1-0.1
				c1.4-2.3,2.2-5,2.2-7.7c0-1-0.1-1.5-0.2-2l1.7,0.4c0.2,0.1,0.4,0.2,0.4,0.4c0,0.1,0,0.2-0.5,0.5c0,0.7-0.1,1.4-0.3,2.4
				c0.3,0.8,0.7,1.5,1.3,2.1c0-5.2,0-5.7-0.1-7h-1.3c-0.5,0-1.5,0-2.4,0.2l-0.4-0.8c1.3,0.1,2.6,0.1,3.2,0.1h1.1v-3.2h-0.6
				c-0.5,0-1.5,0-2.4,0.2l-0.4-0.8c1.2,0.1,2.4,0.1,3.5,0.1c0-2,0-2.2-0.4-3.6l1.9,0.5c0.2,0.1,0.4,0.1,0.4,0.3
				c0,0.2-0.1,0.3-0.2,0.4c-0.1,0.1-0.2,0.2-0.3,0.3v2.1h1.1l0.5-0.8c0.1-0.1,0.2-0.3,0.3-0.3c0.1,0,0.2,0.1,0.4,0.2l1,0.8
				c0.1,0.1,0.2,0.2,0.2,0.3c0,0.2-0.2,0.2-0.3,0.2h-3.2v3.2h1.2l0.5-0.9c0.1-0.1,0.2-0.3,0.3-0.3c0.1,0,0.2,0.1,0.4,0.2l1.1,0.9
				c0.1,0.1,0.2,0.2,0.2,0.3c0,0.2-0.2,0.2-0.3,0.2h-4.1l0.8,0.3C442,16,442,16,442,16.2c0,0.2-0.1,0.3-0.4,0.5l-0.1,0.1V19h0.9
				l0.5-0.8c0.1-0.1,0.2-0.3,0.3-0.3c0.1,0,0.2,0.1,0.4,0.2l1.1,0.9c0.1,0.1,0.2,0.1,0.2,0.3c0,0.2-0.2,0.2-0.3,0.2h-3v4.1
				c1.8,1.1,4.2,1.1,5.2,1.1c2.3,0,6.3-0.3,8-0.8l0,0.2C454.1,24.4,453.7,25.3,453.5,26L453.5,26z M453.2,10.8
				c-0.3,3.1-0.6,5.8-3.1,5.7c-0.1-0.7-0.1-0.9-1.4-2.1l0.1-0.1c0.5,0.2,1.1,0.4,1.7,0.4c1,0,1.1-1.7,1.3-3.9c0-0.3,0-0.5,0-0.7
				h-2.8c-0.4,4.6-2.8,6.1-5,7l-0.1-0.2c2.5-1.8,3.5-4,3.6-6.8c-0.3,0-1.6,0-2.5,0.2l-0.4-0.8c1.4,0.1,3,0.1,3.2,0.1h3.9l0.4-0.4
				c0.1-0.1,0.2-0.2,0.3-0.2c0.1,0,0.2,0.1,0.4,0.2l0.8,0.7c0.1,0.1,0.2,0.2,0.2,0.3C453.9,10.2,453.8,10.2,453.2,10.8z M452.8,18.3
				c0,0.7,0,1.5,0,2.5c0,0.2,0.1,1.2,0.1,1.4c0,1-0.6,1.1-0.8,1.1c-0.2,0-0.6-0.2-0.6-0.6c0-0.1,0-0.1,0-0.3h-4.7
				c0,0.5,0,0.5-0.1,0.7c-0.2,0.2-0.5,0.4-0.8,0.4c-0.4,0-0.6-0.3-0.6-0.5c0-0.5,0.1-3.2,0.1-3.8c0-1.2,0-1.5-0.1-2.2l1.4,0.6h4.5
				l0.5-0.5c0.1-0.1,0.2-0.2,0.3-0.2c0.1,0,0.2,0.1,0.4,0.2l0.6,0.5c0.1,0.1,0.3,0.2,0.3,0.4C453.3,17.9,453.3,17.9,452.8,18.3z
				 M451.5,17.9h-4.7v4h4.7V17.9z"/>
			<path d="M465.8,19c-0.9,0-1.7-0.7-1.7-1.7c0-0.9,0.7-1.7,1.7-1.7c0.9,0,1.7,0.7,1.7,1.7C467.5,18.3,466.7,19,465.8,19z"/>
			<path d="M495.3,11.7H487v2.5h4.8l0.6-0.6c0.1-0.1,0.2-0.2,0.4-0.2c0.1,0,0.2,0.1,0.4,0.2l0.8,0.6c0.2,0.1,0.3,0.3,0.3,0.4
				c0,0.2-0.4,0.5-0.8,0.7c-0.1,1.4,0.1,7.4,0.1,8.6c0,0.7,0,2.1-2.4,2.6c-0.1-0.4-0.2-0.7-0.5-1c-0.1-0.1-0.7-0.6-1.5-0.9l0-0.1
				c0.5,0.1,1.1,0.1,2.1,0.1c0.7,0,0.9-0.1,0.9-0.9v-8.9h-3.5l1.2,0.7c0.1,0.1,0.2,0.2,0.2,0.3c0,0.2-0.3,0.3-0.8,0.4
				c-0.4,0.5-1.5,1.7-1.9,2h1.4l0.6-0.6c0.1-0.1,0.3-0.2,0.4-0.2c0.1,0,0.2,0.1,0.4,0.2l0.7,0.6c0.1,0.1,0.2,0.2,0.2,0.3
				c0,0.2-0.1,0.2-0.3,0.2h-3.8v2.3h1.9l0.6-0.8c0.1-0.2,0.2-0.2,0.4-0.2c0.1,0,0.2,0.1,0.4,0.2l0.9,0.7c0.1,0.1,0.2,0.2,0.2,0.3
				c0,0.1-0.1,0.2-0.3,0.2h-4.1c0,0.6,0.1,3,0.1,3.5c0,0.4,0,1-1.1,1c-0.5,0-0.5-0.2-0.5-0.6c0-0.6,0.1-3.4,0.1-3.9h-1.3
				c-0.5,0-1.5,0-2.4,0.2l-0.4-0.8c1.4,0.1,2.9,0.1,3.2,0.1h0.9v-2.3h-0.8c-0.2,0-1.5,0-2.4,0.2l-0.4-0.8c1.4,0.1,2.8,0.1,3.2,0.1
				h1.7c0.6-1.1,1-2.2,1.2-3.4h-7.3c0,0.4,0,2.7,0,5.4c0,0.9,0.1,4.7,0.1,5.4c0,0.9-0.9,0.9-1.1,0.9c-0.4,0-0.6-0.3-0.6-0.7
				c0-0.5,0.1-2.5,0.1-2.9c0.1-2.5,0.1-6.1,0.1-6.2c0-1.8-0.1-2.5-0.2-3.5l2,1.1h4.6c0-0.1,0-1.5,0-2.5h-5.6c-0.2,0-1.5,0-2.4,0.2
				l-0.4-0.8c1.4,0.1,3,0.1,3.2,0.1h5.3c0-2-0.1-2.5-0.5-3.4l2.2,0.6c0.3,0.1,0.5,0.2,0.5,0.4c0,0.2-0.4,0.5-0.7,0.7
				c0,0.5,0,1.2,0,1.8h5.5l0.9-1c0.2-0.2,0.2-0.3,0.4-0.3s0.2,0.1,0.4,0.2l1.2,1c0.1,0.1,0.2,0.2,0.2,0.3
				C495.6,11.6,495.5,11.7,495.3,11.7L495.3,11.7z M484.9,17.8c-0.5,0-0.7-0.4-0.8-1c-0.3-1.1-0.6-1.5-0.8-1.8l0.1-0.1
				c0.9,0.4,2.3,1,2.3,2.1C485.6,17.4,485.3,17.8,484.9,17.8L484.9,17.8z"/>
			<path d="M508.1,19.2c1.9,2.2,5.2,4.2,8.9,4.3v0.2c-1.2,0.3-1.9,1.1-2.2,1.9c-0.6-0.2-5.2-2.6-7-6.3c0,0.9,0,5,0.1,5.8
				c0,0.1,0,0.6,0,0.7c0,0.7-0.7,1-1.2,1c-0.4,0-0.5-0.3-0.5-0.6c0-0.1,0-0.2,0-0.5c0.1-1.4,0.2-3.2,0.2-5.6
				c-1.9,2.3-5.7,4.7-8.7,5.4l-0.1-0.2c3.1-1.3,7.4-5.6,7.8-6.3h-2.8c0,0.7-0.1,1.2-1.1,1.2c-0.4,0-0.5-0.2-0.5-0.5
				c0-0.2,0.1-1.2,0.1-1.4c0-0.7,0.1-1.8,0.1-2.9c0-1.9-0.1-2.5-0.3-3.4l1.9,0.8h3.5c0-0.5,0-1.6,0-2.1h-5.6c-0.4,0-1.4,0-2.4,0.2
				l-0.4-0.8c1.5,0.1,2.9,0.1,3.2,0.1h5.3c-0.1-1.3-0.1-2-0.4-2.7l2.1,0.6c0.2,0,0.4,0.1,0.4,0.3c0,0.2-0.5,0.6-0.7,0.7v1.2h5.6
				l0.9-1c0.1-0.2,0.2-0.3,0.3-0.3s0.2,0.1,0.4,0.2l1.3,1c0.1,0.1,0.2,0.2,0.2,0.3c0,0.2-0.2,0.2-0.3,0.2h-8.4v2.1h3.5l0.7-0.6
				c0,0,0.2-0.1,0.2-0.1c0.1,0,0.2,0.1,0.3,0.1l0.9,0.7c0.1,0.1,0.2,0.2,0.2,0.3c0,0.2-0.1,0.3-0.7,0.6c0,0.5,0,1.1,0,2.6
				c0,0.3,0.1,2.5,0.1,2.7c0,0.7-0.6,0.9-1.1,0.9c-0.6,0-0.5-0.4-0.5-1.1H508.1L508.1,19.2z M502.6,13.6v2.2h3.7l0-2.2H502.6
				L502.6,13.6z M506.3,18.7v-2.4h-3.7v2.4H506.3z M511.5,18.7v-2.4h-3.8c0,0.3,0,2,0,2.4H511.5L511.5,18.7z M511.5,15.9v-2.2h-3.8
				v2.2L511.5,15.9L511.5,15.9z"/>
			<path d="M536,26c-0.3,0-0.4,0.1-0.7,0.1c-1.5,0-6.5,0-7.8-0.1c-3.3-0.3-4.2-1.7-4.7-2.9c-0.5,0.7-1.4,1.9-2.1,2.9
				c-0.1,0.3-0.1,0.6-0.3,0.6c-0.1,0-0.2-0.1-0.3-0.2l-1.3-1.6c0.3,0,0.7,0,1.2-0.3c0.2-0.1,1.2-0.6,1.9-1.1v-5.8
				c-0.6,0-1.8,0-2.7,0.2l-0.4-0.8c1,0.1,1.6,0.1,2.7,0.1l0.8-0.7c0.2-0.1,0.3-0.2,0.4-0.2s0.2,0,0.4,0.2l0.8,0.7
				c0.1,0.1,0.2,0.2,0.2,0.3c0,0.1,0,0.2-0.2,0.3c-0.1,0.1-0.4,0.3-0.6,0.5c0,0.1,0,0.4,0,0.4v4.1c0,0.1,0,1.7,2.4,2.1
				c0.9,0.2,1.8,0.2,3.7,0.2c2.7,0,5.3-0.1,7.9-0.9l0,0.1C536.2,25.1,536.1,25.4,536,26L536,26z M522.3,12.5c-0.7,0-0.8-0.4-1.2-1.5
				c-0.4-1.1-0.7-1.7-1.3-2.3l0.1,0c1.5,0.3,3.3,1.5,3.3,2.8C523.2,12,522.8,12.5,522.3,12.5z M536.4,11.6h-6
				c-0.5,0.8-0.8,1.3-1.5,2.2h3.6l0.6-0.6c0.2-0.2,0.2-0.2,0.3-0.2c0.1,0,0.2,0.1,0.4,0.2l0.8,0.6c0.1,0.1,0.2,0.2,0.2,0.4
				c0,0.2-0.1,0.3-0.6,0.7c-0.1,0.7-0.1,1.1-0.1,1.5c0,1.3,0.1,3.1,0.1,5c0,0.1,0,0.8,0,0.9c0,0.4-0.2,1-0.9,1c0,0-0.5,0-0.5-0.5
				c0-0.1,0-0.4,0-0.4h-6c0,0.5,0,0.6-0.2,0.8c-0.3,0.3-0.6,0.4-0.8,0.4c-0.3,0-0.6-0.2-0.6-0.6c0-0.2,0.1-1.3,0.1-1.5
				c0-1.1,0.1-2.4,0.1-3.9c0-1.5,0-3.4-0.2-4.6l1.8,0.7h1.3c0.1-1.8,0.1-2,0.2-2.2h-2.1c-0.5,0-1.5,0-2.4,0.2l-0.4-0.8
				c1.1,0.1,2.1,0.1,3.2,0.1h3.2c0.4-0.8,1.1-2.6,1-3.4l1.9,0.8c0.2,0.1,0.3,0.2,0.3,0.3s-0.1,0.2-0.8,0.4c-0.6,0.6-0.8,0.8-2,1.9
				h3.3l0.8-0.9c0.2-0.2,0.3-0.3,0.4-0.3s0.2,0.1,0.4,0.2l1.2,0.9c0.1,0.1,0.2,0.2,0.2,0.3C536.8,11.6,536.6,11.6,536.4,11.6
				L536.4,11.6z M528.2,10.9c-0.5,0-0.6-0.2-1-1.2c-0.4-0.8-0.7-1.2-1.1-1.5l0-0.1c1.1,0.2,2.8,0.8,2.8,2
				C528.9,10.5,528.7,10.9,528.2,10.9L528.2,10.9z M533,14.4h-6v2.2h6V14.4z M533,17h-6v2.2h6V17z M533,19.8h-6V22h6V19.8z"/>
			<path d="M544.9,9.4l0.4-0.4c0.2-0.2,0.3-0.2,0.3-0.2c0.1,0,0.1,0,0.4,0.2l0.8,0.5c0.2,0.1,0.3,0.2,0.3,0.4c0,0.2-0.4,0.5-0.8,0.7
				c0,0.7,0,4.4,0,4.5c-0.1,0.5-0.8,0.5-0.8,0.5c-0.5,0-0.5-0.3-0.5-0.7h-0.6v3.6h0.4l0.5-0.8c0.1-0.2,0.2-0.3,0.3-0.3
				c0.1,0,0.2,0.1,0.4,0.2l0.9,0.8c0.1,0.1,0.2,0.2,0.2,0.3c0,0.2-0.2,0.2-0.3,0.2h-2.4v4.3c2.3-0.6,3.1-0.8,3.9-1.1v0.2
				c-2,1-2.4,1.2-7.5,3.1c-0.1,0-0.2,0.1-0.3,0.1c-0.4,0.6-0.4,0.6-0.6,0.6c-0.1,0-0.3-0.1-0.3-0.2l-0.9-1.9c0.4,0.1,0.7,0.1,1,0.1
				c0.2,0,0.3,0,0.6,0c0-4.9,0-5.8,0-6.4c0-0.4-0.1-0.7-0.3-1.2l1.9,0.5c0.2,0.1,0.4,0.2,0.4,0.3c0,0.2-0.1,0.2-0.6,0.6v6
				c0.8-0.2,1-0.2,1.4-0.3v-8.7h-1.2c0,0.4,0,0.5,0,0.6c-0.2,0.3-0.9,0.5-1,0.5c-0.4,0-0.4-0.5-0.4-0.6c0-0.1,0-0.7,0-0.8
				c0-1.5,0-2.9,0-4.4c0-0.2,0-1.1-0.1-1.7l1.7,0.9C542,9.4,544.9,9.4,544.9,9.4z M541.8,9.9v4.5h3.3V9.9
				C545.1,9.9,541.8,9.9,541.8,9.9z M553.8,10.7l0.6-0.5c0.2-0.2,0.2-0.2,0.4-0.2c0.1,0,0.1,0,0.3,0.2l1.1,0.9
				c0.1,0.1,0.2,0.2,0.2,0.4c0,0.3-0.1,0.3-1.3,0.5c-1,1.8-2,3.1-2.2,3.3c1.5,1.3,3.5,1.8,5.5,2v0.1c-0.8,0.3-1,0.6-1.5,1.7
				c-0.8-0.3-3.1-1.3-4.7-3.1c-0.6,0.7-1.8,1.8-3.2,2.7l1.6,0.7h3.6l0.4-0.5c0.1-0.2,0.2-0.2,0.3-0.2s0.2,0,0.5,0.2l0.8,0.6
				c0.2,0.1,0.3,0.2,0.3,0.3c0,0.1-0.1,0.2-0.6,0.6c0,0.7,0.1,4.3,0.1,5.1c0,0.4-0.1,0.9-0.9,0.9c-0.6,0-0.6-0.2-0.6-1.1h-4.1
				c0,0.4,0.1,1.3-0.9,1.3c-0.6,0-0.6-0.5-0.6-0.6c0-0.2,0.1-1.2,0.1-1.5c0.1-1.9,0.1-3.4,0.1-4c0-0.5,0-1.2-0.1-1.7
				c-1,0.6-1.6,0.8-2.2,1l-0.1-0.2c1.9-1.2,3.5-2.7,4.9-4.5c-0.6-0.9-1-1.8-1.4-3.3c-1,1.6-2.2,3.1-3.7,4.2l-0.1-0.1
				c1.2-1.4,3.5-5,3.7-7.9l1.9,1c0.2,0.1,0.3,0.2,0.3,0.3c0,0.2-0.6,0.4-0.9,0.5c-0.3,0.6-0.4,0.7-0.5,1L553.8,10.7L553.8,10.7z
				 M554.3,19.9h-4.1v4.9h4.1V19.9z M550.4,11.2c-0.1,0.1-0.1,0.1-0.1,0.2c0.4,1,0.9,2,1.7,3c1.1-1.5,1.4-2.4,1.8-3.2H550.4z"/>
			<path d="M569,19c-0.9,0-1.7-0.7-1.7-1.7c0-0.9,0.7-1.7,1.7-1.7c0.9,0,1.7,0.7,1.7,1.7C570.7,18.3,569.9,19,569,19z"/>
			<path d="M595.5,14.8c-0.4,0.3-0.4,0.4-0.5,1.2c-0.5,3.1-1.1,6.5-2.6,8.1c-0.5,0.6-1,0.7-1.2,0.7c-0.3,0-0.4-0.3-0.5-0.6
				c-0.2-0.8-0.2-1.1-1.7-2.6l0.1-0.1c1.1,0.5,2.1,1,2.4,1c0.2,0,0.4-0.1,0.5-0.3c1.4-2.5,1.8-6.3,1.7-7.9c-0.7,0.1-1.1,0.1-3.8,0.5
				c-0.9,3.1-2.4,8-7.4,10.1l-0.1-0.1c2.4-2,4.6-4.6,6.1-9.8c-1.6,0.2-2.6,0.4-3.2,0.7c-0.6,0.3-0.6,0.3-0.8,0.3
				c-0.4,0-1.6-0.9-1.6-2.1c0-0.2,0.1-0.4,0.1-0.6c0.3,0.5,1.2,1.1,1.9,1.1c0.2,0,1.4-0.1,2.2-0.2l1.6-0.2c0.5-1.8,0.5-2.7,0.5-2.8
				c0-0.9-0.4-1.1-1.2-1.4c0.3-0.1,0.6-0.3,1.1-0.3c0.6,0,2.1,0.7,2.1,1.2c0,0.2-0.1,0.3-0.4,0.6c-0.1,0.1-0.2,0.2-0.3,0.8
				c-0.1,0.3-0.4,1.6-0.5,1.8c0.4,0,2.7-0.3,2.9-0.4c0.2-0.1,0.8-0.7,1-0.7c0.3,0,1.9,1.1,1.9,1.5C595.9,14.5,595.8,14.6,595.5,14.8
				L595.5,14.8z"/>
			<path d="M616.8,18.1c-0.2,0-0.7,0-0.7,0c-0.7-0.1-0.9-0.1-2.3-0.1c-6.3,0-8.1,0.1-9.1,0.4c-0.1,0-0.7,0.2-0.8,0.2
				c-0.5,0-1.7-1.3-1.7-2.3c0-0.1,0-0.5,0.2-1c0.7,1.6,1.3,1.6,3.5,1.6c1.4,0,8.1,0,9.1-0.2c0.1,0,0.7-0.2,0.8-0.2
				c0.1,0,2.2,0.2,2.2,1C618,18,617,18.1,616.8,18.1z"/>
			<path d="M637,24.3c-0.4,0-0.7-0.4-0.8-0.7c-1.7-2.7-2.8-4.1-4.6-5.4c-3.7,4.6-7.2,5.9-9.1,6.3l0-0.2c4.8-2.1,9.8-8.4,11-12.3
				c-0.8,0.1-4.2,0.7-5.3,1.2c-0.2,0.1-0.9,0.5-1.1,0.5c-0.3,0-1.4-1-1.4-2.1c0-0.4,0.1-0.7,0.2-0.9c0.8,1.2,1.1,1.3,1.5,1.3
				c0.6,0,5.1-0.4,5.9-0.9c0.1-0.1,0.8-0.6,0.9-0.6c0.2,0,1.8,1.3,1.8,1.7c0,0.2-0.1,0.3-0.8,0.5c-0.1,0.1-0.2,0.1-0.4,0.6
				c-0.9,1.8-1.4,2.8-2.7,4.5c2.5,1.1,5.9,3.5,5.9,5.5C637.7,23.9,637.5,24.3,637,24.3z"/>
			<path d="M659.7,22.6c-1.3,0-7.2-6.5-7.3-6.6c-0.6-0.7-1.6-1.8-2.1-2.1c-0.1-0.1-0.2-0.1-0.5-0.1c-0.7,0-1.7,1.4-2.2,2.1
				c-0.6,0.8-1.9,2.7-2.1,3.3c-0.3,0.8-0.4,0.9-0.7,0.9c-0.5,0-2.1-1.3-2.1-2.6c0-0.2,0-0.4,0.1-0.6c0.3,0.4,0.9,1,1.3,1
				c0.3,0,0.4,0,2.6-2.5c2.3-2.6,2.6-2.8,3.4-2.8c0.7,0,1.2,0.4,2.9,2.3c1.7,1.8,3.5,3.5,5.6,4.8c1.1,0.7,1.6,1.6,1.6,2.2
				C660.2,22.4,659.9,22.6,659.7,22.6z M657.2,14.5c-1.1,0-2-0.9-2-2s0.9-2,2-2c1.1,0,2,0.9,2,2S658.3,14.5,657.2,14.5z M657.2,11.3
				c-0.7,0-1.2,0.5-1.2,1.2s0.5,1.2,1.2,1.2s1.2-0.5,1.2-1.2S657.9,11.3,657.2,11.3z"/>
			<path d="M678.7,18.1c-0.2,0-0.7,0-0.7,0c-0.7-0.1-0.9-0.1-2.3-0.1c-6.3,0-8.1,0.1-9.1,0.4c-0.1,0-0.7,0.2-0.8,0.2
				c-0.5,0-1.7-1.3-1.7-2.3c0-0.1,0-0.5,0.2-1c0.7,1.6,1.3,1.6,3.5,1.6c1.4,0,8.1,0,9.1-0.2c0.1,0,0.7-0.2,0.8-0.2
				c0.1,0,2.2,0.2,2.2,1C679.9,18,678.9,18.1,678.7,18.1L678.7,18.1z"/>
			<path d="M698.9,24.3c-0.4,0-0.7-0.4-0.8-0.7c-1.7-2.7-2.8-4.1-4.6-5.4c-3.7,4.6-7.2,5.9-9.1,6.3l0-0.2c4.8-2.1,9.8-8.4,11-12.3
				c-0.8,0.1-4.2,0.7-5.3,1.2c-0.2,0.1-0.9,0.5-1.1,0.5c-0.3,0-1.4-1-1.4-2.1c0-0.4,0.1-0.7,0.2-0.9c0.8,1.2,1.1,1.3,1.5,1.3
				c0.6,0,5.1-0.4,5.9-0.9c0.1-0.1,0.8-0.6,0.9-0.6c0.2,0,1.8,1.3,1.8,1.7c0,0.2-0.1,0.3-0.8,0.5c-0.1,0.1-0.2,0.1-0.4,0.6
				c-0.9,1.8-1.4,2.8-2.7,4.5c2.5,1.1,5.9,3.5,5.9,5.5C699.6,23.9,699.4,24.3,698.9,24.3L698.9,24.3z"/>
			<path d="M716.9,25.2h-8.1v-0.6c0.4-1.3,1.4-2.7,3-4.6c3-3.5,4.1-4.7,4.1-6.7c0-1.5-1-2.8-2.7-2.8c-1.4,0-2.3,0.9-2.3,1.6
				c0,0.1,0,0.3,0.2,0.6c0.3,0.4,0.4,0.6,0.4,1c0,0.6-0.5,1.2-1.1,1.2c-0.7,0-1.2-0.7-1.2-1.4c0-1.5,1.5-3.7,4.4-3.7
				c2.6,0,4.1,1.6,4.1,3.8c0,2.1-1.2,3.2-3.1,4.8c-0.7,0.6-3.4,2.9-4.5,5.2h2.8c2.9,0,3.6-1.1,4.2-2.8l0.6,0.2L716.9,25.2
				L716.9,25.2z"/>
			<path d="M742.4,17.5c-0.6,0-0.9-0.5-1.2-0.8c-0.8-1.1-1.4-1.8-1.7-2c-2.2,0.4-3.7,0.7-6.5,1c-1,0.1-5.3,0.6-6.2,0.7
				c-0.3,0.5-0.4,0.6-0.6,0.6c-0.2,0-0.3-0.2-0.3-0.3l-0.7-2.4c0.3,0.1,0.6,0.3,1.2,0.4c0.6,0.1,2.3,0,3.4,0c1.7-3,3.1-5.5,2.9-6.9
				l2.3,1.2c0.1,0,0.2,0.2,0.2,0.3c0,0.4-0.7,0.5-1,0.5c-1.2,1.8-2.6,3.4-4,5c2.9-0.1,3.8-0.1,8.9-0.4c-1.1-1.1-2.1-1.7-2.7-2.1
				v-0.1c2.5,0.5,6.6,2.6,6.6,4.4C743.2,16.9,742.9,17.5,742.4,17.5z M740.2,19.4c0,0.3,0,0.6,0,1.1c0,0.8,0.2,4.3,0.2,4.9
				c0,1.1-1,1.1-1.1,1.1c-0.7,0-0.7-0.7-0.6-1.2h-9.1c0,0.5,0.1,1.5-1.1,1.5c-0.3,0-0.6-0.1-0.6-0.6c0-0.2,0.1-1.1,0.1-1.3
				c0.1-1.5,0.1-3.3,0.1-5.7c0-0.7,0-1.3-0.2-1.9l2.2,1.1h8.4l0.6-0.8c0-0.1,0.1-0.2,0.2-0.2c0.1,0,0.2,0.1,0.3,0.1l1.2,0.8
				c0.1,0,0.2,0.2,0.2,0.3C741,18.9,740.5,19.2,740.2,19.4z M738.8,18.9h-9.2v5.9h9.2V18.9z"/>
		</g>
	</g>
</g>
</svg>
